<?xml version="1.0" encoding="utf-8"?>
<!-- Generator: Adobe Illustrator 26.0.2, SVG Export Plug-In . SVG Version: 6.00 Build 0)  -->
<svg version="1.1" id="Layer_1" xmlns="http://www.w3.org/2000/svg" xmlns:xlink="http://www.w3.org/1999/xlink" x="0px" y="0px"
	 viewBox="0 0 50 42" style="enable-background:new 0 0 50 42;" xml:space="preserve">
<g>
	<path d="M47.89,19.12c-0.27,0.7-0.74,1.14-1.54,1.17c-0.26,1.36-0.52,2.71-0.78,4.05c-0.5,2.57-0.95,5.15-1.51,7.71
		c-0.52,2.38-2.07,3.81-4.45,4.34c-0.08,0.02-0.17,0.05-0.27,0.09c0.03,0.53,0.06,1.05,0.1,1.57c0.07,0.93-0.48,1.54-1.42,1.55
		c-0.24,0-0.48,0-0.72,0c-0.5,0.01-0.89-0.18-1.21-0.56c-0.63-0.76-1.25-1.52-1.91-2.25c-0.14-0.16-0.42-0.29-0.63-0.29
		c-5.66-0.02-11.32-0.01-16.98-0.02c-0.32,0-0.52,0.1-0.71,0.34c-0.6,0.74-1.23,1.46-1.83,2.19c-0.34,0.41-0.76,0.61-1.29,0.59
		c-0.25-0.01-0.51,0.01-0.76,0c-0.83-0.04-1.37-0.65-1.32-1.48c0.03-0.53,0.07-1.07,0.11-1.65c-0.17-0.04-0.34-0.07-0.51-0.12
		c-2.33-0.63-3.77-2.12-4.28-4.48c-0.23-1.05-0.41-2.1-0.61-3.15c-0.09-0.48,0.1-0.83,0.49-0.91c0.41-0.09,0.73,0.16,0.83,0.66
		c0.21,1.05,0.41,2.1,0.62,3.15c0.41,2.1,2.08,3.52,4.22,3.52c9.01,0.01,18.03,0.01,27.04,0c2.14,0,3.83-1.41,4.23-3.51
		c0.71-3.65,1.41-7.3,2.12-10.96c0.02-0.11,0.02-0.23,0.04-0.39c-1.1,0-2.17,0-3.24,0c-0.19,0-0.39-0.02-0.56-0.1
		c-0.31-0.14-0.41-0.43-0.32-0.75c0.09-0.35,0.36-0.49,0.71-0.49c1.1,0,2.2,0,3.31,0c0.43,0,0.86-0.02,1.3,0.01
		c0.3,0.01,0.41-0.08,0.42-0.4c0.01-1.16,0.02-1.16-1.13-1.16c-13.77,0-27.53,0-41.3,0c-0.79,0-0.66-0.01-0.67,0.68
		c-0.01,0.88,0,0.88,0.86,0.88c11.28,0,22.56,0,33.83,0c0.16,0,0.33-0.01,0.49,0.01c0.38,0.04,0.61,0.27,0.62,0.64
		c0.01,0.38-0.21,0.61-0.58,0.68c-0.16,0.03-0.33,0.01-0.49,0.01c-10.82,0-21.63,0-32.45,0c-0.19,0-0.38,0-0.63,0
		c0.18,0.95,0.35,1.85,0.52,2.75c0.15,0.77,0.3,1.55,0.45,2.32c0.09,0.46-0.12,0.81-0.51,0.89c-0.37,0.07-0.69-0.16-0.78-0.61
		c-0.33-1.68-0.65-3.36-0.98-5.04c-0.02-0.09-0.04-0.17-0.07-0.28c-0.12-0.02-0.23-0.03-0.34-0.05c-0.77-0.13-1.27-0.71-1.28-1.49
		c-0.01-0.37,0-0.74,0-1.12c0.01-1.02,0.59-1.6,1.61-1.61c1.07-0.01,2.15,0,3.22,0c0.16,0,0.32-0.01,0.5-0.02c0-0.63,0-1.22,0-1.89
		c-0.31,0-0.61,0-0.92,0c-1.09-0.02-1.72-0.64-1.72-1.73c0-0.34-0.01-0.69,0-1.03c0.03-0.89,0.68-1.54,1.57-1.56
		c0.34-0.01,0.68,0,1.1,0c0-0.56-0.01-1.09,0-1.61c0.04-2.38,1.49-4.49,3.7-5.38c3.71-1.5,7.87,1.26,7.93,5.26
		c0.01,0.46,0.01,0.92,0,1.39c-0.01,0.68-0.42,1.15-1.08,1.19c-0.67,0.04-1.34,0.04-2.01,0c-0.66-0.04-1.07-0.5-1.09-1.19
		c-0.02-0.4,0-0.8-0.01-1.21c-0.03-0.94-0.74-1.66-1.64-1.66c-0.9,0-1.59,0.71-1.61,1.68c-0.01,0.7,0,1.4,0,2.1
		c-0.01,0.52-0.26,0.83-0.67,0.83c-0.41,0-0.66-0.3-0.66-0.83c0-0.76-0.02-1.52,0.01-2.28c0.05-1.58,1.36-2.84,2.93-2.84
		c1.58-0.01,2.92,1.27,2.98,2.85c0.01,0.39,0,0.77,0,1.19c0.52,0,1,0,1.48,0c0.47-3.03-1.61-5.6-4.5-5.56
		C11,3.78,8.95,5.57,8.86,7.8c-0.11,2.72-0.03,5.45-0.03,8.21c0.48,0,0.96,0,1.5,0c0-0.85,0-1.67,0-2.5c0-0.47,0.21-0.72,0.59-0.76
		c0.43-0.04,0.73,0.24,0.74,0.74c0.01,0.67,0,1.34,0,2.01c0,0.16,0,0.32,0,0.54c0.24,0,0.45,0,0.65,0c11.22,0,22.44,0.01,33.65-0.01
		c0.91,0,1.56,0.26,1.92,1.12C47.89,17.81,47.89,18.46,47.89,19.12z M11.99,38.27c0.35-0.03,0.76,0.06,0.93-0.1
		c0.52-0.49,0.94-1.07,1.44-1.66c-0.81,0-1.52,0-2.26,0C12.07,37.08,12.03,37.64,11.99,38.27z M35.71,36.49
		c0.4,0.47,0.78,0.84,1.06,1.28c0.34,0.52,0.78,0.54,1.33,0.44c-0.04-0.58-0.08-1.14-0.12-1.71C37.23,36.49,36.52,36.49,35.71,36.49
		z M7.43,12.79c0-0.57,0-1.09,0-1.61c-1.59-0.07-1.25-0.13-1.29,1.15c0,0.06-0.02,0.14,0.01,0.17c0.08,0.1,0.17,0.27,0.27,0.28
		C6.75,12.81,7.09,12.79,7.43,12.79z"/>
</g>
</svg>
