<?xml version="1.0" encoding="utf-8"?>
<!-- Generator: Adobe Illustrator 26.0.2, SVG Export Plug-In . SVG Version: 6.00 Build 0)  -->
<svg version="1.1" id="Layer_1" xmlns="http://www.w3.org/2000/svg" xmlns:xlink="http://www.w3.org/1999/xlink" x="0px" y="0px"
	 viewBox="0 0 35 33" style="enable-background:new 0 0 35 33;" xml:space="preserve">
<g>
	<path d="M8.81,32.49c-0.35-0.13-0.72-0.22-1.04-0.4c-0.61-0.34-1-0.87-1.2-1.53c-0.05-0.16-0.11-0.23-0.28-0.27
		c-0.53-0.12-0.88-0.46-1-1c-0.06-0.25-0.09-0.51-0.11-0.77c-0.04-0.53,0.2-0.92,0.63-1.21c0.08-0.06,0.18-0.19,0.17-0.27
		c-0.57-3.63-1.15-7.25-1.73-10.9c-0.1-0.01-0.21-0.01-0.31-0.03c-0.58-0.06-1-0.44-1.12-1.01c-0.04-0.2-0.08-0.41-0.11-0.61
		c-0.13-0.79,0.19-1.3,1.01-1.6c-0.07-0.45-0.14-0.91-0.21-1.37C3.31,10.22,3.18,8.9,2.91,7.61c-0.23-1.12-0.6-2.22-0.95-3.32
		c-0.39-1.2-0.11-2.39,0.8-3.14c0.88-0.73,2.09-0.84,3.09-0.29c1,0.55,1.54,1.66,1.38,2.82C6.97,5.45,6.98,7.21,7.34,9.01
		c0.1,0,0.21,0,0.32,0c6.51,0,13.01,0,19.52,0.01c0.25,0,0.37-0.06,0.45-0.3c0.26-0.76,0.54-1.51,0.81-2.26
		c0.35-0.96,1.29-1.45,2.28-1.2c1.17,0.3,1.76,1.7,1.14,2.74c-0.28,0.47-0.61,0.91-0.93,1.39c0.76,0.61,0.89,1.4,0.69,2.29
		c-0.05,0.2-0.06,0.41-0.1,0.62c-0.08,0.39-0.16,0.72,0.31,0.98c0.71,0.4,0.37,2.51-0.45,2.73c-0.09,0.02-0.19,0.04-0.26,0.09
		c-0.09,0.07-0.22,0.16-0.24,0.25c-0.56,3.44-1.1,6.88-1.65,10.32c-0.01,0.08-0.03,0.16-0.05,0.25c-0.04,0.18-0.03,0.32,0.18,0.43
		c0.31,0.17,0.51,0.46,0.57,0.82c0.12,0.68-0.07,1.79-0.8,2.02c-0.39,0.12-0.55,0.35-0.7,0.7c-0.34,0.82-0.99,1.32-1.85,1.54
		c-0.08,0.02-0.15,0.05-0.23,0.08C20.51,32.49,14.66,32.49,8.81,32.49z M15.71,26.58c0.03,0.3,0.04,0.6,0.09,0.88
		c0.35,1.83,1.35,3.18,3.14,3.8c3.56,1.23,7.08-1.91,6.69-5.56c-0.08-0.77-0.31-1.53-0.42-2.3c-0.32-2.17-0.08-4.28,0.81-6.29
		c0.5-1.14,1.06-2.26,1.62-3.37c0.87-1.71,1.76-3.42,2.66-5.12c0.2-0.38,0.51-0.71,0.73-1.09c0.36-0.6-0.06-1.36-0.74-1.41
		c-0.46-0.03-0.81,0.25-0.99,0.74c-0.33,0.92-0.63,1.85-1.04,2.73c-1.01,2.15-2.08,4.28-3.14,6.41c-0.64,1.3-1.51,2.44-2.58,3.41
		c-1.09,0.99-2.35,1.69-3.68,2.31C16.82,22.71,15.85,24.38,15.71,26.58z M9.48,16.14c0.05,0.48,0.1,0.92,0.14,1.37
		c0.03,0.38-0.11,0.59-0.4,0.63c-0.3,0.03-0.49-0.16-0.54-0.55c-0.05-0.48-0.11-0.96-0.16-1.44c-1.12,0-2.21,0-3.31,0
		c0.58,3.66,1.16,7.3,1.74,10.94c0.92,0,1.82,0,2.73,0C9.57,26,9.45,24.95,9.34,23.9c-0.14-1.28-0.28-2.56-0.4-3.85
		c-0.04-0.36,0.15-0.58,0.43-0.6c0.27-0.02,0.47,0.18,0.5,0.52c0.19,1.76,0.37,3.52,0.56,5.27c0.07,0.62,0.13,1.23,0.2,1.84
		c0.93,0,1.83,0,2.75,0c-0.19-3.67-0.39-7.31-0.58-10.95C11.68,16.14,10.6,16.14,9.48,16.14z M26.54,27.11
		c0.49,0,0.92-0.02,1.36,0.01c0.25,0.01,0.31-0.08,0.34-0.31c0.44-2.81,0.89-5.63,1.34-8.44c0.12-0.74,0.23-1.47,0.35-2.2
		c-0.04-0.02-0.06-0.04-0.08-0.04c-0.52,0-1.05,0.04-1.56-0.02c-0.6-0.07-0.88,0.17-1.13,0.7c-1.08,2.27-1.41,4.62-0.91,7.07
		C26.47,24.94,26.74,25.97,26.54,27.11z M25.12,13.85c-0.19,0-0.33,0-0.46,0c-6.78,0-13.55,0-20.33,0c-0.74,0-0.74,0.01-0.64,0.74
		c0.08,0.56,0.11,0.59,0.69,0.59c6.57,0,13.14,0,19.7,0c0.07,0,0.15,0.02,0.22,0c0.09-0.03,0.2-0.07,0.24-0.14
		C24.73,14.66,24.91,14.29,25.12,13.85z M17.1,16.14c-1.13,0-2.22,0-3.34,0c0.19,3.66,0.39,7.3,0.58,10.96c0.16,0,0.29,0,0.42,0
		c0.02-0.03,0.03-0.05,0.03-0.07c0.01-0.06,0.01-0.12,0.01-0.19c-0.05-1.99,0.68-3.65,2.14-4.99c0.1-0.09,0.15-0.27,0.15-0.41
		c0.01-1.37,0.01-2.75,0.01-4.12C17.1,16.94,17.1,16.55,17.1,16.14z M6.34,8.99C6.32,8.83,6.3,8.68,6.29,8.54
		C6.23,7.59,6.13,6.65,6.12,5.71c-0.01-0.72,0.1-1.45,0.17-2.17C6.36,2.75,6.1,2.12,5.41,1.72C4.73,1.32,4.05,1.38,3.42,1.84
		C2.78,2.31,2.59,3.12,2.86,3.98c0.3,0.93,0.61,1.85,0.85,2.8C3.9,7.49,3.98,8.24,4.1,8.99C4.83,8.99,5.57,8.99,6.34,8.99z
		 M18.07,16.14c0,1.65,0,3.27,0,4.97c0.86-0.47,1.67-0.91,2.48-1.34c0.41-0.22,0.6-0.51,0.6-1c-0.01-0.87,0.08-1.74,0.13-2.63
		C20.2,16.14,19.14,16.14,18.07,16.14z M15.41,29.37c-0.13-0.36-0.27-0.69-0.36-1.02c-0.06-0.23-0.17-0.3-0.41-0.3
		c-2.63,0.01-5.26,0.01-7.89,0.01c-0.1,0-0.22-0.01-0.31,0.02c-0.1,0.04-0.22,0.11-0.26,0.19c-0.26,0.46,0.13,1.1,0.64,1.1
		c2.76,0,5.51,0,8.27,0C15.18,29.37,15.28,29.37,15.41,29.37z M17.09,9.98c-1.23,0-2.43,0-3.65,0c0.05,0.98,0.1,1.93,0.15,2.88
		c1.19,0,2.34,0,3.49,0C17.09,11.89,17.09,10.95,17.09,9.98z M22.41,12.89c1.05,0,2.04,0,3.02-0.01c0.08,0,0.18-0.06,0.22-0.12
		c0.57-0.84,0.56-1.82,0.65-2.79c-1.26,0-2.49,0-3.74,0C22.51,10.95,22.46,11.9,22.41,12.89z M9.13,12.87c1.18,0,2.33,0,3.5,0
		c-0.05-0.98-0.1-1.93-0.15-2.89c-1.23,0-2.43,0-3.65,0C8.93,10.95,9.03,11.9,9.13,12.87z M8.18,12.87c-0.11-1-0.21-1.95-0.31-2.89
		c-1.23,0-2.42,0-3.65,0c0.16,0.99,0.31,1.94,0.46,2.89C5.87,12.87,7.01,12.87,8.18,12.87z M21.45,12.87
		c0.05-0.98,0.1-1.93,0.15-2.9c-1.19,0-2.36,0-3.54,0c0,0.97,0,1.93,0,2.9C19.19,12.87,20.3,12.87,21.45,12.87z M27.99,15.17
		c0.82,0,1.56,0,2.29,0c0.91,0,0.82,0.08,0.97-0.91c0.04-0.28-0.09-0.41-0.37-0.41c-0.68,0-1.37,0-2.05,0c-0.08,0-0.2,0.04-0.23,0.1
		C28.4,14.34,28.21,14.73,27.99,15.17z M25.81,29.37c0.93,0,1.83,0,2.73,0c0.22,0,0.35-0.12,0.39-0.33
		c0.03-0.14,0.05-0.29,0.07-0.43c0.05-0.38-0.09-0.55-0.47-0.56c-0.66-0.01-1.33-0.01-1.99,0c-0.08,0-0.2,0.06-0.23,0.13
		C26.13,28.57,25.98,28.95,25.81,29.37z M11.11,31.52c0.87,0,1.68,0,2.52,0c-0.03-0.41-0.05-0.79-0.08-1.19c-0.44,0-0.86,0-1.27,0
		c-0.42,0-0.85,0-1.3,0C11.03,30.75,11.07,31.13,11.11,31.52z M7.51,30.33c0.4,1.11,1.4,1.36,2.63,1.16
		c-0.03-0.33-0.05-0.66-0.1-0.99c-0.01-0.07-0.11-0.17-0.17-0.17C9.1,30.32,8.32,30.33,7.51,30.33z M25.12,30.34
		c-0.04,0.4-0.08,0.78-0.12,1.17c1.4,0.19,2.44-0.28,2.6-1.17C26.78,30.34,25.96,30.34,25.12,30.34z M17.12,31.53
		c-0.04-0.1-0.04-0.17-0.08-0.21c-0.31-0.31-0.62-0.61-0.93-0.92c-0.03-0.03-0.07-0.06-0.1-0.06c-0.49,0-0.98,0-1.49,0
		c0.02,0.43,0.05,0.81,0.07,1.2C15.43,31.53,16.25,31.53,17.12,31.53z M22.11,18.53c0.77-0.75,1.37-1.51,1.86-2.39
		c-0.59,0-1.15,0-1.73,0C22.19,16.91,22.15,17.67,22.11,18.53z M29.12,12.89c0.43,0,0.79,0.01,1.15-0.01c0.08,0,0.19-0.11,0.21-0.18
		c0.1-0.5,0.18-1,0.25-1.5c0.05-0.35,0.02-0.68-0.29-0.95c-0.1,0.19-0.19,0.36-0.28,0.53C29.82,11.46,29.48,12.15,29.12,12.89z"/>
	<path d="M16.34,26.61c0.04-2.3,1.66-4.25,3.88-4.64c2.29-0.4,4.5,1.27,4.77,3.59c0.09,0.78,0.01,1.53-0.26,2.27
		c-0.13,0.36-0.37,0.5-0.66,0.4c-0.26-0.1-0.35-0.36-0.23-0.71c0.37-1.13,0.33-2.22-0.34-3.23c-0.92-1.38-2.49-1.8-4-1.12
		c-1.78,0.79-2.66,2.98-1.93,4.78c0.76,1.87,2.99,2.57,4.71,1.47c0.11-0.07,0.22-0.15,0.34-0.22c0.25-0.14,0.52-0.07,0.66,0.15
		c0.13,0.21,0.09,0.47-0.14,0.63c-0.61,0.46-1.29,0.78-2.05,0.86c-2.29,0.25-4.12-1.05-4.63-3.29
		C16.4,27.26,16.38,26.93,16.34,26.61z"/>
</g>
</svg>
