<?xml version="1.0" encoding="utf-8"?>
<!-- Generator: Adobe Illustrator 26.0.2, SVG Export Plug-In . SVG Version: 6.00 Build 0)  -->
<svg version="1.1" id="Layer_1" xmlns="http://www.w3.org/2000/svg" xmlns:xlink="http://www.w3.org/1999/xlink" x="0px" y="0px"
	 viewBox="0 0 42 33" style="enable-background:new 0 0 42 33;" xml:space="preserve">
<g>
	<path d="M41.11,16.81c-0.26,0.52-0.62,0.89-1.25,0.92c-0.09,0-0.2,0.2-0.24,0.33c-0.45,1.64-0.89,3.28-1.33,4.92
		c-0.66,2.49-2.2,4.17-4.63,5.02c-0.22,0.07-0.28,0.18-0.28,0.39c0.01,0.54,0.01,1.07,0,1.61c-0.01,0.88-0.49,1.35-1.37,1.35
		c-0.33,0-0.65,0-0.98,0c-0.58-0.01-0.97-0.3-1.16-0.83c-0.22-0.6-0.43-1.21-0.61-1.82c-0.08-0.28-0.21-0.35-0.49-0.35
		c-3.04,0.01-6.07,0.01-9.11,0.01c-0.12,0-0.24,0.01-0.35-0.01c-0.33-0.04-0.57-0.29-0.56-0.6c0.01-0.31,0.24-0.54,0.59-0.57
		c0.12-0.01,0.24,0,0.35,0c3.82,0,7.65,0,11.47,0c3.11,0,5.24-1.64,6.03-4.63c0.4-1.5,0.81-3,1.21-4.51
		c0.02-0.09,0.03-0.17,0.06-0.32c-0.67,0-1.3,0-1.94,0c-0.31,0-0.63,0.01-0.94-0.01c-0.4-0.02-0.63-0.27-0.61-0.62
		c0.02-0.33,0.25-0.55,0.64-0.55c1.28-0.01,2.57,0,3.85,0c0.15,0,0.31,0,0.48,0c0-0.47,0-0.89,0-1.37c-0.17,0-0.33,0-0.49,0
		c-8.01,0-16.02,0-24.03,0c-0.14,0-0.29,0.01-0.43-0.01c-0.33-0.03-0.53-0.22-0.55-0.55c-0.02-0.34,0.18-0.54,0.5-0.61
		c0.14-0.03,0.29-0.01,0.43-0.01c8.06,0,16.13,0.01,24.19-0.01c0.76,0,1.29,0.23,1.59,0.94C41.11,15.55,41.11,16.18,41.11,16.81z
		 M32.17,30.18c0-0.64,0-1.23,0-1.81c-0.6,0-1.17,0-1.78,0c0.19,0.58,0.36,1.11,0.55,1.63c0.03,0.07,0.14,0.16,0.22,0.17
		C31.49,30.19,31.83,30.18,32.17,30.18z"/>
	<path d="M3.43,13.99c0-0.45,0-0.86,0-1.26c0-1.47-0.01-2.93,0-4.4c0.02-2.32,1.52-4.06,3.8-4.45c2.38-0.4,4.83,1.53,4.97,3.95
		c0.02,0.4,0.03,0.81,0.01,1.22c-0.02,0.57-0.38,0.98-0.94,1.02c-0.55,0.04-1.1,0.04-1.65,0c-0.57-0.04-0.94-0.47-0.96-1.05
		C8.66,8.75,8.68,8.47,8.66,8.2C8.63,7.74,8.28,7.41,7.85,7.4C7.42,7.39,7.02,7.72,7.01,8.17C6.99,9.98,7,11.78,7,13.59
		c0,0.12,0,0.23,0,0.38c0.4,0,0.77,0,1.2,0c0-0.48,0-0.96,0-1.44c0-0.56,0.2-0.75,0.76-0.75c0.34,0,0.68-0.01,1.02,0
		c0.4,0.01,0.65,0.23,0.66,0.57c0.01,0.36-0.25,0.59-0.67,0.6c-0.18,0.01-0.36,0-0.56,0c0,0.35,0,0.67,0,1.04c0.87,0,1.73,0,2.59,0
		c0.14,0,0.29,0,0.43,0.04c0.28,0.09,0.43,0.31,0.4,0.6c-0.03,0.29-0.2,0.48-0.5,0.52c-0.14,0.02-0.29,0.01-0.43,0.01
		c-3.1,0-6.2,0-9.31,0c-0.15,0-0.31,0-0.48,0c0,0.47,0,0.89,0,1.37c0.19,0,0.37,0,0.55,0c9.91,0,19.82,0,29.73,0
		c0.17,0,0.34-0.01,0.51,0.02c0.3,0.04,0.47,0.24,0.48,0.53c0.01,0.31-0.14,0.53-0.45,0.59c-0.18,0.03-0.36,0.03-0.55,0.03
		c-9.41,0-18.82,0-28.23,0c-0.18,0-0.36,0-0.6,0c0.2,0.75,0.39,1.44,0.57,2.13c0.29,1.06,0.55,2.13,0.86,3.18
		c0.75,2.5,2.92,4.12,5.53,4.14c1.96,0.02,3.93,0,5.89,0.01c0.15,0,0.32,0.01,0.46,0.07c0.27,0.12,0.38,0.36,0.31,0.65
		c-0.08,0.33-0.32,0.46-0.64,0.46c-1.05,0-2.1,0.03-3.14-0.01c-0.41-0.01-0.57,0.12-0.67,0.49c-0.15,0.55-0.35,1.1-0.54,1.64
		c-0.21,0.61-0.6,0.87-1.24,0.89c-0.34,0.01-0.68,0.01-1.02,0c-0.75-0.02-1.24-0.5-1.27-1.26c-0.02-0.56-0.01-1.13,0-1.69
		c0.01-0.23-0.07-0.34-0.3-0.42c-2.41-0.84-3.93-2.51-4.6-4.96c-0.45-1.65-0.9-3.3-1.33-4.96c-0.07-0.25-0.16-0.36-0.43-0.39
		c-0.63-0.07-1.06-0.56-1.07-1.2c-0.01-0.42-0.01-0.84,0-1.26c0.02-0.7,0.52-1.21,1.22-1.24C2.53,13.98,2.95,13.99,3.43,13.99z
		 M11.04,8.9c0-0.3,0.01-0.56,0-0.82C10.97,6.4,9.58,5.05,7.9,5.03C6.05,5,4.62,6.42,4.61,8.33c-0.01,1.78,0,3.56,0,5.34
		c0,0.1,0.02,0.2,0.03,0.3c0.4,0,0.77,0,1.19,0c0-0.18,0-0.33,0-0.49c0-1.74-0.01-3.48,0.01-5.22c0.01-1.16,0.88-2.04,2-2.04
		c1.12-0.01,2.01,0.9,2.03,2.06c0,0.2,0,0.41,0,0.63C10.26,8.9,10.62,8.9,11.04,8.9z M11.62,28.36c-0.64,0-1.21,0-1.79,0
		c0,0.61,0,1.2,0,1.82c0.35,0,0.66,0.01,0.97-0.01c0.09-0.01,0.23-0.09,0.26-0.16C11.25,29.48,11.42,28.95,11.62,28.36z"/>
	<path d="M27.55,1.64c0.26,0.01,0.57,0.18,0.77,0.52c0.07,0.12,0.13,0.26,0.17,0.39c0.15,0.51,0.4,0.89,0.95,1.08
		c0.4,0.14,0.59,0.5,0.6,0.93c0.01,0.43-0.17,0.81-0.57,0.94c-0.6,0.2-0.83,0.65-1.01,1.18c-0.12,0.38-0.34,0.67-0.74,0.8
		c-0.47,0.15-0.97-0.04-1.22-0.47c-0.09-0.15-0.16-0.3-0.21-0.46c-0.14-0.49-0.39-0.84-0.91-1.02c-0.4-0.13-0.6-0.48-0.62-0.92
		c-0.01-0.43,0.15-0.82,0.55-0.95c0.62-0.2,0.84-0.67,1.03-1.21C26.57,1.88,26.91,1.64,27.55,1.64z M26.14,4.59
		c0.81,0.21,1,0.89,1.28,1.59c0.25-0.73,0.47-1.38,1.27-1.6C27.86,4.38,27.68,3.7,27.39,3C27.15,3.72,26.93,4.37,26.14,4.59z"/>
	<path d="M33.5,12.8c-0.36-0.03-0.68-0.2-0.88-0.56c-0.07-0.14-0.14-0.28-0.19-0.43c-0.14-0.49-0.39-0.84-0.91-1.02
		c-0.4-0.13-0.6-0.49-0.61-0.92c-0.01-0.43,0.17-0.81,0.57-0.95c0.6-0.2,0.84-0.63,1.01-1.18c0.11-0.35,0.3-0.63,0.66-0.78
		c0.5-0.2,1.05-0.01,1.32,0.46c0.07,0.12,0.14,0.26,0.17,0.39c0.13,0.53,0.42,0.88,0.95,1.08c0.4,0.15,0.59,0.5,0.59,0.94
		c0,0.42-0.16,0.79-0.55,0.92c-0.62,0.21-0.86,0.68-1.05,1.24C34.39,12.53,34.01,12.8,33.5,12.8z M33.54,11.46
		c0.27-0.76,0.48-1.41,1.28-1.62c-0.8-0.22-1.02-0.87-1.28-1.63c-0.25,0.76-0.47,1.41-1.27,1.62C33.06,10.07,33.3,10.7,33.54,11.46z
		"/>
</g>
</svg>
