<?xml version="1.0" encoding="utf-8"?>
<!-- Generator: Adobe Illustrator 26.0.2, SVG Export Plug-In . SVG Version: 6.00 Build 0)  -->
<svg version="1.1" id="Layer_1" xmlns="http://www.w3.org/2000/svg" xmlns:xlink="http://www.w3.org/1999/xlink" x="0px" y="0px"
	 viewBox="0 0 42 46" style="enable-background:new 0 0 42 46;" xml:space="preserve">
<g>
	<path d="M34.12,44C22.75,44,11.37,44,0,44c0-1.32,0-2.63,0-3.94c0.2-0.33,0.48-0.44,0.86-0.42c0.34,0.02,0.68,0.01,1.05,0.01
		c0-0.23,0-0.42,0-0.61c0-9.72,0-19.44,0-29.15c0-0.18,0-0.36,0.02-0.53C2,9.02,2.23,8.88,2.56,8.88C2.89,8.89,3.1,9.05,3.13,9.4
		c0.02,0.18,0.01,0.35,0.01,0.53c0,9.69,0,19.38,0,29.07c0,0.18,0,0.37,0,0.54c0.72,0,1.37,0,2.02,0c0-12.11,0-24.19,0-36.29
		c-0.67,0-1.32,0-2.02,0c0,0.16,0,0.31,0,0.46c0,0.79,0,1.59,0,2.38c0,0.31-0.15,0.53-0.46,0.58C2.39,6.73,2.12,6.65,1.99,6.36
		C1.93,6.22,1.92,6.04,1.92,5.88c-0.01-1,0.01-2-0.01-2.99C1.91,2.52,1.99,2.22,2.3,2C14.77,2,27.23,2,39.7,2
		c0.34,0.24,0.38,0.58,0.38,0.97c-0.01,12.03,0,24.05,0,36.08c0,0.19,0,0.38,0,0.61c0.38,0,0.72,0.02,1.06-0.01
		c0.38-0.03,0.67,0.09,0.86,0.42c0,1.31,0,2.62,0,3.94c-1.64,0-3.28,0-4.92,0c-0.27-0.23-0.43-0.5-0.3-0.86
		c0.14-0.36,0.45-0.38,0.78-0.38c0.55,0.01,1.09,0,1.64,0c0.51,0,1.03,0,1.53,0c0-0.66,0-1.27,0-1.86c-13.18,0-26.32,0-39.48,0
		c0,0.63,0,1.23,0,1.86c0.2,0,0.38,0,0.55,0c10.55,0,21.11,0,31.66,0c0.15,0,0.3-0.01,0.45,0.01c0.35,0.04,0.57,0.26,0.52,0.6
		C34.42,43.6,34.24,43.79,34.12,44z M38.82,39.63c0-12.14,0-24.26,0-36.38c-2.78,0-5.52,0-8.28,0c0,1.01,0,2,0,3
		c0.13,0.01,0.24,0.01,0.35,0.02c2.32,0.11,4.17,1.97,4.25,4.29c0.02,0.55-0.19,0.79-0.74,0.79c-2.99,0-5.99,0-8.98,0
		c-0.55,0-0.77-0.23-0.75-0.78c0.07-1.98,1.42-3.67,3.36-4.15c0.4-0.1,0.82-0.14,1.23-0.2c0-0.99,0-1.98,0-2.96
		c-2.69,0-5.35,0-8.03,0c0,12.13,0,24.24,0,36.37C27.09,39.63,32.94,39.63,38.82,39.63z M17.94,3.25c0,0.22,0,0.4,0,0.58
		c0,8.53,0,17.06,0,25.59c0,0.19,0,0.39-0.04,0.57c-0.08,0.31-0.32,0.43-0.63,0.41c-0.31-0.02-0.51-0.18-0.55-0.5
		c-0.02-0.16-0.01-0.33-0.01-0.49c0-8.54,0-17.09,0-25.63c0-0.17,0-0.34,0-0.51c-3.46,0-6.86,0-10.27,0c0,5.06,0,10.09,0,15.15
		c0.29,0,0.55,0,0.81,0c1.36,0.03,2.4,1.06,2.44,2.42c0.01,0.49,0.01,0.98,0,1.48c-0.04,1.36-1.08,2.39-2.44,2.42
		c-0.27,0.01-0.54,0-0.8,0c0,4.98,0,9.9,0,14.82c3.43,0,6.83,0,10.26,0c0-0.61,0-1.2,0-1.78c0-1.45,0-2.9,0-4.35
		c0-0.45,0.21-0.66,0.6-0.66c0.39,0,0.6,0.22,0.62,0.65c0.01,0.11,0,0.22,0,0.33c0,1.79,0,3.58,0,5.37c0,0.14,0.01,0.29,0.02,0.44
		c0.68,0,1.33,0,1.98,0c0-12.12,0-24.2,0-36.29C19.27,3.25,18.63,3.25,17.94,3.25z M33.81,10.11c-0.07-1.1-1.14-2.33-2.38-2.5
		c-1-0.13-2.05-0.13-3.05,0c-1.24,0.16-2.29,1.37-2.39,2.5C28.59,10.11,31.2,10.11,33.81,10.11z M6.43,23.49
		c0.29,0,0.53,0.01,0.78,0c0.73-0.02,1.23-0.51,1.25-1.23c0.01-0.48,0.01-0.95,0-1.43c-0.02-0.6-0.43-1.08-1.01-1.17
		c-0.33-0.05-0.67-0.01-1.02-0.01C6.43,20.94,6.43,22.19,6.43,23.49z"/>
	<path d="M27.62,13.3c0.01,0.34-0.23,0.61-0.57,0.62c-0.36,0.01-0.62-0.25-0.62-0.61c0-0.34,0.25-0.6,0.59-0.6
		C27.36,12.71,27.62,12.96,27.62,13.3z"/>
	<path d="M29.91,12.72c0.34,0.01,0.58,0.27,0.58,0.61c0,0.36-0.27,0.62-0.63,0.6c-0.33-0.02-0.58-0.29-0.56-0.63
		C29.32,12.95,29.57,12.71,29.91,12.72z"/>
	<path d="M33.37,13.32c0,0.34-0.25,0.6-0.58,0.61c-0.35,0.01-0.62-0.26-0.61-0.62c0.01-0.34,0.27-0.59,0.6-0.59
		C33.12,12.72,33.36,12.97,33.37,13.32z"/>
	<path d="M27.62,16.35c0,0.34-0.25,0.6-0.58,0.61c-0.35,0.01-0.62-0.26-0.61-0.62c0.01-0.34,0.27-0.59,0.6-0.59
		C27.37,15.75,27.62,16.01,27.62,16.35z"/>
	<path d="M30.5,16.36c0,0.34-0.26,0.6-0.59,0.6c-0.35,0-0.61-0.28-0.6-0.63c0.02-0.34,0.27-0.58,0.61-0.58
		C30.25,15.76,30.5,16.02,30.5,16.36z"/>
	<path d="M32.77,16.96c-0.34,0-0.59-0.25-0.6-0.59c-0.01-0.36,0.26-0.63,0.61-0.62c0.34,0.01,0.58,0.27,0.58,0.61
		C33.36,16.7,33.11,16.96,32.77,16.96z"/>
	<path d="M27.02,18.79c0.34-0.01,0.59,0.24,0.61,0.58c0.01,0.34-0.23,0.61-0.56,0.63c-0.36,0.02-0.63-0.24-0.63-0.6
		C26.43,19.05,26.68,18.79,27.02,18.79z"/>
	<path d="M29.89,20c-0.34,0-0.59-0.26-0.59-0.6c0-0.36,0.27-0.62,0.62-0.6c0.33,0.01,0.58,0.28,0.57,0.62
		C30.48,19.75,30.23,20,29.89,20z"/>
	<path d="M32.77,18.79c0.34,0,0.59,0.25,0.6,0.59c0.01,0.34-0.24,0.61-0.57,0.62c-0.36,0.01-0.62-0.25-0.62-0.61
		C32.18,19.04,32.43,18.79,32.77,18.79z"/>
	<path d="M27.03,23.03c-0.34,0-0.59-0.26-0.59-0.6c0-0.36,0.26-0.62,0.62-0.61c0.34,0.01,0.58,0.27,0.57,0.62
		C27.62,22.78,27.36,23.03,27.03,23.03z"/>
	<path d="M27.02,24.86c0.34,0,0.59,0.24,0.6,0.59c0.01,0.34-0.23,0.61-0.57,0.62c-0.36,0.02-0.63-0.25-0.62-0.6
		C26.43,25.12,26.68,24.86,27.02,24.86z"/>
	<path d="M30.5,25.45c0,0.34-0.24,0.6-0.58,0.61c-0.35,0.01-0.62-0.26-0.61-0.62c0.01-0.34,0.26-0.59,0.6-0.59
		C30.24,24.86,30.49,25.11,30.5,25.45z"/>
	<path d="M33.37,25.46c0,0.34-0.25,0.6-0.59,0.6c-0.35,0-0.62-0.27-0.6-0.63c0.01-0.34,0.27-0.59,0.61-0.58
		C33.12,24.86,33.37,25.12,33.37,25.46z"/>
	<path d="M27.62,28.51c-0.01,0.34-0.26,0.59-0.6,0.59c-0.35,0-0.61-0.28-0.59-0.64c0.02-0.34,0.28-0.58,0.62-0.57
		C27.39,27.9,27.63,28.17,27.62,28.51z"/>
	<path d="M30.5,28.49c0,0.34-0.25,0.6-0.58,0.61c-0.35,0.01-0.62-0.27-0.61-0.62c0.01-0.34,0.27-0.59,0.6-0.59
		C30.25,27.9,30.49,28.15,30.5,28.49z"/>
	<path d="M32.77,27.89c0.34,0,0.59,0.25,0.6,0.59c0.01,0.34-0.24,0.61-0.57,0.62c-0.36,0.01-0.62-0.25-0.62-0.61
		C32.18,28.15,32.43,27.89,32.77,27.89z"/>
	<path d="M26.43,31.54c-0.01-0.34,0.24-0.6,0.57-0.61c0.34-0.01,0.6,0.23,0.62,0.57c0.02,0.35-0.25,0.64-0.6,0.64
		C26.69,32.14,26.44,31.88,26.43,31.54z"/>
	<path d="M29.3,31.54c-0.01-0.34,0.24-0.6,0.57-0.61c0.34-0.01,0.6,0.23,0.62,0.57c0.02,0.35-0.25,0.64-0.6,0.64
		C29.56,32.14,29.31,31.88,29.3,31.54z"/>
	<path d="M32.77,30.93c0.34,0,0.59,0.25,0.6,0.6c0.01,0.36-0.26,0.62-0.62,0.61c-0.34-0.01-0.58-0.27-0.57-0.61
		C32.18,31.18,32.44,30.93,32.77,30.93z"/>
	<path d="M30.5,22.43c0,0.34-0.25,0.6-0.59,0.6c-0.35,0-0.62-0.27-0.6-0.63c0.01-0.34,0.27-0.59,0.61-0.58
		C30.25,21.83,30.5,22.09,30.5,22.43z"/>
	<path d="M27.62,34.56c0,0.34-0.25,0.6-0.58,0.61c-0.35,0.01-0.62-0.27-0.61-0.62c0.01-0.34,0.27-0.59,0.6-0.59
		C27.37,33.97,27.62,34.22,27.62,34.56z"/>
	<path d="M30.5,34.58c-0.01,0.34-0.26,0.6-0.6,0.6c-0.35,0-0.61-0.28-0.6-0.64c0.02-0.34,0.28-0.58,0.62-0.57
		C30.26,33.97,30.5,34.23,30.5,34.58z"/>
	<path d="M33.37,34.58c-0.01,0.34-0.27,0.59-0.6,0.59c-0.35,0-0.61-0.29-0.59-0.64c0.02-0.34,0.28-0.58,0.62-0.57
		C33.13,33.98,33.38,34.24,33.37,34.58z"/>
	<path d="M26.43,37.61c-0.01-0.34,0.24-0.6,0.57-0.61c0.34-0.01,0.6,0.23,0.62,0.57c0.02,0.35-0.25,0.64-0.6,0.64
		C26.69,38.21,26.44,37.95,26.43,37.61z"/>
	<path d="M29.9,37c0.34,0,0.59,0.25,0.6,0.6c0.01,0.36-0.26,0.62-0.62,0.61c-0.34-0.01-0.58-0.27-0.57-0.61
		C29.31,37.25,29.56,37,29.9,37z"/>
	<path d="M32.79,38.21c-0.34,0.01-0.6-0.23-0.61-0.57c-0.02-0.35,0.25-0.63,0.6-0.63c0.34,0,0.59,0.25,0.59,0.6
		C33.37,37.93,33.12,38.2,32.79,38.21z"/>
	<path d="M32.18,22.44c-0.01-0.34,0.24-0.6,0.57-0.61c0.34-0.01,0.6,0.23,0.62,0.57c0.02,0.35-0.25,0.64-0.6,0.64
		C32.44,23.03,32.18,22.78,32.18,22.44z"/>
</g>
</svg>
