<?xml version="1.0" encoding="utf-8"?>
<!-- Generator: Adobe Illustrator 26.0.2, SVG Export Plug-In . SVG Version: 6.00 Build 0)  -->
<svg version="1.1" id="Layer_1" xmlns="http://www.w3.org/2000/svg" xmlns:xlink="http://www.w3.org/1999/xlink" x="0px" y="0px"
	 viewBox="0 0 42 52" style="enable-background:new 0 0 42 52;" xml:space="preserve">
<g>
	<path d="M1.76,51c-0.5-0.23-0.54-0.67-0.54-1.15c0.01-5.04,0-10.09,0-15.13c0-10.8,0-21.61,0-32.41c0-0.18-0.01-0.36,0.01-0.54
		C1.28,1.26,1.53,1.03,2.06,1C2.19,1,2.32,1,2.45,1c12.37,0,24.74,0,37.11,0c1.06,0,1.23,0.17,1.23,1.21c0,15.86,0,31.73,0,47.59
		c0,0.49-0.01,0.95-0.54,1.2C27.41,51,14.59,51,1.76,51z M21.77,2.48c0,14.73,0,29.41,0,44.09c5.86,0,11.68,0,17.5,0
		c0-14.71,0-29.39,0-44.09C33.42,2.48,27.62,2.48,21.77,2.48z M20.23,46.59c0-14.73,0-29.41,0-44.09c-5.86,0-11.68,0-17.51,0
		c0,0.48,0,0.93,0,1.43c0.2,0,0.37,0,0.55,0c1.73,0,3.45-0.01,5.18,0c1.79,0.01,3.22,1.07,3.64,2.75c0.15,0.61,0.13,1.25,0.19,1.89
		c2.37,0.5,3.79,1.97,4.31,4.32c0.16,0.02,0.29,0.02,0.42,0.05c0.36,0.09,0.57,0.33,0.58,0.7c0,0.39-0.22,0.64-0.6,0.72
		c-0.14,0.03-0.29,0.02-0.44,0.02c-3.37,0-6.74,0-10.11,0c-0.13,0-0.26,0.01-0.39-0.01c-0.38-0.07-0.62-0.3-0.64-0.69
		c-0.02-0.39,0.2-0.64,0.58-0.74c0.14-0.04,0.28-0.04,0.43-0.06c0.52-2.37,1.95-3.81,4.35-4.33c0-0.21,0-0.42,0-0.63
		c0-1.67-0.86-2.53-2.52-2.54c-1.66,0-3.32,0-4.98,0c-0.17,0-0.35,0-0.52,0c0,13.77,0,27.47,0,41.19
		C8.58,46.59,14.38,46.59,20.23,46.59z M2.7,49.5c12.22,0,24.4,0,36.58,0c0-0.49,0-0.93,0-1.39c-12.21,0-24.39,0-36.58,0
		C2.7,48.58,2.7,49.02,2.7,49.5z M15.01,12.9c-0.25-1.65-1.86-2.94-3.59-2.91c-1.71,0.03-3.29,1.35-3.47,2.91
		C10.31,12.9,12.66,12.9,15.01,12.9z"/>
	<path d="M23.2,24.49c0-1.3,0-2.6,0-3.9c0-0.18,0-0.36,0.03-0.53c0.06-0.4,0.3-0.61,0.69-0.61c0.39,0,0.65,0.2,0.71,0.59
		c0.03,0.18,0.03,0.36,0.03,0.53c0,2.65,0,5.3,0,7.95c0,0.8-0.22,1.14-0.75,1.13c-0.5-0.01-0.72-0.34-0.72-1.11
		C23.2,27.18,23.2,25.83,23.2,24.49z"/>
	<path d="M18.8,24.52c0,1.35,0,2.7,0,4.05c0,0.19,0,0.4-0.06,0.58c-0.1,0.34-0.37,0.55-0.69,0.47c-0.24-0.06-0.48-0.28-0.65-0.48
		c-0.09-0.11-0.06-0.34-0.06-0.52c0-2.71,0-5.43,0-8.14c0-0.16,0.01-0.33,0.04-0.48c0.07-0.37,0.32-0.56,0.69-0.56
		c0.37,0,0.62,0.19,0.69,0.56c0.03,0.17,0.04,0.35,0.04,0.53C18.8,21.86,18.8,23.19,18.8,24.52z"/>
	<path d="M9.27,17.32c0,0.26,0.03,0.52-0.01,0.78c-0.05,0.41-0.31,0.66-0.72,0.66c-0.41,0-0.69-0.25-0.72-0.66
		c-0.04-0.53-0.04-1.07,0-1.61c0.03-0.41,0.32-0.65,0.73-0.64c0.39,0.01,0.64,0.25,0.69,0.63C9.29,16.76,9.27,17.04,9.27,17.32
		C9.27,17.32,9.27,17.32,9.27,17.32z"/>
	<path d="M12.21,17.31c0,0.24,0.02,0.49,0,0.73c-0.04,0.43-0.33,0.72-0.72,0.72c-0.38,0-0.71-0.28-0.73-0.71
		c-0.03-0.5-0.03-1.01,0-1.51c0.02-0.42,0.36-0.71,0.74-0.7c0.38,0.01,0.67,0.3,0.71,0.73C12.22,16.83,12.21,17.07,12.21,17.31z"/>
	<path d="M15.13,17.3c0,0.26,0.02,0.52-0.01,0.78c-0.04,0.41-0.29,0.65-0.7,0.68c-0.38,0.03-0.72-0.27-0.74-0.69
		c-0.03-0.52-0.03-1.04,0.01-1.56c0.03-0.41,0.31-0.66,0.72-0.66c0.41,0,0.67,0.25,0.71,0.66C15.16,16.78,15.13,17.04,15.13,17.3
		C15.13,17.3,15.13,17.3,15.13,17.3z"/>
	<path d="M9.27,21.67c0,0.28,0.03,0.56-0.01,0.83c-0.05,0.41-0.31,0.66-0.72,0.65c-0.41,0-0.68-0.26-0.71-0.66
		c-0.04-0.52-0.03-1.04,0-1.56c0.02-0.41,0.29-0.65,0.7-0.68c0.38-0.03,0.7,0.27,0.74,0.69C9.29,21.18,9.27,21.43,9.27,21.67
		C9.27,21.67,9.27,21.67,9.27,21.67z"/>
	<path d="M12.2,21.69c0,0.26,0.02,0.52,0,0.78c-0.04,0.42-0.37,0.72-0.74,0.69c-0.41-0.03-0.67-0.28-0.69-0.69
		c-0.03-0.52-0.03-1.04,0-1.56c0.03-0.41,0.3-0.66,0.71-0.66c0.41,0,0.67,0.25,0.72,0.66C12.23,21.17,12.2,21.43,12.2,21.69
		C12.2,21.69,12.2,21.69,12.2,21.69z"/>
	<path d="M15.13,21.69c0,0.26,0.02,0.52,0,0.78c-0.04,0.42-0.36,0.72-0.74,0.69c-0.41-0.03-0.67-0.27-0.7-0.68
		c-0.03-0.52-0.03-1.04,0-1.56c0.03-0.41,0.3-0.66,0.71-0.66c0.41,0,0.67,0.25,0.72,0.65C15.16,21.16,15.13,21.43,15.13,21.69
		C15.13,21.69,15.13,21.69,15.13,21.69z"/>
	<path d="M9.28,26.1c0,0.24,0.02,0.49,0,0.73c-0.04,0.43-0.33,0.72-0.71,0.72c-0.38,0.01-0.71-0.28-0.73-0.71
		c-0.03-0.5-0.03-1.01,0-1.51c0.02-0.42,0.35-0.71,0.73-0.7c0.38,0.01,0.68,0.3,0.71,0.73C9.29,25.61,9.28,25.86,9.28,26.1z"/>
	<path d="M10.75,26.1c0-0.24-0.02-0.49,0-0.73c0.03-0.43,0.33-0.72,0.71-0.73c0.38-0.01,0.71,0.28,0.73,0.7
		c0.03,0.5,0.03,1.01,0,1.51c-0.02,0.42-0.35,0.71-0.73,0.7c-0.38-0.01-0.68-0.3-0.71-0.73C10.73,26.59,10.75,26.34,10.75,26.1z"/>
	<path d="M15.13,26.13c0,0.24,0.02,0.49,0,0.73c-0.04,0.42-0.36,0.72-0.74,0.69c-0.41-0.03-0.67-0.27-0.7-0.68
		c-0.03-0.52-0.03-1.04,0-1.56c0.03-0.41,0.3-0.66,0.71-0.66c0.41,0,0.67,0.25,0.72,0.65C15.16,25.57,15.13,25.85,15.13,26.13
		C15.13,26.13,15.13,26.13,15.13,26.13z"/>
	<path d="M9.28,30.5c0,0.24,0.02,0.49,0,0.73c-0.04,0.43-0.34,0.72-0.72,0.72c-0.38,0-0.71-0.28-0.73-0.71
		c-0.03-0.5-0.03-1.01,0-1.51c0.02-0.42,0.36-0.72,0.74-0.69c0.41,0.03,0.66,0.27,0.7,0.68C9.3,29.98,9.27,30.24,9.28,30.5
		C9.27,30.5,9.27,30.5,9.28,30.5z"/>
	<path d="M12.2,30.5c0,0.26,0.02,0.52-0.01,0.78c-0.05,0.41-0.3,0.66-0.71,0.66c-0.41,0-0.69-0.25-0.72-0.65
		c-0.04-0.52-0.03-1.04-0.01-1.56c0.02-0.42,0.36-0.72,0.74-0.69c0.41,0.03,0.66,0.27,0.7,0.68C12.23,29.98,12.2,30.24,12.2,30.5
		C12.2,30.5,12.2,30.5,12.2,30.5z"/>
	<path d="M15.13,30.52c0,0.24,0.02,0.49,0,0.73c-0.04,0.42-0.36,0.72-0.74,0.7c-0.41-0.03-0.68-0.27-0.7-0.68
		c-0.03-0.52-0.03-1.04,0-1.56c0.03-0.41,0.29-0.65,0.71-0.67c0.38-0.02,0.69,0.28,0.73,0.7C15.15,30,15.13,30.26,15.13,30.52z"/>
	<path d="M9.27,34.88c0,0.26,0.02,0.52-0.01,0.78c-0.04,0.41-0.29,0.65-0.7,0.68c-0.38,0.03-0.71-0.27-0.74-0.69
		c-0.03-0.5-0.03-1.01,0-1.51c0.02-0.42,0.35-0.71,0.73-0.71c0.38,0,0.68,0.29,0.72,0.72C9.29,34.39,9.28,34.64,9.27,34.88
		C9.27,34.88,9.27,34.88,9.27,34.88z"/>
	<path d="M12.2,34.89c0,0.26,0.02,0.52-0.01,0.78c-0.05,0.41-0.3,0.66-0.71,0.66c-0.41,0-0.69-0.25-0.72-0.65
		c-0.04-0.53-0.04-1.07,0-1.61c0.03-0.41,0.32-0.65,0.73-0.64c0.41,0.01,0.66,0.27,0.7,0.68C12.23,34.37,12.2,34.63,12.2,34.89
		C12.2,34.89,12.2,34.89,12.2,34.89z"/>
	<path d="M15.14,34.89c0,0.24,0.02,0.49,0,0.73c-0.04,0.43-0.33,0.72-0.71,0.72c-0.38,0.01-0.71-0.28-0.73-0.71
		c-0.03-0.5-0.03-1.01,0-1.51c0.02-0.42,0.35-0.71,0.73-0.7c0.38,0.01,0.68,0.3,0.71,0.73C15.15,34.4,15.14,34.65,15.14,34.89z"/>
	<path d="M9.27,39.28c0,0.26,0.02,0.52-0.01,0.78c-0.04,0.41-0.29,0.65-0.7,0.68c-0.38,0.03-0.71-0.27-0.74-0.69
		c-0.03-0.5-0.03-1.01,0-1.51c0.02-0.42,0.35-0.71,0.73-0.71c0.38,0,0.68,0.29,0.72,0.72C9.29,38.79,9.28,39.03,9.27,39.28
		C9.27,39.28,9.27,39.28,9.27,39.28z"/>
	<path d="M10.75,39.29c0-0.26-0.02-0.52,0.01-0.78c0.04-0.41,0.29-0.65,0.7-0.68c0.38-0.03,0.71,0.27,0.74,0.69
		c0.03,0.5,0.03,1.01,0,1.51c-0.02,0.42-0.35,0.71-0.73,0.71c-0.38,0-0.68-0.29-0.72-0.72C10.73,39.78,10.75,39.53,10.75,39.29
		C10.75,39.29,10.75,39.29,10.75,39.29z"/>
	<path d="M13.68,39.29c0-0.26-0.02-0.52,0.01-0.78c0.04-0.41,0.29-0.65,0.7-0.68c0.38-0.03,0.72,0.27,0.74,0.69
		c0.03,0.52,0.03,1.04-0.01,1.56c-0.03,0.41-0.31,0.66-0.72,0.66c-0.41,0-0.67-0.25-0.71-0.66C13.66,39.81,13.68,39.55,13.68,39.29
		C13.68,39.29,13.68,39.29,13.68,39.29z"/>
	<path d="M9.28,43.68c0,0.24,0.02,0.49,0,0.73c-0.04,0.43-0.34,0.72-0.72,0.72c-0.38,0-0.71-0.28-0.73-0.71
		c-0.03-0.5-0.03-1.01,0-1.51c0.02-0.42,0.36-0.72,0.74-0.69c0.41,0.03,0.66,0.27,0.7,0.68C9.3,43.16,9.27,43.42,9.28,43.68
		C9.27,43.68,9.27,43.68,9.28,43.68z"/>
	<path d="M12.2,43.71c0,0.24,0.02,0.49,0,0.73c-0.04,0.42-0.37,0.72-0.75,0.69c-0.41-0.03-0.67-0.28-0.69-0.69
		c-0.03-0.52-0.03-1.04,0-1.56c0.03-0.41,0.3-0.66,0.71-0.66c0.41,0,0.67,0.25,0.72,0.66C12.23,43.16,12.2,43.44,12.2,43.71
		C12.2,43.71,12.2,43.71,12.2,43.71z"/>
	<path d="M15.14,43.67c0,0.24,0.02,0.49,0,0.73c-0.03,0.43-0.33,0.72-0.71,0.73c-0.38,0.01-0.71-0.28-0.74-0.7
		c-0.03-0.5-0.03-1.01,0-1.51c0.02-0.42,0.35-0.71,0.73-0.71c0.38,0.01,0.68,0.3,0.72,0.72C15.15,43.18,15.14,43.43,15.14,43.67z"/>
</g>
</svg>
