<?xml version="1.0" encoding="utf-8"?>
<!-- Generator: Adobe Illustrator 26.0.2, SVG Export Plug-In . SVG Version: 6.00 Build 0)  -->
<svg version="1.1" id="Layer_1" xmlns="http://www.w3.org/2000/svg" xmlns:xlink="http://www.w3.org/1999/xlink" x="0px" y="0px"
	 viewBox="0 0 49 57" style="enable-background:new 0 0 49 57;" xml:space="preserve">
<g>
	<path d="M-0.5,27.33c0.3-0.97,0.89-1.65,1.96-1.88c0-0.66,0-1.33,0-1.99c0-1.8,1-2.69,2.79-2.48c0.03,0,0.06-0.01,0.14-0.03
		c0-0.41,0-0.83,0-1.25c0-1.61,0-3.22,0-4.83c0-1.1,0.26-2.12,0.83-3.07c0.29-0.49,0.69-0.63,1.09-0.39
		c0.37,0.23,0.45,0.64,0.18,1.11c-0.45,0.78-0.64,1.62-0.64,2.52c0.01,3.29,0,6.57,0,9.86c0,0.16,0,0.32,0,0.5c0.5,0,0.95,0,1.46,0
		c0-0.2,0-0.39,0-0.58c0-3.3-0.01-6.61,0-9.91c0.01-1.86,1.39-3.21,3.2-3.11c1.23,0.07,2.09,0.73,2.6,1.85
		c0.07,0.15,0.12,0.3,0.18,0.46c0.47,0,0.94,0,1.45,0c-0.2-1.28-0.83-2.28-1.86-2.99c-1.28-0.88-2.67-1.04-4.14-0.51
		c-0.11,0.04-0.21,0.08-0.32,0.12c-0.44,0.14-0.8-0.02-0.96-0.41c-0.15-0.37,0-0.74,0.4-0.93c0.98-0.47,2.02-0.63,3.09-0.51
		c2.71,0.3,4.79,2.31,5.25,5.01c0.03,0.16,0.17,0.34,0.31,0.42c1.01,0.53,1.49,1.47,1.25,2.49c-0.25,1.05-1.09,1.71-2.25,1.72
		c-0.9,0.01-1.79,0.01-2.69,0c-1.13-0.01-1.99-0.6-2.28-1.56c-0.3-0.99,0.1-1.94,1.09-2.57c0.04-0.03,0.08-0.06,0.11-0.09
		c-0.27-0.74-0.91-1.14-1.67-1.03c-0.69,0.1-1.29,0.71-1.3,1.44c-0.03,2.08-0.01,4.16-0.01,6.24c0.43,0,0.85-0.06,1.25,0.01
		c1.04,0.18,1.74,1.04,1.76,2.1c0.01,0.76,0,1.53,0,2.36c0.48,0,0.93,0.02,1.38-0.02c0.12-0.01,0.26-0.2,0.32-0.34
		c0.75-1.85,2.08-3.02,4.05-3.34c0.62-0.1,0.94-0.27,1.21-0.87c0.69-1.52,2.77-2.39,4.75-1.15c1.25-1.07,2.7-1.57,4.36-1.3
		c1.64,0.27,2.86,1.18,3.73,2.63c0.84-0.4,1.71-0.49,2.61-0.25c0.09,0.03,0.26-0.09,0.34-0.18c2.68-2.97,7.03-2.34,8.75,1.26
		c0.06,0.12,0.2,0.27,0.32,0.29c2.09,0.37,2.81,1.08,3.26,3.22c1.79,0.31,2.61,1.06,2.6,2.39c-0.01,1.28-0.85,2.09-2.54,2.38
		c-0.01,0.17-0.03,0.36-0.03,0.55c0,2.41-0.04,4.82,0.01,7.23c0.1,5.97-4.11,10.04-8.52,10.91c-0.03,0.01-0.05,0.03-0.19,0.14
		c0.28,0.24,0.56,0.46,0.81,0.71c0.93,0.96,0.96,2.31,0.08,3.19c-0.88,0.88-2.24,0.84-3.19-0.09c-1.13-1.12-2.25-2.26-3.39-3.37
		c-0.19-0.18-0.5-0.32-0.75-0.32c-4.85-0.02-9.7-0.02-14.55,0c-0.25,0-0.57,0.14-0.75,0.31c-1.18,1.14-2.32,2.32-3.5,3.47
		c-0.88,0.86-2.22,0.85-3.08,0.01c-0.85-0.82-0.87-2.18-0.05-3.08c0.19-0.2,0.39-0.39,0.58-0.59c0.09-0.09,0.17-0.19,0.21-0.24
		c-0.99-0.4-2.03-0.7-2.95-1.22c-3.67-2.08-5.54-5.29-5.61-9.51c-0.04-2.49-0.01-4.98-0.01-7.47c0-0.19,0-0.39,0-0.64
		c-1.34-0.01-2.18-0.68-2.57-1.91C-0.5,27.91-0.5,27.62-0.5,27.33z M24.53,26.89c-7.4,0-14.81,0-22.21,0c-0.2,0-0.39-0.01-0.58,0.02
		c-0.44,0.06-0.74,0.39-0.76,0.82c-0.01,0.44,0.3,0.82,0.75,0.88c0.21,0.03,0.42,0.02,0.63,0.02c11.49,0,22.98,0,34.47,0
		c0.21,0,0.43-0.01,0.63,0.03c0.39,0.08,0.6,0.35,0.58,0.73c-0.02,0.38-0.23,0.64-0.63,0.68c-0.21,0.02-0.42,0.02-0.63,0.02
		c-10.89,0-21.77,0-32.66-0.01c-0.43,0-0.58,0.09-0.58,0.56c0.02,2.51,0,5.01,0.02,7.52c0,0.54,0.03,1.08,0.12,1.6
		c0.82,4.66,4.52,7.81,9.25,7.82c7.83,0.02,15.65,0.02,23.48-0.01c4.71-0.02,8.73-3.77,9-8.5c0.16-2.87,0.05-5.76,0.08-8.64
		c0-0.3-0.14-0.34-0.39-0.34c-1.06,0.01-2.12,0-3.17,0c-0.57,0-1.14,0.04-1.71-0.03c-0.23-0.03-0.52-0.23-0.62-0.43
		c-0.09-0.18-0.04-0.56,0.1-0.7c0.18-0.18,0.51-0.29,0.77-0.29c2.1-0.02,4.2-0.01,6.3-0.01c0.19,0,0.39,0.01,0.58-0.03
		c0.44-0.09,0.67-0.38,0.7-0.82c0.03-0.43-0.28-0.79-0.71-0.86c-0.21-0.03-0.42-0.03-0.63-0.03C39.3,26.89,31.91,26.89,24.53,26.89z
		 M45.37,25.4c-0.12-1.21-1-1.89-2.14-1.71c-0.64,0.11-0.89-0.05-1.07-0.68c-0.46-1.57-1.5-2.55-3.12-2.77
		c-1.58-0.22-2.82,0.44-3.68,1.79c-0.36,0.56-0.63,0.64-1.21,0.35c-0.78-0.4-1.5-0.33-2.17,0.24c-0.66,0.55-1.13,0.43-1.43-0.37
		c-1-2.62-4.3-3.27-6.22-1.21c-0.58,0.62-0.83,0.63-1.46,0.07c-0.55-0.49-1.17-0.61-1.86-0.36c-0.66,0.25-1.11,0.74-1.15,1.45
		c-0.05,0.84-0.44,1.01-1.18,0.96c-1.49-0.11-2.65,0.51-3.46,1.76c-0.09,0.14-0.15,0.3-0.24,0.5C25.15,25.4,35.24,25.4,45.37,25.4z
		 M14.15,15.61c-0.45,0-0.91-0.01-1.36,0c-0.53,0.01-0.85,0.3-0.85,0.73c0.01,0.42,0.32,0.72,0.82,0.72c0.94,0.01,1.88,0.01,2.82,0
		c0.48-0.01,0.81-0.33,0.8-0.74c-0.01-0.41-0.33-0.7-0.82-0.71C15.09,15.6,14.62,15.61,14.15,15.61z M14.67,49.06
		c-0.69,0-1.27-0.01-1.85,0.01c-0.11,0-0.25,0.08-0.33,0.16c-0.52,0.51-1.05,1.02-1.55,1.55c-0.3,0.31-0.3,0.73-0.04,1.01
		c0.29,0.31,0.71,0.35,1.04,0.02C12.84,50.94,13.7,50.05,14.67,49.06z M34.44,49.07c-0.01,0.04-0.02,0.08-0.04,0.13
		c0.86,0.86,1.73,1.71,2.59,2.57c0.07,0.07,0.15,0.12,0.24,0.17c0.31,0.18,0.65,0.14,0.83-0.14c0.14-0.21,0.26-0.65,0.14-0.78
		c-0.57-0.68-1.22-1.29-1.85-1.92c-0.02-0.02-0.06-0.02-0.09-0.02C35.65,49.07,35.04,49.07,34.44,49.07z M10.34,25.4
		c0-0.82,0.02-1.58-0.01-2.35c-0.01-0.42-0.29-0.66-0.69-0.68c-0.41-0.02-0.72,0.22-0.74,0.63c-0.04,0.79-0.01,1.58-0.01,2.4
		C9.39,25.4,9.84,25.4,10.34,25.4z M4.37,25.4c0.01-0.16,0.02-0.29,0.02-0.42c0-0.63,0.01-1.27-0.01-1.9
		c-0.01-0.42-0.27-0.65-0.67-0.7c-0.37-0.05-0.75,0.25-0.76,0.66c-0.03,0.78-0.01,1.55-0.01,2.36C3.42,25.4,3.87,25.4,4.37,25.4z"/>
	<path d="M40.42,3.5c0.92,0.29,1.62,0.81,1.86,1.8c0.3,1.24-0.41,2.45-1.63,2.81c-1.19,0.35-2.45-0.31-2.86-1.48
		c-0.41-1.18,0.16-2.46,1.32-2.94c0.15-0.06,0.29-0.13,0.44-0.19C39.83,3.5,40.13,3.5,40.42,3.5z M40.01,4.97
		c-0.47-0.01-0.87,0.37-0.88,0.85c-0.02,0.51,0.36,0.91,0.86,0.91c0.48,0,0.88-0.37,0.9-0.84C40.91,5.41,40.5,4.98,40.01,4.97z"/>
	<path d="M36.14,14.71c0,1.66-1.35,3.01-3,3.01c-1.65,0-3-1.36-3-3.02c0-1.67,1.34-3,3.01-3C34.81,11.7,36.14,13.03,36.14,14.71z
		 M34.67,14.71c0-0.86-0.69-1.55-1.54-1.54c-0.84,0-1.52,0.67-1.53,1.51c-0.01,0.86,0.67,1.57,1.52,1.58
		C33.97,16.27,34.67,15.57,34.67,14.71z"/>
	<path d="M25.19,13.18c-1.3,0-2.35-1.07-2.34-2.37c0.01-1.27,1.07-2.32,2.34-2.33c1.3-0.01,2.35,1.05,2.35,2.35
		C27.54,12.16,26.51,13.19,25.19,13.18z M25.22,9.96c-0.48-0.01-0.91,0.4-0.91,0.89c0,0.47,0.39,0.86,0.86,0.87
		c0.49,0.01,0.87-0.35,0.89-0.83C26.1,10.39,25.71,9.97,25.22,9.96z"/>
	<path d="M16.35,45.11c-1.42,0-2.84,0.08-4.24-0.02c-3.33-0.22-6.12-3.27-6.12-6.6c0-0.52,0.28-0.86,0.72-0.88
		c0.41-0.01,0.71,0.28,0.74,0.79c0.12,2.19,1.14,3.79,3.1,4.77c0.8,0.4,1.67,0.51,2.56,0.51c2.38,0,4.75,0,7.13,0
		c0.18,0,0.36,0,0.54,0.02c0.4,0.05,0.62,0.29,0.64,0.68c0.02,0.42-0.2,0.69-0.62,0.74c-0.37,0.04-0.75,0.03-1.12,0.03
		c-1.11,0-2.21,0-3.32,0C16.35,45.14,16.35,45.13,16.35,45.11z"/>
</g>
</svg>
