<?xml version="1.0" encoding="utf-8"?>
<!-- Generator: Adobe Illustrator 26.0.2, SVG Export Plug-In . SVG Version: 6.00 Build 0)  -->
<svg version="1.1" id="Layer_1" xmlns="http://www.w3.org/2000/svg" xmlns:xlink="http://www.w3.org/1999/xlink" x="0px" y="0px"
	 viewBox="0 0 50 42" style="enable-background:new 0 0 50 42;" xml:space="preserve">
<g>
	<g>
		<path d="M25,0.73c7.49,0,14.97,0,22.46,0c1.61,0,2.54,0.93,2.54,2.55c0,4.4,0,8.8,0,13.2c0.01,3.36-2.57,5.54-5.54,5.54
			C31.44,21.99,18.41,22,5.38,22c-2.55,0-4.64-1.65-5.22-4.12c-0.1-0.42-0.16-0.86-0.16-1.3C0,12.13,0,7.68,0,3.22
			c0-1.54,0.95-2.5,2.48-2.5C9.99,0.73,17.49,0.73,25,0.73z M25.02,11.24c5.01,0,10.03,0,15.04,0c1.77,0,3.06-1.28,3.08-3.04
			c0.01-1.77-0.01-3.54,0.01-5.31c0-0.43-0.13-0.58-0.57-0.58c-11.71,0.01-23.42,0.01-35.13,0c-0.48,0-0.6,0.16-0.59,0.61
			c0.02,1.68,0.01,3.37,0.01,5.05c0,2.05,1.22,3.27,3.27,3.27C15.1,11.24,20.06,11.24,25.02,11.24z M5.43,20.43
			c0-0.6-0.02-1.23,0-1.86c0.08-1.92,1.43-3.22,3.36-3.23c1.81-0.01,3.61,0,5.42,0c8.96,0,17.92,0.02,26.88-0.02
			c1.73-0.01,3.53,1.32,3.47,3.41c-0.01,0.37,0,0.74,0,1.1c0.01,0.7,0.11,0.78,0.82,0.64c1.87-0.39,3.11-1.9,3.11-3.82
			c0-4.45,0-8.91,0-13.36c0-0.14,0.05-0.32-0.02-0.41c-0.17-0.24-0.39-0.6-0.61-0.62c-1.06-0.06-2.13-0.03-3.25-0.03
			c-0.02,0.3-0.05,0.56-0.05,0.82c-0.01,1.86-0.01,3.72-0.03,5.58c-0.01,0.84-0.32,1.57-0.8,2.24c-1.01,1.42-2.46,1.87-4.13,1.87
			c-9.47,0-18.94,0-28.41-0.01c-0.65,0-1.3-0.03-1.94-0.09c-1.98-0.16-3.74-1.94-3.81-3.92C5.4,6.83,5.44,4.94,5.42,3.04
			c0-0.26-0.03-0.51-0.05-0.82c-1,0-1.94,0-2.88,0c-0.74,0-1,0.26-1,1.02c0,4.51-0.02,9.01,0.03,13.52
			c0.01,0.67,0.25,1.38,0.58,1.98C2.75,19.93,4.23,20.65,5.43,20.43z M25.01,20.51c5.78,0,11.57,0,17.35,0
			c0.16,0,0.33,0.03,0.47-0.02c0.12-0.04,0.28-0.18,0.28-0.28c0.02-0.61,0.06-1.23-0.02-1.84c-0.12-0.87-0.68-1.39-1.55-1.56
			c-0.24-0.05-0.49-0.06-0.73-0.06c-10.55,0-21.1,0-31.65,0c-0.11,0-0.21,0-0.32,0c-1.23,0.06-1.97,0.83-1.98,2.06
			c0,0.33,0,0.67,0,1c0,0.69,0,0.7,0.69,0.7C13.37,20.51,19.19,20.51,25.01,20.51z"/>
		<path d="M12.39,34c-1.67,0-3.09-1.11-3.34-2.63c-0.25-1.55,0.63-3.03,2.09-3.53c0.77-0.26,1.51-0.22,2.25,0.09
			c0.5,0.21,0.71,0.59,0.56,0.98c-0.17,0.44-0.54,0.58-1.09,0.4c-1.09-0.36-2.01,0.05-2.33,1.03c-0.32,1.01,0.44,2.09,1.51,2.17
			c1.14,0.08,2.1-0.31,2.88-1.13c1.23-1.3,1.84-2.91,2.32-4.59c0.11-0.39,0.2-0.78,0.29-1.17c0.1-0.44,0.36-0.69,0.81-0.67
			c0.41,0.02,0.71,0.4,0.62,0.88c-0.5,2.66-1.36,5.15-3.44,7.03C14.67,33.63,13.57,33.99,12.39,34z"/>
		<path d="M40.97,30.38c0,2.46-1.88,3.93-3.99,3.59c-2.03-0.33-3.29-1.6-4.25-3.27c-0.81-1.41-1.31-2.93-1.67-4.51
			c-0.03-0.14-0.03-0.28-0.04-0.42c-0.03-0.44,0.17-0.72,0.6-0.79c0.42-0.07,0.7,0.15,0.82,0.56c0.28,0.95,0.51,1.92,0.84,2.86
			c0.4,1.15,0.99,2.2,1.87,3.07c0.81,0.81,1.78,1.15,2.91,1.02c0.66-0.08,1.12-0.48,1.36-1.09c0.26-0.63,0.11-1.21-0.33-1.7
			c-0.46-0.52-1.06-0.65-1.72-0.49c-0.14,0.03-0.26,0.11-0.39,0.14c-0.43,0.09-0.77-0.01-0.94-0.45c-0.16-0.43,0.07-0.73,0.42-0.9
			c0.86-0.43,1.76-0.47,2.63-0.06C40.3,28.49,40.94,29.45,40.97,30.38z"/>
		<path d="M26.17,25.93c0.18-0.28,0.31-0.64,0.57-0.83c0.37-0.27,0.88,0.02,0.97,0.53c0.17,0.94,0.24,1.91,0.42,2.85
			c0.56,2.98,1.44,5.85,3.34,8.29c1.14,1.47,2.58,2.51,4.39,2.99c0.63,0.17,0.89,0.49,0.77,0.97c-0.11,0.44-0.57,0.64-1.17,0.49
			c-1.29-0.34-2.45-0.93-3.48-1.78c-1.84-1.51-3.03-3.47-3.91-5.64C27.07,31.3,26.53,28.69,26.17,25.93z"/>
		<path d="M23.69,26.24c-0.46,3.96-1.35,8.03-4.03,11.48c-1.33,1.7-3.01,2.91-5.14,3.45c-0.6,0.15-1.05-0.03-1.16-0.47
			c-0.12-0.5,0.12-0.81,0.77-0.96c2.05-0.49,3.56-1.75,4.74-3.43c1.56-2.2,2.38-4.7,2.89-7.31c0.2-1.03,0.29-2.07,0.44-3.11
			c0.06-0.41,0.14-0.82,0.66-0.88C23.43,24.94,23.71,25.27,23.69,26.24z"/>
		<path d="M13.42,9.2c-0.77,0-1.54,0.01-2.31,0c-0.62-0.01-0.91-0.25-0.9-0.71c0-0.46,0.32-0.72,0.9-0.72c1.56,0,3.12,0,4.68,0
			c0.57,0,0.85,0.23,0.87,0.69c0.02,0.49-0.25,0.73-0.86,0.74C15,9.21,14.21,9.2,13.42,9.2z"/>
		<path d="M20.63,7.77c0.54,0,1.08,0,1.63,0c0.47,0,0.72,0.26,0.78,0.69c0.06,0.36-0.3,0.72-0.73,0.73c-1.12,0.02-2.24,0.01-3.36,0
			c-0.44-0.01-0.67-0.26-0.68-0.7c-0.01-0.43,0.25-0.7,0.73-0.71C19.55,7.76,20.09,7.77,20.63,7.77z"/>
	</g>
</g>
</svg>
