<?xml version="1.0" encoding="utf-8"?>
<!-- Generator: Adobe Illustrator 26.0.2, SVG Export Plug-In . SVG Version: 6.00 Build 0)  -->
<svg version="1.1" id="Layer_1" xmlns="http://www.w3.org/2000/svg" xmlns:xlink="http://www.w3.org/1999/xlink" x="0px" y="0px"
	 viewBox="0 0 50 50" style="enable-background:new 0 0 50 50;" xml:space="preserve">
<g>
	<g>
		<path d="M33.67,46.06c-5.8,0-11.53,0-17.32,0c0,0.95,0,1.87,0,2.8c0,0.91-0.21,1.12-1.11,1.12c-0.67,0-1.34-0.01-2,0
			c-0.5,0.01-0.78-0.21-0.92-0.69c-0.29-1.01-0.62-2.01-0.91-3.02c-0.09-0.31-0.23-0.48-0.58-0.57c-5.02-1.3-8.28-5.54-8.28-10.73
			c0-2.37,0-4.74,0-7.15c-0.31-0.08-0.59-0.15-0.88-0.22c-1.16-0.28-1.86-1.31-1.62-2.39c0.25-1.11,1.27-1.77,2.44-1.52
			c3.47,0.74,6.97,1.28,10.52,1.56c0.5,0.04,0.84-0.01,1.21-0.46c0.99-1.22,2.33-1.88,3.9-2.06c0.21-0.02,0.45-0.18,0.58-0.35
			c0.89-1.16,2.02-1.62,3.47-1.35c0.19,0.04,0.46-0.03,0.61-0.15c2.12-1.64,4.36-1.87,6.75-0.67c0.18,0.09,0.44,0.1,0.64,0.05
			c0.97-0.26,1.94-0.31,2.92-0.11c0.16,0.03,0.38-0.01,0.51-0.11c1.89-1.42,3.95-1.74,6.11-0.8c2.18,0.95,3.35,2.7,3.57,5.07
			c0,0.03,0.02,0.06,0.07,0.19c0.78-0.14,1.59-0.27,2.39-0.42c0.64-0.12,1.27-0.28,1.9-0.41c0.97-0.19,1.93,0.36,2.26,1.3
			c0.32,0.93-0.08,1.97-0.96,2.43c-0.15,0.08-0.32,0.14-0.49,0.19c-0.97,0.27-0.97,0.27-0.97,1.28c0,2.06,0,4.11,0,6.17
			c-0.01,5.12-3.29,9.37-8.25,10.65c-0.36,0.09-0.52,0.26-0.61,0.6c-0.28,0.98-0.6,1.94-0.88,2.92c-0.15,0.53-0.45,0.79-1.02,0.77
			c-0.72-0.03-1.44,0-2.16-0.01c-0.6-0.01-0.87-0.27-0.87-0.88C33.66,48.11,33.67,47.11,33.67,46.06z M46,28.19
			c-14.01,2.09-27.98,2.08-41.98,0c0,2.27,0,4.51,0,6.76c0,5.42,4.01,9.56,9.43,9.6c7.7,0.05,15.39,0.04,23.09,0
			c5.42-0.03,9.45-4.16,9.46-9.58c0-1.74,0-3.48,0-5.22C46,29.23,46,28.71,46,28.19z M41.77,24.74c0.01-0.12,0.03-0.21,0.03-0.29
			c-0.01-0.16-0.01-0.32-0.04-0.47c-0.34-1.7-1.3-2.92-2.94-3.49c-1.64-0.57-3.16-0.27-4.46,0.9c-0.42,0.37-0.79,0.49-1.33,0.31
			c-0.91-0.3-1.84-0.24-2.73,0.12c-0.45,0.18-0.82,0.15-1.23-0.12c-1.8-1.17-4.1-0.93-5.6,0.6c-0.43,0.43-0.79,0.58-1.38,0.3
			c-0.79-0.38-1.8-0.1-2.14,0.68c-0.35,0.79-0.86,1.03-1.64,0.96c-0.09-0.01-0.18,0.01-0.26,0.02c-0.86,0.15-1.64,0.47-2.37,1.19
			C24.47,25.96,33.12,25.83,41.77,24.74z M25.03,28.27c5.29-0.01,10.58-0.22,15.83-0.87c2.38-0.3,4.74-0.79,7.11-1.2
			c0.35-0.06,0.62-0.25,0.54-0.64c-0.09-0.41-0.39-0.47-0.78-0.38c-5.64,1.29-11.38,1.7-17.15,1.93c-4.64,0.18-9.28,0.19-13.91-0.14
			c-3.64-0.26-7.27-0.7-10.9-1.12c-1.2-0.14-2.38-0.45-3.56-0.69c-0.35-0.07-0.65,0.05-0.67,0.39c-0.01,0.2,0.24,0.43,0.4,0.62
			c0.06,0.07,0.19,0.07,0.3,0.09c2.3,0.39,4.59,0.86,6.91,1.15C14.41,28.04,19.72,28.26,25.03,28.27z M12.88,46.06
			c0.23,0.77,0.44,1.49,0.67,2.21c0.03,0.1,0.18,0.23,0.28,0.24c0.34,0.03,0.68,0.01,1,0.01c0-0.87,0-1.65,0-2.45
			C14.18,46.06,13.57,46.06,12.88,46.06z M37.12,46.08c-0.66,0-1.3,0-1.94,0c0,0.83,0,1.61,0,2.41c0.42,0,0.8,0,1.22,0
			c0.2-0.65,0.41-1.3,0.61-1.96C37.05,46.39,37.08,46.24,37.12,46.08z"/>
		<path d="M22.49,3.29c-0.01,1.8-1.46,3.25-3.25,3.25c-1.81,0-3.29-1.48-3.28-3.29c0.01-1.8,1.5-3.27,3.32-3.25
			C21.06,0.02,22.49,1.49,22.49,3.29z M21.01,3.28c0-1.01-0.79-1.81-1.8-1.8c-0.96,0-1.78,0.82-1.78,1.78c0,0.99,0.82,1.81,1.81,1.8
			C20.22,5.05,21.01,4.27,21.01,3.28z"/>
		<path d="M31.66,9.17c0,1.47-1.18,2.64-2.65,2.64c-1.42,0-2.62-1.21-2.62-2.63c0.01-1.46,1.2-2.65,2.66-2.64
			C30.5,6.56,31.66,7.73,31.66,9.17z M30.19,9.22c0.02-0.65-0.49-1.19-1.13-1.2c-0.62-0.01-1.15,0.49-1.18,1.11
			c-0.03,0.63,0.5,1.19,1.14,1.2C29.64,10.35,30.17,9.85,30.19,9.22z"/>
		<path d="M20.48,16.57c-1.11-0.01-2-0.92-1.99-2.02c0.01-1.07,0.93-1.97,2-1.98c1.11,0,2,0.9,2,2.01
			C22.48,15.7,21.6,16.58,20.48,16.57z M21.22,14.55c-0.34-0.23-0.57-0.5-0.72-0.46c-0.21,0.05-0.36,0.33-0.53,0.51
			c0.19,0.16,0.37,0.43,0.58,0.45C20.71,15.08,20.91,14.8,21.22,14.55z"/>
		<path d="M45.06,35.55c-0.26,0.96-0.49,1.92-0.79,2.87c-0.17,0.54-0.59,0.73-1.01,0.56c-0.42-0.17-0.51-0.56-0.36-1.11
			c0.22-0.79,0.43-1.58,0.54-2.39c0.1-0.71,0.27-1.03,0.78-1.02C44.72,34.47,44.96,34.81,45.06,35.55z"/>
	</g>
</g>
</svg>
