<?xml version="1.0" encoding="utf-8"?>
<!-- Generator: Adobe Illustrator 26.0.2, SVG Export Plug-In . SVG Version: 6.00 Build 0)  -->
<svg version="1.1" id="Layer_1" xmlns="http://www.w3.org/2000/svg" xmlns:xlink="http://www.w3.org/1999/xlink" x="0px" y="0px"
	 viewBox="0 0 50 35.48" style="enable-background:new 0 0 50 35.48;" xml:space="preserve">
<g>
	<g>
		<path d="M1.63,31.47c-0.13-0.02-0.19-0.03-0.26-0.03C0.33,31.53-0.06,31.25,0,30.02c0.04-0.77,0.01-1.54,0.01-2.32
			c0-0.86,0.25-1.1,1.11-1.11c0.15,0,0.3,0,0.5,0c0-0.27,0-0.5,0-0.72c0-1.8,0-3.59,0-5.39c0-2.09,1.1-3.33,3.22-3.58
			c0-0.19,0-0.38,0-0.58c0-4.27,0-8.53,0-12.8C4.84,1.33,6.16,0,8.34,0c11.1,0,22.2,0,33.3,0c2.18,0,3.5,1.33,3.5,3.52
			c0,4.27,0,8.53,0,12.8c0,0.18,0,0.37,0,0.56c0.33,0.07,0.65,0.11,0.95,0.2c1.34,0.41,2.26,1.63,2.27,3.05c0.02,1.95,0,3.9,0,5.84
			c0,0.18,0,0.37,0,0.63c0.28,0,0.54-0.01,0.8,0c0.48,0.03,0.79,0.32,0.8,0.8c0.02,1.07,0.02,2.15,0,3.22
			c-0.01,0.48-0.32,0.77-0.8,0.81c-0.25,0.02-0.5,0-0.81,0c0,0.99,0,1.94,0,2.89c0,0.9-0.24,1.14-1.12,1.14
			c-0.65,0-1.31,0.01-1.96,0c-0.57-0.01-0.83-0.21-0.94-0.77c-0.2-0.97-0.41-1.94-0.58-2.91c-0.05-0.27-0.15-0.39-0.42-0.35
			c-0.08,0.01-0.17,0-0.25,0c-12.06,0-24.12,0-36.17-0.01c-0.49,0-0.66,0.13-0.74,0.61c-0.14,0.89-0.34,1.78-0.52,2.67
			c-0.12,0.56-0.37,0.76-0.94,0.77c-0.72,0.01-1.44,0.01-2.17,0c-0.62-0.01-0.92-0.31-0.92-0.94C1.62,33.52,1.63,32.52,1.63,31.47z
			 M8.08,16.91c0-1.11-0.02-2.18,0-3.26c0.03-1.74,1.41-3.15,3.15-3.16c3.27-0.02,6.55-0.02,9.82,0c1.51,0.01,2.83,1.07,3.05,2.57
			c0.15,1.05,0.08,2.14,0.1,3.21c0,0.21,0,0.42,0,0.62c0.58,0,1.09,0,1.61,0c0-1,0-1.95,0-2.91c0-2.15,1.34-3.49,3.48-3.5
			c3.06,0,6.11,0,9.17,0c2.14,0,3.47,1.34,3.48,3.5c0,0.97,0,1.94,0,2.92c0.56,0,1.07,0,1.61,0c0-0.18,0-0.33,0-0.48
			c0-4.31,0-8.63,0-12.94c0-1.23-0.63-1.86-1.86-1.86c-11.11,0-22.23,0-33.34,0c-1.26,0-1.88,0.62-1.88,1.89c0,4.3,0,8.6,0,12.89
			c0,0.16,0,0.33,0,0.51C7.01,16.91,7.51,16.91,8.08,16.91z M46.77,26.59c0-2.12,0-4.18,0-6.24c0-1.15-0.65-1.8-1.82-1.8
			c-13.3,0-26.6,0-39.9,0c-1.16,0-1.82,0.64-1.82,1.8c0,1.93,0,3.86,0,5.79c0,0.15,0.02,0.29,0.03,0.45
			C17.77,26.59,32.24,26.59,46.77,26.59z M1.65,29.79c15.6,0,31.15,0,46.69,0c0-0.55,0-1.05,0-1.55c-15.58,0-31.13,0-46.69,0
			C1.65,28.77,1.65,29.26,1.65,29.79z M22.58,16.91c0-1.14,0.03-2.23-0.01-3.32c-0.03-0.82-0.72-1.49-1.55-1.49
			c-3.26-0.01-6.51-0.01-9.77,0c-0.77,0-1.49,0.59-1.53,1.34c-0.06,1.15-0.02,2.3-0.02,3.47C14.01,16.91,18.26,16.91,22.58,16.91z
			 M40.32,16.91c0-1.14,0.03-2.23-0.01-3.32c-0.03-0.82-0.72-1.49-1.55-1.49c-3.26-0.01-6.51-0.01-9.77,0
			c-0.77,0-1.49,0.59-1.53,1.34c-0.06,1.15-0.02,2.3-0.02,3.47C31.74,16.91,36,16.91,40.32,16.91z M4.66,31.47
			c-0.51,0-0.95,0-1.39,0c0,0.81,0,1.59,0,2.34c0.33,0,0.63,0,0.92,0C4.36,33.02,4.51,32.27,4.66,31.47z M46.73,33.84
			c0-0.82,0-1.6,0-2.36c-0.48,0-0.92,0-1.39,0c0.16,0.81,0.32,1.58,0.48,2.36C46.14,33.84,46.42,33.84,46.73,33.84z"/>
	</g>
</g>
</svg>
