<?xml version="1.0" encoding="utf-8"?>
<!-- Generator: Adobe Illustrator 26.0.2, SVG Export Plug-In . SVG Version: 6.00 Build 0)  -->
<svg version="1.1" id="Layer_1" xmlns="http://www.w3.org/2000/svg" xmlns:xlink="http://www.w3.org/1999/xlink" x="0px" y="0px"
	 viewBox="0 0 50 41" style="enable-background:new 0 0 50 41;" xml:space="preserve">
<g>
	<g>
		<path d="M50,34.68c-0.33,0.79-0.68,1.58-1,2.38c-0.6,1.47-1.52,2.12-3.11,2.12c-13.96,0-27.91,0-41.87,0
			c-1.62,0-2.53-0.64-3.14-2.15c-0.27-0.67-0.54-1.33-0.79-2c-0.26-0.68,0.02-1.16,0.73-1.08c1.04,0.11,1.66-0.13,2.15-1.2
			c0.42-0.93,1.3-1.65,2-2.45c0.26-0.29,0.39-0.51,0.14-0.92c-0.43-0.69-0.22-1.53,0.43-2.06c1.56-1.26,3.3-2.13,5.25-2.59
			c0.33-0.08,0.53-0.21,0.71-0.55c0.19-0.37,0.55-0.75,0.93-0.92c2.58-1.18,5.26-1.35,8.01-0.74c0.15,0.03,0.31,0.06,0.55,0.1
			c-0.05-0.8-0.09-1.54-0.15-2.28c-0.11-1.46-0.27-2.92-0.34-4.38c-0.07-1.44,0.9-2.39,2.35-2.39c6.1,0,12.2,0.02,18.29-0.02
			c1.27-0.01,2.51,1.02,2.37,2.44c-0.03,0.32,0,0.64,0,1.03c0.3-0.08,0.58-0.16,0.86-0.22c2.69-0.57,5.19,1.22,5.52,3.95
			c0.02,0.14,0.08,0.28,0.12,0.42c0,0.62,0,1.24,0,1.86c-0.04,0.12-0.1,0.24-0.12,0.36c-0.42,3.2-3.78,4.97-6.65,3.51
			c-0.14-0.07-0.28-0.15-0.47-0.25c-0.05,0.21-0.1,0.36-0.12,0.52c-0.11,1.39-0.23,2.79-0.31,4.18c-0.04,0.8-0.22,1.54-0.66,2.21
			c-0.06,0.09-0.09,0.19-0.16,0.36c0.24,0,0.41,0,0.59,0c2.23,0,4.46,0.01,6.7-0.01c0.52-0.01,0.92,0.11,1.19,0.56
			C50,34.55,50,34.61,50,34.68z M1.64,35.3c0.18,0.47,0.32,0.83,0.46,1.19c0.44,1.09,0.85,1.37,2.03,1.37c13.88,0,27.75,0,41.63,0
			c0.15,0,0.31,0.04,0.44-0.01c0.37-0.14,0.87-0.22,1.07-0.49c0.42-0.59,0.69-1.29,1.07-2.05c-0.37-0.02-0.56-0.04-0.75-0.04
			c-1.91,0-3.82,0-5.72,0c-1.13,0-2.25,0.01-3.38-0.01c-0.22,0-0.49-0.04-0.63-0.18c-0.14-0.15-0.24-0.45-0.19-0.64
			c0.09-0.38,0.42-0.49,0.8-0.49c1.35-0.02,2.28-0.83,2.48-2.16c0.1-0.66,0.13-1.33,0.18-1.99c0.11-1.44,0.2-2.89,0.31-4.33
			c0.15-2.04,0.32-4.09,0.48-6.13c0.08-1,0.14-2.01,0.26-3.01c0.12-1.01-0.22-1.43-1.25-1.43c-5.95,0-11.9,0-17.86,0
			c-0.11,0-0.23,0-0.34,0c-0.61,0.04-0.96,0.49-0.91,1.09c0.18,2.25,0.37,4.51,0.53,6.76c0.02,0.3,0.14,0.45,0.38,0.61
			c0.28,0.2,0.6,0.46,0.71,0.76c0.16,0.41,0.41,0.55,0.8,0.64c1.9,0.46,3.61,1.3,5.13,2.53c0.66,0.53,0.96,1.22,0.59,1.84
			c-0.42,0.71-0.1,1.09,0.35,1.52c0.09,0.09,0.18,0.19,0.26,0.29c0.73,0.87,1.59,1.65,1.94,2.79c0.03,0.11,0.28,0.21,0.42,0.21
			c0.72,0.02,1.44,0,2.15,0.02c0.4,0.01,0.69,0.21,0.69,0.66c0,0.45-0.26,0.64-0.69,0.65c-0.21,0-0.42,0.01-0.64,0.01
			c-10.66,0-21.33,0-31.99,0C2.22,35.26,1.99,35.28,1.64,35.3z M12.36,33.94c0-0.26,0.02-0.45,0-0.64
			c-0.14-1.21-0.28-2.42-0.44-3.63c-0.06-0.46,0.13-0.83,0.52-0.91c0.38-0.08,0.68,0.16,0.79,0.62c0.03,0.11,0.03,0.22,0.04,0.34
			c0.15,1.26,0.32,2.51,0.45,3.77c0.04,0.4,0.22,0.46,0.57,0.46c2.12-0.01,4.24-0.02,6.36,0.01c0.5,0.01,0.59-0.2,0.63-0.63
			c0.09-0.97,0.22-1.94,0.34-2.9c0.21-1.74,0.41-3.49,0.64-5.23c0.06-0.49-0.13-0.73-0.58-0.9c-2.7-1.02-5.4-1.07-8.11-0.09
			c-1.03,0.37-0.98,0.36-0.79,1.27c0.02,0.11,0.01,0.23,0.02,0.34c0.04,0.42,0.06,0.84-0.47,0.98c-0.41,0.11-0.66-0.12-0.86-0.72
			c-0.01-0.03-0.04-0.05-0.1-0.11c-1.84,0.39-3.51,1.18-4.97,2.41c-0.1,0.08-0.1,0.41-0.02,0.54c1.04,1.6,2.1,3.18,3.17,4.76
			c0.09,0.13,0.28,0.25,0.42,0.25C10.74,33.95,11.52,33.94,12.36,33.94z M48.62,22.06c-0.02,0-0.03,0-0.05,0
			c0-0.31,0.01-0.62,0-0.93c-0.04-1.24-0.64-2.14-1.7-2.72c-1.09-0.6-2.19-0.54-3.24,0.12c-0.16,0.1-0.27,0.34-0.31,0.54
			c-0.07,0.33-0.08,0.68-0.1,1.02c-0.12,1.46-0.25,2.92-0.33,4.38c-0.01,0.24,0.09,0.56,0.26,0.72c1.73,1.68,4.68,0.89,5.32-1.44
			C48.6,23.22,48.57,22.63,48.62,22.06z M22.55,33.93c0.9,0,1.7,0.01,2.49-0.01c0.13,0,0.3-0.13,0.38-0.25
			c1.07-1.58,2.12-3.17,3.18-4.75c0.16-0.24,0.14-0.45-0.1-0.63c-1.37-1.09-2.91-1.83-4.61-2.26c-0.32-0.08-0.42,0.01-0.46,0.34
			c-0.21,1.81-0.44,3.61-0.66,5.42C22.69,32.48,22.63,33.17,22.55,33.93z M3.93,33.9c1.34,0,2.68,0,4.15,0
			c-0.67-1.01-1.29-1.93-1.9-2.86C5.33,31.68,3.98,33.39,3.93,33.9z M26.88,33.9c1.48,0,2.82,0,4.28,0
			c-0.61-1.17-1.52-1.95-2.33-2.91C28.16,31.99,27.56,32.89,26.88,33.9z"/>
		<path d="M33.43,2.61c-0.01,0.63-0.31,1.11-0.74,1.54c-1.09,1.08-1.08,1.26,0,2.35c1.04,1.04,1.04,2.37-0.01,3.42
			c-0.39,0.39-0.8,0.74-0.86,1.37c-0.02,0.17-0.45,0.45-0.64,0.42c-0.23-0.04-0.53-0.35-0.57-0.59c-0.1-0.57,0.15-1.08,0.53-1.51
			c0.19-0.22,0.42-0.41,0.62-0.62c0.52-0.54,0.52-1,0.01-1.53c-0.17-0.18-0.35-0.34-0.52-0.51c-0.91-0.95-0.91-2.25-0.01-3.2
			c0.18-0.19,0.4-0.35,0.55-0.55c0.15-0.2,0.28-0.44,0.34-0.68c0.11-0.49,0.3-0.7,0.73-0.67C33.26,1.84,33.44,2.09,33.43,2.61z"/>
		<path d="M35.85,2.6c0.45-0.01,0.78,0.36,0.65,0.8c-0.14,0.51-0.3,1.03-0.52,1.51c-0.14,0.3-0.14,0.52,0,0.81
			c0.78,1.54,0.81,3.12,0.12,4.71c-0.22,0.51-0.64,0.67-1.01,0.41c-0.38-0.26-0.36-0.6-0.19-0.99c0.47-1.06,0.49-2.14,0.04-3.22
			c-0.12-0.28-0.28-0.55-0.46-0.8c-0.23-0.34-0.22-0.62-0.02-0.99c0.28-0.52,0.5-1.08,0.71-1.64C35.33,2.8,35.51,2.61,35.85,2.6z"/>
		<path d="M27.38,5.28c0.09-0.48,0.15-0.96,0.26-1.43c0.1-0.4,0.42-0.53,0.8-0.44c0.4,0.1,0.56,0.41,0.46,0.78
			c-0.34,1.3-0.1,2.47,0.65,3.56c0.26,0.39,0.19,0.78-0.13,0.99c-0.31,0.2-0.72,0.09-0.97-0.26C27.76,7.53,27.41,6.47,27.38,5.28z"
			/>
	</g>
</g>
</svg>
