<?xml version="1.0" encoding="utf-8"?>
<!-- Generator: Adobe Illustrator 26.0.2, SVG Export Plug-In . SVG Version: 6.00 Build 0)  -->
<svg version="1.1" id="Layer_1" xmlns="http://www.w3.org/2000/svg" xmlns:xlink="http://www.w3.org/1999/xlink" x="0px" y="0px"
	 viewBox="0 0 50 53" style="enable-background:new 0 0 50 53;" xml:space="preserve">
<g>
	<g>
		<path d="M25.03,19.9c6.89,0,13.77,0,20.66,0c0.72,0,0.72,0,0.72-0.72c0-0.8,0-1.59,0-2.39c0-0.71,0.26-0.97,0.99-0.97
			c0.54,0,1.09-0.01,1.63,0c0.6,0.01,0.91,0.29,0.96,0.88c0.01,0.15,0,0.31,0,0.46c0,10.16,0,20.32,0,30.49
			c0,1.12-0.26,1.38-1.37,1.38c-0.41,0-0.81,0.01-1.22,0c-0.68-0.02-0.99-0.34-0.99-1.01c0-0.63-0.01-1.26,0-1.88
			c0-0.28-0.09-0.43-0.39-0.47c-2.06-0.29-4.1-0.65-6.17-0.9c-4.96-0.59-9.94-0.69-14.92-0.59c-3.08,0.06-6.17,0.2-9.24,0.41
			c-3.15,0.22-6.3,0.58-9.45,0.88c-0.71,0.07-1.41,0.15-2.12,0.22c-0.38,0.04-0.57,0.18-0.55,0.61c0.03,0.59,0.01,1.19,0.01,1.78
			c-0.01,0.59-0.3,0.92-0.9,0.95c-0.58,0.03-1.15,0.03-1.73,0C0.35,49,0.05,48.67,0,48.06c-0.01-0.1,0-0.2,0-0.31
			c0-10.23,0-20.46,0.01-30.69c0-0.29,0.06-0.61,0.19-0.87c0.08-0.16,0.35-0.34,0.52-0.34c0.56,0.02,0.59-0.29,0.58-0.71
			c-0.01-1.75-0.03-3.5,0.01-5.24C1.39,6.94,3.92,4.34,6.85,4c3.47-0.41,6.54,1.97,7.09,5.38c0.05,0.31,0.16,0.43,0.44,0.52
			c1.95,0.57,2.68,1.47,2.84,3.46c0.06,0.72,0.45,1.14,1.16,1.27c0.17,0.03,0.34,0.06,0.5,0.11c0.36,0.12,0.49,0.5,0.28,0.82
			c-0.03,0.04-0.06,0.09-0.1,0.12c-0.73,0.45-0.87,1.09-0.71,1.9c0.1,0.53-0.31,0.76-0.82,0.53c-0.05-0.02-0.1-0.04-0.13-0.07
			c-0.53-0.44-1.06-0.46-1.66-0.07c-0.19,0.13-0.59,0.13-0.78,0.01c-0.15-0.09-0.21-0.5-0.14-0.72c0.22-0.65,0.05-1.12-0.45-1.56
			c-0.18-0.16-0.33-0.52-0.28-0.73c0.04-0.17,0.4-0.26,0.63-0.39c0.03-0.02,0.06-0.03,0.1-0.03c0.46-0.02,0.86-0.04,1.12-0.57
			c0.29-0.6,0.24-1.16-0.01-1.71c-0.55-1.2-2.34-1.74-3.67-1.13c-0.75,0.35-1.26,0.89-1.42,1.73c-0.11,0.59,0.13,1.07,0.41,1.53
			c0.07,0.12,0.28,0.16,0.44,0.21c0.23,0.06,0.47,0.07,0.7,0.13c0.48,0.12,0.67,0.63,0.3,0.92c-0.68,0.52-0.95,1.09-0.69,1.95
			c0.13,0.42-0.33,0.72-0.76,0.57c-0.02-0.01-0.03-0.01-0.05-0.02c-0.65-0.52-1.28-0.55-2.02-0.09c-0.47,0.29-0.94-0.13-0.77-0.68
			c0.23-0.71,0.09-1.24-0.49-1.74c-0.51-0.45-0.35-0.88,0.31-1.03c0.12-0.03,0.23-0.06,0.35-0.07c0.74-0.08,1.16-0.52,1.19-1.27
			c0.07-1.71,0.96-2.87,2.62-3.31c0.43-0.12,0.51-0.3,0.44-0.7c-0.4-2.27-2.63-4.1-4.92-4.2c-2.6-0.11-5.11,1.73-5.5,4.6
			c-0.09,0.65-0.04,1.32-0.04,1.98c-0.01,1.24,0.01,2.48-0.01,3.72c0,0.33,0.08,0.49,0.45,0.5c0.54,0.03,0.77,0.31,0.78,0.86
			c0.01,0.87,0.03,1.73-0.01,2.6c-0.02,0.5,0.15,0.62,0.64,0.62c6.6-0.01,13.2-0.01,19.8-0.01C24.35,19.9,24.69,19.9,25.03,19.9z
			 M46.41,44.61c0-0.79,0-1.51,0-2.23c0-0.77,0-0.77-0.77-0.77c-13.76,0-27.52,0-41.28,0c-0.1,0-0.2,0.01-0.31,0
			c-0.35-0.04-0.49,0.1-0.48,0.46c0.02,0.64,0,1.29,0,1.93c0,0.67,0.06,0.69,0.74,0.61c2.01-0.24,4.03-0.48,6.05-0.67
			c1.94-0.18,3.88-0.32,5.82-0.43c2.64-0.15,5.28-0.33,7.92-0.37c4.68-0.08,9.36-0.09,14.02,0.39c1.93,0.2,3.86,0.44,5.79,0.69
			C44.72,44.31,45.52,44.46,46.41,44.61z M24.95,22.83c6.85,0,13.71,0,20.56,0c0.19,0,0.39,0.04,0.55-0.02
			c0.14-0.05,0.26-0.21,0.33-0.34c0.05-0.09,0.02-0.23,0.01-0.35c-0.03-1.18,0.23-1.13-1.1-1.13c-13.47,0-26.94,0-40.41,0
			c-1.56,0-1.28-0.2-1.31,1.38c0,0.03-0.01,0.08,0,0.1c0.11,0.12,0.2,0.29,0.34,0.34c0.17,0.06,0.37,0.02,0.55,0.02
			C11.31,22.83,18.13,22.83,24.95,22.83z M10.6,23.9c0,4.12,0,8.18,0,12.3c1.18,0,2.31-0.02,3.44,0.01c0.5,0.02,0.62-0.15,0.62-0.64
			c-0.02-2.78-0.01-5.56-0.01-8.35c0-0.95,0.01-1.9-0.01-2.85c0-0.16-0.18-0.46-0.29-0.46C13.12,23.88,11.88,23.9,10.6,23.9z
			 M22.9,30.04c0-1.87-0.01-3.73,0.01-5.6c0-0.41-0.11-0.58-0.54-0.56c-0.68,0.03-1.36,0-2.03,0.01c-0.48,0.01-1.15-0.12-1.4,0.13
			c-0.26,0.27-0.13,0.93-0.13,1.41c-0.01,3.38,0,6.75-0.01,10.13c0,0.41,0.05,0.66,0.58,0.64c0.98-0.05,1.97-0.04,2.95,0
			c0.5,0.02,0.59-0.17,0.59-0.62C22.89,33.74,22.9,31.89,22.9,30.04z M31.14,30.06c0-1.87-0.01-3.73,0.01-5.6
			c0.01-0.45-0.14-0.59-0.59-0.57c-0.97,0.03-1.93,0.04-2.9,0c-0.5-0.02-0.64,0.15-0.64,0.63c0.02,2,0.01,4,0.01,6.01
			c0,1.63,0,3.26,0,4.89c0,0.79,0,0.79,0.76,0.79c0.92,0,1.83-0.02,2.75,0.01c0.47,0.02,0.61-0.14,0.6-0.6
			C31.13,33.75,31.14,31.9,31.14,30.06z M39.39,30.06c0-1.87-0.01-3.73,0.01-5.6c0.01-0.45-0.14-0.59-0.59-0.57
			c-0.97,0.03-1.93,0.03-2.9,0c-0.49-0.02-0.65,0.14-0.64,0.63c0.02,1.88,0.01,3.77,0.01,5.65c0,1.73,0,3.46,0,5.19
			c0,0.84,0,0.84,0.81,0.84c0.9,0,1.8-0.02,2.7,0.01c0.47,0.02,0.61-0.13,0.61-0.6C39.37,33.76,39.39,31.91,39.39,30.06z
			 M1.14,47.88c0.2,0.01,0.3,0.03,0.4,0.03c1.15-0.01,1,0.15,1-0.99c0-9.72,0-19.43,0-29.15c0-0.19,0.01-0.37-0.01-0.56
			c-0.01-0.09-0.07-0.25-0.11-0.26c-0.37-0.03-0.75-0.07-1.1-0.01c-0.09,0.02-0.17,0.39-0.17,0.6c-0.01,9.92-0.01,19.84-0.01,29.76
			C1.14,47.48,1.14,47.66,1.14,47.88z M48.86,47.86c0-0.24,0-0.46,0-0.67c0-9.85,0-19.7,0-29.56c0-0.15,0.02-0.31-0.01-0.46
			c-0.02-0.1-0.09-0.23-0.17-0.26c-0.72-0.3-1.22,0.04-1.22,0.81c0,9.67,0,19.33,0,29C47.46,48.01,47.46,48.01,48.86,47.86z
			 M46.41,30.05c0-1.88-0.01-3.76,0.01-5.64c0-0.39-0.12-0.55-0.52-0.53c-0.57,0.03-1.16,0.05-1.73,0
			c-0.54-0.05-0.66,0.18-0.65,0.67c0.02,2.76,0.01,5.52,0.01,8.29c0,0.97,0.01,1.93,0,2.9c0,0.34,0.12,0.48,0.48,0.47
			c0.63-0.02,1.25-0.03,1.88,0c0.44,0.02,0.54-0.15,0.54-0.56C46.4,33.78,46.41,31.92,46.41,30.05z M6.41,30.07
			c0-1.85-0.02-3.7,0.01-5.55c0.01-0.53-0.16-0.68-0.67-0.64c-0.56,0.04-1.12,0.02-1.68,0c-0.34-0.01-0.49,0.09-0.49,0.45
			c0.01,3.8,0.01,7.6,0,11.4c0,0.36,0.14,0.47,0.48,0.46c0.59-0.02,1.19-0.03,1.78,0c0.46,0.03,0.58-0.14,0.57-0.58
			C6.39,33.77,6.41,31.92,6.41,30.07z M9.47,32.19c0-2.32,0-4.65,0-6.97c0-1.33,0-1.33-1.32-1.33c-0.69,0-0.69,0-0.69,0.71
			c0,4.83-0.01,9.67,0.01,14.5c0.01,1.62-0.35,1.4,1.46,1.43c0.41,0.01,0.55-0.13,0.55-0.56C9.46,37.38,9.47,34.78,9.47,32.19z
			 M17.71,32.19c0-2.32,0-4.65,0-6.97c0-1.33,0-1.33-1.32-1.33c-0.69,0-0.69,0-0.69,0.71c0,4.85,0,9.7,0,14.55
			c0,1.4,0,1.39,1.42,1.38c0.46,0,0.61-0.14,0.6-0.61C17.7,37.35,17.71,34.77,17.71,32.19z M25.96,32.19c0-2.32,0-4.65,0-6.97
			c0-1.33,0-1.33-1.33-1.32c-0.68,0-0.69,0-0.69,0.71c0,4.85,0,9.7,0,14.55c0,1.4,0,1.39,1.42,1.38c0.46,0,0.61-0.14,0.6-0.61
			C25.95,37.35,25.96,34.77,25.96,32.19z M34.2,32.18c0-2.32,0-4.65,0-6.97c0-1.32,0-1.32-1.34-1.31c-0.67,0-0.68,0-0.68,0.67
			c0,5.09,0,10.18,0,15.27c0,0.1-0.04,0.23,0.01,0.3c0.09,0.15,0.22,0.35,0.35,0.37c0.37,0.05,0.74,0.01,1.12,0.03
			c0.42,0.03,0.54-0.15,0.54-0.57C34.2,37.37,34.2,34.77,34.2,32.18z M42.45,32.2c0-2.34,0-4.68,0-7.02c0-1.29,0-1.29-1.31-1.29
			c-0.7,0-0.7,0-0.7,0.69c0,4.85,0,9.7,0,14.56c0,1.41,0,1.39,1.41,1.4c0.5,0,0.62-0.17,0.62-0.65
			C42.44,37.33,42.45,34.76,42.45,32.2z M10.57,37.32c0,1.01-0.01,1.95,0.02,2.89c0,0.11,0.24,0.29,0.37,0.29
			c1.1,0.02,2.2,0.01,3.3,0.01c0.26,0,0.4-0.11,0.4-0.4c-0.01-0.81,0.01-1.63-0.02-2.44c0-0.12-0.22-0.34-0.35-0.34
			C13.08,37.31,11.88,37.32,10.57,37.32z M20.84,37.32c-0.54,0-1.08,0.01-1.63,0c-0.27-0.01-0.42,0.08-0.42,0.37
			c0,0.81,0,1.63,0,2.44c0,0.27,0.13,0.4,0.4,0.4c1.1,0,2.2,0,3.3,0c0.27,0,0.4-0.12,0.39-0.41c-0.01-0.8-0.01-1.59,0-2.39
			c0-0.31-0.13-0.41-0.43-0.41C21.93,37.33,21.39,37.32,20.84,37.32z M29.1,37.32c-0.53,0-1.05,0.02-1.58-0.01
			c-0.35-0.02-0.5,0.1-0.49,0.46c0.01,0.76,0.01,1.52,0,2.29c0,0.31,0.12,0.47,0.45,0.47c1.07-0.01,2.13,0,3.2,0
			c0.3,0,0.47-0.11,0.46-0.45c-0.02-0.78-0.01-1.56,0-2.34c0-0.3-0.11-0.43-0.42-0.42C30.19,37.33,29.64,37.32,29.1,37.32z
			 M37.33,37.32c-0.54,0-1.08,0.01-1.63,0c-0.27-0.01-0.42,0.08-0.42,0.37c0,0.81-0.02,1.63,0.02,2.44
			c0.01,0.14,0.25,0.38,0.39,0.38c1.1,0.03,2.2,0.02,3.3,0.01c0.27,0,0.4-0.13,0.39-0.41c-0.01-0.8-0.01-1.59,0-2.39
			c0-0.31-0.14-0.41-0.43-0.4C38.41,37.33,37.87,37.32,37.33,37.32z M46.41,38.94c0-0.39-0.01-0.78,0-1.17
			c0.01-0.31-0.09-0.47-0.43-0.46c-0.68,0.02-1.36,0.02-2.03,0c-0.32-0.01-0.43,0.13-0.42,0.42c0,0.78,0.01,1.56,0,2.34
			c0,0.33,0.15,0.46,0.46,0.45c0.51-0.01,1.02,0,1.53,0c0.9,0,0.9,0,0.9-0.87C46.41,39.42,46.41,39.18,46.41,38.94z M6.41,38.91
			c0-0.39-0.01-0.78,0-1.17c0.01-0.3-0.09-0.43-0.41-0.42c-0.68,0.02-1.35,0.01-2.03,0c-0.29,0-0.39,0.13-0.38,0.4
			c0.01,0.8,0.01,1.59,0,2.39c0,0.28,0.11,0.41,0.38,0.41c0.68,0,1.35,0,2.03,0c0.3,0,0.42-0.14,0.41-0.44
			C6.39,39.69,6.41,39.3,6.41,38.91z M10.7,16.48c0.09-0.28,0.18-0.57,0.26-0.84c-0.24-0.19-0.48-0.39-0.7-0.57
			c-0.26,0.17-0.51,0.35-0.75,0.51c0.09,0.3,0.17,0.6,0.25,0.89C10.08,16.48,10.39,16.48,10.7,16.48z M17.04,16.48
			c0.11-0.28,0.23-0.56,0.34-0.84c-0.24-0.18-0.49-0.37-0.72-0.55c-0.25,0.17-0.51,0.34-0.75,0.49c0.09,0.3,0.18,0.6,0.27,0.89
			C16.47,16.48,16.76,16.48,17.04,16.48z"/>
		<path d="M41.74,18.93c-0.95,0-1.9,0-2.85,0c-0.36,0-0.72-0.04-0.72-0.51c0-0.48,0.35-0.55,0.74-0.55c1.91,0,3.83,0,5.74,0
			c0.38,0,0.72,0.11,0.73,0.53c0.01,0.42-0.32,0.54-0.7,0.54C43.71,18.93,42.73,18.93,41.74,18.93z"/>
		<path d="M36.67,19.02c-0.17-0.21-0.47-0.4-0.49-0.62c-0.03-0.36,0.26-0.55,0.64-0.54c0.37,0.01,0.65,0.18,0.64,0.56
			C37.45,18.83,37.14,18.94,36.67,19.02z"/>
	</g>
</g>
</svg>
