<?xml version="1.0" encoding="utf-8"?>
<!-- Generator: Adobe Illustrator 26.0.2, SVG Export Plug-In . SVG Version: 6.00 Build 0)  -->
<svg version="1.1" id="Layer_1" xmlns="http://www.w3.org/2000/svg" xmlns:xlink="http://www.w3.org/1999/xlink" x="0px" y="0px"
	 viewBox="0 0 50 52" style="enable-background:new 0 0 50 52;" xml:space="preserve">
<g>
	<g>
		<path d="M36.97,49.07c-0.33,0-0.58,0-0.91,0c0,0.66-0.02,1.3,0.01,1.95c0.02,0.38-0.11,0.51-0.5,0.5
			c-1.26-0.04-1.04,0.15-1.06-1.06c0-0.14-0.01-0.28,0-0.41c0.08-0.69-0.01-1.25-0.75-1.63c-0.6-0.32-0.76-1.01-0.9-1.66
			c-0.03-0.17-0.16-0.38-0.3-0.46c-0.96-0.54-1.34-1.38-1.34-2.43c0-4.6,0-9.21,0-13.81c0-0.22,0-0.44,0-0.72c-0.27,0-0.49,0-0.7,0
			c-4.76,0-9.52-0.03-14.27,0.01c-1.68,0.01-2.97-0.64-3.98-1.93c-1.32-1.68-2.03-3.63-2.5-5.68c-0.7-3.05-0.86-6.14-0.55-9.26
			c0.24-2.41,0.73-4.76,1.76-6.96c0.57-1.22,1.28-2.34,2.37-3.18c0.73-0.57,1.56-0.84,2.48-0.84c9.14,0,18.28,0,27.42,0
			c1.42,0,2.52,0.66,3.41,1.72c1.43,1.71,2.17,3.75,2.66,5.88c0.7,3.05,0.85,6.14,0.54,9.26c-0.24,2.4-0.68,4.74-1.76,6.91
			c-0.5,1-1.16,1.93-1.88,2.79c-0.78,0.93-1.89,1.31-3.12,1.29c-0.41-0.01-0.81,0-1.28,0c0,0.28,0,0.5,0,0.72c0,4.59,0,9.17,0,13.76
			c0,1.09-0.37,1.96-1.38,2.51c-0.14,0.08-0.25,0.31-0.28,0.48c-0.15,0.88-0.56,1.56-1.37,1.99c-0.13,0.07-0.24,0.32-0.24,0.49
			c-0.03,0.61-0.02,1.23-0.01,1.85c0.01,0.29-0.1,0.4-0.39,0.39c-1.43-0.02-1.14,0.17-1.16-1.11
			C36.96,49.98,36.97,49.56,36.97,49.07z M18.62,27.77c0.33,0,0.54,0,0.76,0c7.8,0,15.6-0.03,23.41,0.03
			c1.39,0.01,2.32-0.52,3.05-1.59c0.29-0.42,0.56-0.86,0.78-1.32c1.2-2.47,1.68-5.12,1.82-7.82c0.14-2.56,0.01-5.12-0.6-7.64
			c-0.43-1.78-1-3.52-2.13-5.01c-0.7-0.92-1.54-1.42-2.78-1.41c-7.85,0.04-15.71,0.02-23.56,0.02c-0.21,0-0.42,0-0.71,0
			c0.41,0.63,0.79,1.15,1.1,1.72c1.87,3.49,2.34,7.29,2.28,11.16c-0.02,1.6-0.22,3.2-0.48,4.78c-0.37,2.27-1.09,4.44-2.43,6.36
			C18.99,27.26,18.85,27.46,18.62,27.77z M32.81,29.36c-0.01,0.16-0.03,0.3-0.03,0.43c0,4.76,0,9.51,0,14.27
			c0,0.67,0.3,0.97,0.97,0.97c1.8,0,3.59,0,5.39,0c0.88,0,1.12-0.25,1.12-1.13c0-4.65,0-9.31,0-13.96c0-0.18-0.02-0.37-0.03-0.58
			C37.75,29.36,35.31,29.36,32.81,29.36z M10.59,15.67c-0.03,2.47,0.32,5.16,1.24,7.76c0.48,1.36,1.09,2.66,2.18,3.66
			c1,0.91,2.12,0.92,3.12,0c0.26-0.24,0.51-0.51,0.72-0.8c0.93-1.23,1.45-2.66,1.87-4.13c0.71-2.54,0.9-5.13,0.83-7.76
			C20.47,12,20.12,9.63,19.3,7.35c-0.47-1.33-1.07-2.59-2.12-3.59C16.15,2.78,15,2.78,13.95,3.76c-0.84,0.79-1.39,1.77-1.82,2.82
			C10.97,9.4,10.57,12.36,10.59,15.67z M34.46,46.62c0.02,0.55,0.27,0.86,0.75,0.87c0.87,0.02,1.74,0.02,2.61,0
			c0.48-0.01,0.73-0.32,0.75-0.87C37.21,46.62,35.86,46.62,34.46,46.62z"/>
		<path d="M6.71,11.66c-0.21-0.28-0.38-0.51-0.56-0.74c-0.52-0.67-1.21-0.64-1.77,0C4.06,11.29,3.7,11.7,3.26,11.9
			c-0.79,0.37-1.59,0.06-2.18-0.64c-0.27-0.31-0.61-0.56-0.92-0.84c-0.07-0.06-0.15-0.16-0.15-0.24C0,9.78,0.01,9.38,0.01,8.95
			c0.93-0.02,1.54,0.41,2.04,1.07c0.52,0.69,0.64,0.7,1.15,0c0.56-0.76,1.3-1.15,2.23-1.11c1.14,0.05,1.8,0.8,2.33,1.7
			c0.04,0.07-0.04,0.29-0.13,0.36C7.36,11.21,7.06,11.4,6.71,11.66z"/>
		<path d="M0,13.88c0.92-0.01,1.52,0.4,2.02,1.04c0.57,0.74,0.63,0.74,1.22-0.02c1.13-1.46,3.03-1.44,4.13,0.05
			c0.64,0.88,0.64,0.66-0.19,1.29c-0.13,0.1-0.28,0.19-0.46,0.32c-0.17-0.22-0.32-0.42-0.46-0.62c-0.6-0.81-1.29-0.8-1.92-0.02
			c-0.29,0.36-0.66,0.72-1.07,0.9c-0.78,0.35-1.57,0.05-2.15-0.61c-0.28-0.32-0.64-0.58-0.95-0.88c-0.08-0.07-0.14-0.19-0.14-0.3
			C-0.01,14.68,0,14.3,0,13.88z"/>
		<path d="M6.71,21.52c-0.23-0.31-0.38-0.53-0.55-0.74c-0.52-0.67-1.21-0.64-1.77,0c-0.33,0.38-0.69,0.78-1.13,0.99
			c-0.79,0.37-1.6,0.06-2.18-0.63c-0.27-0.31-0.61-0.56-0.92-0.84c-0.07-0.06-0.15-0.15-0.15-0.24C0,19.64,0.01,19.24,0.01,18.81
			c0.9-0.02,1.51,0.39,2.01,1.03c0.58,0.75,0.66,0.76,1.21,0c0.55-0.74,1.29-1.11,2.2-1.07c1.14,0.05,1.8,0.8,2.34,1.7
			c0.04,0.07,0.01,0.25-0.05,0.3C7.4,21.03,7.07,21.26,6.71,21.52z"/>
		<path d="M39.35,35.96c0,0.65-0.01,1.3,0,1.95c0.01,0.32-0.08,0.47-0.43,0.46c-1.36-0.03-1.11,0.16-1.12-1.09
			c-0.01-1.08,0.01-2.15-0.01-3.23c-0.01-0.39,0.08-0.55,0.51-0.54c1.24,0.04,1.03-0.15,1.05,1.07
			C39.35,35.04,39.35,35.5,39.35,35.96z"/>
		<path d="M37.79,40.84c0-0.74,0-0.74,0.85-0.74c0.7,0,0.7,0,0.7,0.84c0,0.71,0,0.71-0.88,0.71C37.79,41.65,37.79,41.65,37.79,40.84
			z"/>
		<path d="M11.51,15.47c0.1-2.74,0.26-5.44,1.31-7.98c0.25-0.61,0.58-1.21,0.99-1.72c1.06-1.33,2.47-1.3,3.55,0.02
			c0.83,1.02,1.24,2.24,1.54,3.48c0.71,2.93,0.84,5.9,0.55,8.9c-0.19,1.98-0.52,3.93-1.4,5.73c-0.24,0.48-0.55,0.95-0.91,1.35
			c-0.94,1.02-2.17,1.01-3.14,0.01c-0.7-0.71-1.09-1.61-1.41-2.53c-0.61-1.79-0.88-3.64-0.99-5.52
			C11.57,16.62,11.54,16.02,11.51,15.47z M18.08,15.44c0.04-0.01,0.09-0.01,0.13-0.02c-0.18-1.64-0.32-3.29-0.57-4.92
			c-0.2-1.28-0.57-2.54-1.32-3.63c-0.52-0.75-1.03-0.77-1.5,0.01c-0.38,0.62-0.72,1.29-0.91,1.99c-1.15,4.02-1.13,8.09-0.26,12.16
			c0.23,1.07,0.57,2.11,1.24,3.01c0.46,0.61,0.92,0.62,1.35-0.01c0.32-0.47,0.6-1,0.8-1.54C17.87,20.22,18.11,17.85,18.08,15.44z"/>
	</g>
</g>
</svg>
