<?xml version="1.0" encoding="utf-8"?>
<!-- Generator: Adobe Illustrator 26.0.2, SVG Export Plug-In . SVG Version: 6.00 Build 0)  -->
<svg version="1.1" id="Layer_1" xmlns="http://www.w3.org/2000/svg" xmlns:xlink="http://www.w3.org/1999/xlink" x="0px" y="0px"
	 viewBox="0 0 50 55" style="enable-background:new 0 0 50 55;" xml:space="preserve">
<g>
	<g>
		<path d="M28.55,0c0.3,0.04,0.59,0.1,0.89,0.13c2.61,0.23,5.22,0.42,7.83,0.68c1.32,0.13,2.29,1.27,2.29,2.62
			c0,0.49,0.16,0.7,0.64,0.78c0.49,0.08,0.98,0.21,1.46,0.34c0.67,0.19,1.23,0.57,1.52,1.19c0.25,0.55,0.65,0.65,1.16,0.75
			c1.57,0.33,3.14,0.67,4.69,1.07c0.99,0.26,1.14,0.58,0.87,1.57c-1.06,3.87-2.63,7.55-4.44,11.12c-0.3,0.6-0.42,1.16-0.34,1.84
			c0.15,1.18,0.18,2.38,0.25,3.58c0.15,2.64,0.29,5.28,0.42,7.91c0.05,0.93,0.09,1.86,0.11,2.78c0.09,3.05,0.16,6.11,0.25,9.16
			c0.02,0.88,0.03,1.75,0.1,2.62c0.01,0.2,0.16,0.48,0.33,0.58c1.68,0.98,2.19,3.62,0.96,5.13c-0.62,0.77-1.48,1.03-2.43,1.03
			c-3.13,0-6.26,0-9.39,0c-8.67,0-17.34,0-26.02,0c-1.12,0-2.08-0.36-2.68-1.37c-0.95-1.61-0.36-3.84,1.24-4.81
			c0.14-0.08,0.25-0.29,0.27-0.45c0.06-0.44,0.07-0.89,0.08-1.34c0.08-2.93,0.16-5.86,0.25-8.79c0.01-0.4-0.13-0.66-0.42-0.91
			c-1.88-1.65-3.75-3.31-5.61-4.99c-1.74-1.57-2.76-3.52-2.78-5.88c-0.04-5.15-0.04-10.3,0.01-15.45c0.02-2.02,1.8-3.86,3.8-4.11
			c0.49-0.06,1-0.09,1.49-0.1c1.57-0.01,3.15-0.03,4.72,0.01c0.71,0.02,1.23-0.02,1.48-0.86c0.19-0.65,0.79-1.04,1.45-1.26
			c0.25-0.09,0.51-0.17,0.77-0.21c0.87-0.12,1.48-0.29,1.54-1.46c0.06-1.22,1.12-1.96,2.34-2.14c2.65-0.39,5.31-0.63,7.99-0.67
			c0.19,0,0.38-0.08,0.57-0.12C26.97,0,27.76,0,28.55,0z M27.37,48.52c5.51,0,11.01-0.01,16.52,0.01c0.52,0,0.72-0.13,0.7-0.69
			c-0.1-2.27-0.14-4.54-0.22-6.8c-0.1-2.78-0.2-5.57-0.32-8.35c-0.12-2.69-0.25-5.39-0.43-8.07c-0.22-3.22-0.46-6.44-0.75-9.65
			c-0.24-2.59-0.57-5.17-0.87-7.76c-0.07-0.6-0.38-0.98-1.02-1.14C37.07,5.07,33.1,4.63,29.1,4.6c-2.76-0.02-5.54,0.08-8.29,0.33
			c-2.32,0.21-4.61,0.72-6.91,1.09c-0.73,0.12-1.07,0.57-1.16,1.27c-0.21,1.75-0.47,3.5-0.64,5.25c-0.28,2.79-0.54,5.57-0.75,8.36
			c-0.22,2.9-0.38,5.81-0.55,8.71c-0.13,2.28-0.24,4.57-0.31,6.85c-0.13,3.75-0.23,7.5-0.33,11.25c-0.02,0.8-0.01,0.8,0.79,0.8
			C16.42,48.52,21.89,48.52,27.37,48.52z M27.37,53.26c5.83,0,11.66,0,17.48,0c0.2,0,0.39,0.01,0.59-0.01
			c0.59-0.07,0.99-0.46,1.06-1.03c0.13-1.08-0.08-1.75-0.65-1.99c-0.18-0.07-0.38-0.1-0.57-0.12c-0.14-0.02-0.29-0.01-0.43-0.01
			c-11.66,0-23.31,0-34.97,0c-0.28,0-0.59,0-0.84,0.1c-0.23,0.09-0.49,0.27-0.61,0.48c-0.75,1.27,0.01,2.58,1.46,2.59
			C15.71,53.26,21.54,53.26,27.37,53.26z M8.9,35.45c0.06-0.84,0.07-1.53,0.16-2.22c0.06-0.53-0.14-0.86-0.53-1.19
			c-1.13-0.97-2.22-1.97-3.34-2.95c-0.94-0.83-1.41-1.84-1.4-3.11c0.02-4.77,0.01-9.55,0.01-14.32c0-0.92,0.21-1.12,1.14-1.12
			c1.63,0,3.25,0,4.88,0c0.86,0,0.86,0,0.96-0.84c0.03-0.27,0.04-0.54,0.11-0.79c0.12-0.48-0.08-0.58-0.52-0.58
			C8.54,8.34,6.72,8.33,4.9,8.33c-2.04,0-3.31,1.26-3.31,3.31c-0.01,4.7-0.01,9.4,0,14.11c0.01,2.15,0.8,3.96,2.43,5.39
			c1.46,1.29,2.92,2.58,4.38,3.88C8.52,35.14,8.66,35.25,8.9,35.45z M9.08,30.36c0.45-6.14,0.89-12.14,1.33-18.14
			c-1.66,0-3.29,0-4.99,0c0,0.26,0,0.49,0,0.72c0,4.18,0.04,8.36-0.02,12.54c-0.02,1.17,0.32,2.02,1.23,2.73
			C7.46,28.86,8.21,29.59,9.08,30.36z M37.88,3.73c0.07-0.79-0.2-1.18-0.89-1.3c-2.84-0.5-5.7-0.68-8.58-0.72
			c-2.14-0.03-4.29,0.07-6.42,0.21C20.57,2,19.16,2.23,17.75,2.43c-0.67,0.09-0.97,0.55-0.87,1.3C23.86,2.66,30.85,2.65,37.88,3.73z
			 M44.8,17.63c0.81-1.03,3.31-7.56,3.32-8.68c-1.41-0.3-2.84-0.61-4.34-0.93C44.13,11.28,44.46,14.4,44.8,17.63z"/>
		<path d="M23.74,27.45c0-4.43-0.01-8.87,0-13.3c0.01-1.75,1.11-3.11,2.8-3.53c2.07-0.52,4.22,0.97,4.44,3.09
			c0.05,0.51,0.08,1.03,0.08,1.55c0.01,8.33,0,16.66,0,25c0,1.5-0.43,2.8-1.78,3.62c-1.17,0.71-2.41,0.76-3.62,0.11
			c-1.21-0.64-1.91-1.67-1.92-3.06C23.73,36.43,23.74,31.94,23.74,27.45C23.74,27.45,23.74,27.45,23.74,27.45z M25.32,27.49
			c0,4.22,0,8.44,0.01,12.66c0,0.42,0.02,0.87,0.14,1.27c0.3,0.97,1.22,1.47,2.29,1.33c0.92-0.13,1.62-1,1.67-2.08
			c0.04-0.99,0.04-0.99-0.92-1c-0.63-0.01-0.99-0.3-1-0.79c0-0.49,0.38-0.82,0.98-0.84c0.94-0.03,0.94-0.03,0.94-0.97
			c0-0.05,0-0.11,0-0.16c0-0.95,0-0.95-0.95-1c-0.59-0.03-0.98-0.38-0.96-0.86c0.01-0.47,0.37-0.76,0.96-0.77
			c0.96-0.01,0.96,0.12,0.95-0.97c0-0.04,0-0.07,0-0.11c0-1.08,0-1.08-1.06-1.14c-0.05,0-0.11,0-0.16-0.01
			c-0.41-0.06-0.7-0.32-0.67-0.7c0.03-0.28,0.26-0.61,0.49-0.79c0.18-0.14,0.52-0.14,0.78-0.12c0.52,0.05,0.68-0.18,0.62-0.65
			c-0.01-0.12,0-0.25,0-0.38c0-1.06,0-1.06-1.05-1.12c-0.53-0.03-0.87-0.37-0.86-0.84c0.01-0.45,0.35-0.76,0.85-0.79
			c1.06-0.07,1.06-0.07,1.06-1.17c0-0.91,0-0.91-0.88-0.97c-0.07-0.01-0.14-0.01-0.21-0.03c-0.55-0.1-0.86-0.43-0.82-0.88
			c0.03-0.45,0.38-0.72,0.95-0.72c0.99-0.01,0.97,0.08,0.96-0.96c0-0.05,0-0.11,0-0.16c0-1.04,0-1.05-1.05-1.08
			c-0.48-0.02-0.78-0.24-0.86-0.71c-0.07-0.42,0.26-0.82,0.73-0.9c0.24-0.04,0.5-0.03,0.75-0.02c0.3,0.01,0.43-0.11,0.42-0.4
			c-0.01-0.16,0.01-0.32,0-0.48c-0.02-0.39,0.05-0.84-0.13-1.14c-0.1-0.17-0.62-0.08-0.95-0.11c-0.5-0.05-0.85-0.43-0.83-0.88
			c0.03-0.44,0.37-0.73,0.88-0.75c0.07,0,0.14,0,0.21,0c0.83-0.01,0.83-0.01,0.82-0.83c0-0.11,0-0.22-0.01-0.32
			c-0.11-1.04-0.81-1.84-1.7-1.93c-1.07-0.12-1.94,0.37-2.24,1.32c-0.13,0.4-0.15,0.84-0.15,1.27
			C25.32,19.02,25.32,23.25,25.32,27.49z"/>
	</g>
</g>
</svg>
