<?xml version="1.0" encoding="utf-8"?>
<!-- Generator: Adobe Illustrator 26.0.2, SVG Export Plug-In . SVG Version: 6.00 Build 0)  -->
<svg version="1.1" id="Layer_1" xmlns="http://www.w3.org/2000/svg" xmlns:xlink="http://www.w3.org/1999/xlink" x="0px" y="0px"
	 viewBox="0 0 50 53" style="enable-background:new 0 0 50 53;" xml:space="preserve">
<g>
	<g>
		<path d="M16.32,11.2c-0.24-0.89-0.1-1.64,0.38-2.33c0.06-0.08,0-0.29-0.07-0.4c-0.36-0.54-0.48-1.14-0.47-1.77
			c0.02-1.04-0.04-2.09,0.08-3.12c0.16-1.28,1.09-2.06,2.4-2.06c4.78-0.02,9.56-0.02,14.33,0c1.37,0.01,2.32,0.84,2.44,2.25
			c0.1,1.23,0.03,2.48-0.05,3.72c-0.03,0.42-0.45,0.83-0.45,1.24c0,0.4,0.36,0.78,0.45,1.19c0.08,0.38,0.02,0.79,0.02,1.23
			c0.57,0,1.14,0,1.79,0c0-0.21,0-0.41,0-0.6c0-2.36,0-4.71,0-7.07c0-1.36,0.62-1.98,1.96-1.98c1.9,0,3.8,0,5.7,0
			c1.31,0,1.94,0.63,1.94,1.96c0,2.36,0,4.71,0,7.07c0,0.2,0,0.4,0,0.62c0.39,0.03,0.75,0.03,1.09,0.09
			c1.37,0.24,2.11,1.12,2.14,2.51c0,0.07,0,0.13,0,0.2c0,11.59,0.01,23.18-0.02,34.77c0,0.55-0.15,1.15-0.4,1.63
			c-0.46,0.88-1.32,1.14-2.27,1.14c-4.96,0-9.93,0-14.89,0c-5.57,0-11.14,0-16.7,0c-1.8,0-2.78-0.98-2.79-2.77c0-1.11,0-2.22,0-3.33
			c0-0.27-0.03-0.44-0.38-0.43c-2.64,0.14-5.05-0.59-7.23-2.07c-2.17-1.47-3.69-3.45-4.59-5.92c-0.03-0.09-0.04-0.21-0.11-0.28
			c-0.77-0.82-0.62-1.83-0.62-2.82c0-1.03-0.04-2.05,0.02-3.08c0.03-0.44,0.26-0.88,0.42-1.31c0.07-0.2,0.21-0.38,0.28-0.58
			c1.78-4.52,5.09-7.14,9.87-7.92c0.59-0.1,1.21-0.1,1.81-0.07c0.39,0.02,0.54-0.05,0.53-0.47c-0.02-2.19-0.02-4.37,0-6.56
			c0-0.36,0.05-0.74,0.16-1.09c0.3-0.97,1.19-1.58,2.32-1.62C15.69,11.19,15.95,11.2,16.32,11.2z M21.81,25.69
			c0.01-0.01,0.05-0.01,0.07-0.03c0.09-0.1,0.17-0.2,0.26-0.31c2.67-3.14,6.05-4.63,10.19-4.38c2.76,0.17,5.16,1.2,7.19,3.05
			c3.06,2.8,4.35,6.33,3.9,10.44c-0.27,2.43-1.27,4.58-2.91,6.42c-0.21,0.24-0.27,0.46-0.2,0.77c0.23,0.94,0.43,1.9,0.67,2.84
			c0.24,0.94,0.11,1.81-0.55,2.54c-0.97,1.09-3.62,1.92-4.97,0.21c-0.2-0.25-0.37-0.21-0.6-0.05c-0.4,0.28-0.8,0.56-1.23,0.79
			c-1.16,0.63-2.52-0.01-2.86-1.29c-0.06-0.23-0.29-0.5-0.51-0.59c-1.18-0.48-2.36-0.43-3.51,0.13c-0.55,0.27-1.1,0.54-1.72,0.84
			c0-0.25-0.01-0.4,0-0.55c0.07-0.95,0.15-1.91,0.19-2.86c0.01-0.18-0.09-0.46-0.23-0.55c-1.18-0.78-2.19-1.72-3.08-2.82
			c-0.04-0.05-0.11-0.07-0.17-0.12c-0.08,0.08-0.17,0.14-0.23,0.21c-1.75,2.17-3.95,3.62-6.67,4.27c-0.33,0.08-0.41,0.25-0.41,0.56
			c0.02,1.23,0.01,2.46,0.01,3.68c0,0.79,0.26,1.05,1.06,1.05c10.63,0,21.27,0,31.9,0c0.79,0,1.04-0.26,1.04-1.07
			c0-9.71,0-19.42,0-29.12c0-0.18-0.01-0.36-0.02-0.55c-11.34,0-22.64,0-33.98,0c0,0.49,0.03,0.94-0.01,1.39
			c-0.04,0.43,0.14,0.58,0.53,0.67c1.7,0.4,3.23,1.15,4.57,2.26C20.33,24.21,21.04,24.96,21.81,25.69z M4.77,32.94
			c-0.13,3.9,3.25,7.33,7.25,7.36c4.03,0.03,7.37-3.35,7.4-7.28c0.03-4.01-3.37-7.37-7.3-7.39C8.13,25.61,4.67,29,4.77,32.94z
			 M48.45,17.63c0.01-0.21,0.02-0.39,0.02-0.57c0-1.04,0-2.09,0-3.13c0-1-0.2-1.2-1.21-1.2c-10.53,0-21.06,0-31.59,0
			c-0.12,0-0.24,0-0.35,0c-0.53,0.02-0.84,0.32-0.85,0.85c-0.01,0.57,0,1.14,0,1.72c0,0.77,0,1.54,0,2.33
			C25.82,17.63,37.11,17.63,48.45,17.63z M25.69,37.29c0.02-0.13,0.05-0.24,0.06-0.34c0.08-0.88,0.33-1.71,0.84-2.45
			c1.18-1.72,3.05-1.93,4.54-0.47c0.26,0.25,0.47,0.27,0.79,0.14c0.87-0.36,1.73-0.76,2.63-0.99c1.47-0.37,2.8-0.09,3.78,1.2
			c0.05,0.07,0.15,0.1,0.23,0.16c0.82-3.03-0.72-6.76-4.14-8.28c-3.5-1.55-7.57-0.14-9.42,3.2C23.45,32.29,24.23,35.96,25.69,37.29z
			 M30.7,44.66c0-0.3,0-0.5,0-0.69c0-2,0-4,0-6c0-1.04-0.13-0.88,0.91-0.93c0.48-0.02,0.63,0.11,0.63,0.61
			c-0.02,2.79-0.02,5.58,0,8.38c0,0.22,0.11,0.54,0.27,0.63c0.16,0.09,0.48-0.01,0.68-0.12c0.44-0.24,0.86-0.53,1.26-0.84
			c0.12-0.09,0.26-0.3,0.24-0.44c-0.19-1.87-0.4-3.73-0.63-5.6c-0.1-0.82-0.04-0.93,0.76-1c0.03,0,0.07,0,0.1,0
			c0.36-0.05,0.53,0.03,0.57,0.46c0.2,2.09,0.46,4.17,0.68,6.25c0.11,0.99,0.96,1.58,1.92,1.3c0.18-0.05,0.35-0.11,0.53-0.17
			c0.83-0.3,1.11-0.82,0.91-1.69c-0.15-0.64-0.3-1.27-0.45-1.91c-0.52-2.25-1.03-4.51-1.55-6.76c-0.26-1.12-0.91-1.7-2.04-1.56
			c-0.85,0.1-1.68,0.43-2.48,0.74c-1.2,0.46-2.38,1-3.61,1.53c-0.2-0.47-0.38-0.89-0.56-1.32c0.4-0.2,0.74-0.37,1.09-0.55
			c-0.57-0.58-1.28-0.58-1.81-0.03c-0.63,0.65-0.85,1.47-0.92,2.34c-0.17,2.16-0.34,4.32-0.5,6.47c-0.02,0.27,0,0.55,0,0.89
			C28.06,44.21,29.33,44.21,30.7,44.66z M2.39,28.91c0.43,0.05,0.85,0.04,1.22,0.17c0.42,0.14,0.57,0.02,0.77-0.34
			c1.88-3.39,5.42-5.05,9.01-4.5c5,0.76,8.25,5.46,7.35,10.33c-1.09,5.94-7.86,9.06-13.06,6.01c-1.44-0.85-2.56-2-3.36-3.47
			c-0.08-0.14-0.25-0.35-0.36-0.34c-0.52,0.06-1.04,0.18-1.56,0.27c1.13,3.25,5.16,7,10.74,6.43c5.6-0.57,9.17-5.12,9.47-9.8
			c0.36-5.84-3.89-10.6-9.35-11.22C8.11,21.88,3.79,25.13,2.39,28.91z M25.81,7.97c2.39,0,4.78,0,7.16,0c0.66,0,0.95-0.29,0.96-0.95
			c0.01-1.01,0.01-2.02,0-3.03c0-0.66-0.29-0.95-0.95-0.95c-4.78,0-9.55,0-14.33,0c-0.66,0-0.95,0.29-0.96,0.95
			c-0.01,0.98,0,1.95,0,2.93c0,0.8,0.26,1.05,1.05,1.06C21.1,7.97,23.46,7.97,25.81,7.97z M39.76,39.23
			c0.05,0.01,0.1,0.02,0.15,0.03c0.11-0.14,0.23-0.27,0.33-0.42c1.92-2.94,2.32-6.08,1.19-9.39c-1.56-4.54-6.21-7.71-11.5-6.94
			c-2.95,0.43-5.27,1.9-7.03,4.29c-0.09,0.12-0.23,0.3-0.19,0.39c0.23,0.61,0.51,1.21,0.81,1.88c0.14-0.21,0.22-0.32,0.28-0.43
			c1.73-3.1,5.39-5.06,9.32-4.34c5.44,1,8.68,6.99,6.43,12.05C39.08,37.44,39.67,38.28,39.76,39.23z M38.74,3.07
			c0,2.72,0,5.41,0,8.09c0.98,0,1.91,0,2.84,0c0.03-0.04,0.06-0.09,0.09-0.13c-0.62-0.53-1.24-1.06-1.82-1.55
			c0.44-0.49,0.75-0.82,1.09-1.19c0.83,0.83,1.67,1.58,2.4,2.43c0.57,0.66,1.21,0.46,1.85,0.46c0-2.75,0-5.43,0-8.11
			C43.02,3.07,40.89,3.07,38.74,3.07z M25.76,11.2c2.4,0,4.81,0,7.21,0c0.59,0,0.97-0.36,0.95-0.87c-0.01-0.49-0.38-0.83-0.95-0.83
			c-4.79,0-9.58,0-14.37,0c-0.19,0-0.41,0.05-0.57,0.15c-0.36,0.23-0.43,0.61-0.3,0.98c0.13,0.39,0.44,0.56,0.86,0.56
			C20.99,11.2,23.37,11.2,25.76,11.2z M1.57,30.53c0,1.63,0,3.24,0,4.87c0.56,0,1.08,0,1.64,0c0-1.63,0-3.24,0-4.87
			C2.67,30.53,2.15,30.53,1.57,30.53z M23.47,36.97c-0.21,0.46-0.45,0.94-0.63,1.44c-0.07,0.2-0.07,0.53,0.05,0.66
			c0.67,0.77,1.39,1.49,2.1,2.22c0.09,0.09,0.24,0.14,0.42,0.24c0.05-0.67,0.1-1.25,0.14-1.83c0.01-0.1-0.04-0.23-0.11-0.32
			C24.79,38.59,24.15,37.8,23.47,36.97z"/>
		<path d="M40.35,15.96c-0.89,0-1.78-0.02-2.67,0.01c-0.39,0.01-0.54-0.09-0.53-0.51c0.04-1.21-0.14-1.02,1-1.03
			c1.61-0.01,3.22,0.01,4.84-0.01c0.4,0,0.57,0.1,0.55,0.53c-0.04,1.17,0.14,0.99-0.98,1C41.83,15.97,41.09,15.96,40.35,15.96z"/>
		<path d="M33.14,14.43c0.64,0,1.28,0.01,1.91,0c0.3-0.01,0.42,0.1,0.42,0.41c-0.03,1.36,0.15,1.1-1.05,1.12
			c-1.09,0.01-2.18-0.01-3.27,0.01c-0.32,0-0.45-0.1-0.44-0.43c0.03-1.33-0.16-1.07,1.08-1.1C32.23,14.42,32.69,14.43,33.14,14.43z"
			/>
		<path d="M18.58,14.43c0.73,0,0.73,0,0.73,0.84c0,0.69,0,0.69-0.83,0.69c-0.7,0-0.7,0-0.7-0.86
			C17.78,14.43,17.78,14.43,18.58,14.43z"/>
		<path d="M21.83,14.43c0.71,0,0.71,0,0.71,0.86c0,0.67,0,0.67-0.84,0.67c-0.69,0-0.69,0-0.68-0.88
			C21.01,14.43,21.01,14.43,21.83,14.43z"/>
		<path d="M25.77,15.2c0,0.76,0,0.76-0.8,0.76c-0.72,0-0.72,0-0.72-0.84c0-0.69,0-0.69,0.83-0.69
			C25.77,14.43,25.77,14.43,25.77,15.2z"/>
		<path d="M26.97,6.27c-1.53,0-3.06-0.01-4.59,0.01c-0.43,0.01-0.59-0.1-0.58-0.56c0.04-1.13-0.13-0.97,0.96-0.97
			c2.96-0.01,5.91,0.01,8.87-0.01c0.45,0,0.62,0.1,0.6,0.59c-0.05,1.09,0.12,0.94-0.93,0.95C29.86,6.27,28.42,6.27,26.97,6.27z"/>
		<path d="M44.78,8.22c-0.29,0.28-0.61,0.59-0.89,0.86C42.6,7.8,41.31,6.51,40,5.19c0.26-0.25,0.6-0.56,0.9-0.84
			C42.17,5.63,43.47,6.91,44.78,8.22z"/>
	</g>
</g>
</svg>
