<?xml version="1.0" encoding="utf-8"?>
<!-- Generator: Adobe Illustrator 26.0.2, SVG Export Plug-In . SVG Version: 6.00 Build 0)  -->
<svg version="1.1" id="Layer_1" xmlns="http://www.w3.org/2000/svg" xmlns:xlink="http://www.w3.org/1999/xlink" x="0px" y="0px"
	 viewBox="0 0 50 53" style="enable-background:new 0 0 50 53;" xml:space="preserve">
<g>
	<g>
		<path d="M50,26.5c0,6.17,0.01,12.34,0,18.51c-0.01,3.11-1.91,5.57-4.85,6.26c-0.55,0.13-1.13,0.18-1.69,0.18
			c-12.3,0.01-24.6,0.01-36.9,0.01c-3.86,0-6.55-2.7-6.55-6.56C0,32.63,0,20.37,0,8.11c0-3.89,2.69-6.57,6.61-6.57
			c12.26,0,24.52,0,36.78,0c3.94,0,6.61,2.68,6.61,6.62C50,14.28,50,20.39,50,26.5z M47.48,26.56c0-6.15,0-12.3,0-18.45
			c0-2.54-1.52-4.05-4.06-4.05c-12.28,0-24.56,0-36.84,0c-2.54,0-4.06,1.51-4.06,4.05c0,12.26,0,24.52,0,36.78
			c0,2.54,1.52,4.05,4.06,4.06c12.28,0,24.56,0,36.84,0c0.38,0,0.78-0.01,1.15-0.09c1.8-0.41,2.91-1.87,2.91-3.83
			C47.48,38.86,47.48,32.71,47.48,26.56z"/>
		<path d="M10,39.67c0.26-0.24,0.42-0.38,0.57-0.53c2.33-2.32,4.66-4.65,6.98-6.97c0.14-0.14,0.28-0.29,0.44-0.42
			c0.51-0.39,1.17-0.34,1.61,0.09c0.45,0.43,0.52,1.08,0.15,1.61c-0.13,0.18-0.29,0.34-0.45,0.49c-2.31,2.31-4.63,4.62-6.94,6.93
			c-0.16,0.16-0.35,0.27-0.53,0.41c0.03,0.05,0.06,0.11,0.08,0.16c0.17,0.01,0.33,0.04,0.5,0.04c1.97,0,3.94,0,5.91,0
			c0.18,0,0.37-0.01,0.55,0.01c0.64,0.07,1.12,0.6,1.12,1.23c0,0.64-0.47,1.18-1.13,1.21c-0.73,0.04-1.46,0.02-2.19,0.02
			c-2.54,0-5.08,0-7.62,0c-1.1,0-1.53-0.41-1.54-1.49c-0.01-3.16-0.01-6.33,0-9.49c0-0.93,0.48-1.48,1.25-1.47
			C9.53,31.5,10,32.06,10,32.99c0,1.99,0,3.98,0,5.96C10,39.15,10,39.35,10,39.67z"/>
		<path d="M39.79,13.33c-0.14,0.2-0.26,0.42-0.43,0.59c-2.31,2.31-4.62,4.62-6.94,6.93c-0.17,0.17-0.35,0.35-0.55,0.47
			c-0.5,0.31-1.1,0.22-1.51-0.2c-0.41-0.41-0.49-1.02-0.17-1.51c0.13-0.2,0.31-0.38,0.48-0.55c2.33-2.33,4.65-4.65,6.98-6.97
			c0.15-0.15,0.3-0.31,0.55-0.58c-0.33,0-0.52,0-0.71,0c-2.01,0-4.02,0-6.04,0c-0.88,0-1.43-0.47-1.45-1.22
			c-0.02-0.77,0.53-1.25,1.46-1.26c3.19,0,6.38-0.01,9.57,0c1.01,0,1.44,0.44,1.44,1.45c0.01,3.18,0.01,6.37,0,9.55
			c0,0.9-0.47,1.43-1.22,1.44C40.49,21.52,40,20.95,40,20.04c0-2.19,0-4.37,0-6.56C39.93,13.43,39.86,13.38,39.79,13.33z"/>
	</g>
</g>
</svg>
