<?xml version="1.0" encoding="utf-8"?>
<!-- Generator: Adobe Illustrator 26.0.2, SVG Export Plug-In . SVG Version: 6.00 Build 0)  -->
<svg version="1.1" id="Layer_1" xmlns="http://www.w3.org/2000/svg" xmlns:xlink="http://www.w3.org/1999/xlink" x="0px" y="0px"
	 viewBox="0 0 50 91" style="enable-background:new 0 0 50 91;" xml:space="preserve">
<g>
	<g>
		<path d="M0,43.74C0,32.43,0,21.12,0,9.81c0-4.27,2.98-7.32,7.27-7.33c11.82-0.02,23.64-0.02,35.46,0C47.03,2.49,50,5.54,50,9.82
			c0,22.62,0,45.24,0,67.86c0,3.22-1.46,5.53-4.45,6.81c-0.51,0.22-0.69,0.51-0.66,1.03c0.03,0.45,0.01,0.91,0,1.36
			c-0.03,1.48-1,2.58-2.46,2.62c-2.27,0.06-4.55,0.06-6.82,0c-1.49-0.03-2.5-1.16-2.53-2.66c-0.04-1.81-0.04-1.81-1.87-1.81
			c-4.46,0-8.92,0.01-13.38-0.01c-0.69,0-0.97,0.18-0.93,0.9c0.03,0.58,0.02,1.21-0.15,1.76c-0.33,1.11-1.12,1.8-2.3,1.82
			c-2.33,0.04-4.66,0.05-6.99-0.01c-1.33-0.03-2.44-1.13-2.32-2.45c0.14-1.57-0.34-2.42-1.83-3.18c-2.26-1.15-3.3-3.31-3.31-5.85
			C-0.01,66.58,0,55.16,0,43.74z M25,36.46c-7.08,0-14.15,0-21.23,0c-1.31,0-1.32,0-1.32,1.32c0,11.74,0,23.48,0,35.21
			c0,1.62-0.02,3.24,0.01,4.86c0.05,3.12,2.57,4.65,4.72,4.63c11.88-0.07,23.76-0.03,35.64-0.04c0.48,0,0.97-0.01,1.43-0.14
			c2.11-0.58,3.3-2.32,3.3-4.79c0-13.27,0-26.55,0-39.82c0-1.23,0-1.23-1.23-1.23C39.21,36.46,32.11,36.46,25,36.46z M24.95,34.01
			c7.19,0,14.38-0.01,21.57,0.02c0.8,0,1.04-0.25,1.03-1.02c-0.03-2.87-0.01-5.74-0.01-8.61c0-4.8-0.03-9.6,0.01-14.41
			c0.02-3.32-2.4-5-4.99-4.98C30.76,5.1,18.97,5.05,7.18,5.05c-0.48,0-0.97,0.01-1.43,0.14C3.66,5.77,2.46,7.5,2.46,9.9
			c-0.01,7.64,0,15.29,0,22.93c0,1.17,0.01,1.18,1.18,1.18C10.74,34.01,17.84,34.01,24.95,34.01z M11.1,85.03
			c-0.96,0-1.93,0.03-2.89-0.01c-0.72-0.03-0.7,0.44-0.65,0.9c0.05,0.44-0.29,1.12,0.59,1.13c1.9,0.01,3.8,0,5.7,0.01
			c0.81,0,0.61-0.59,0.62-1.03c0.01-0.45,0.16-1.02-0.64-1C12.92,85.05,12.01,85.03,11.1,85.03z M38.99,87.05
			c0.94,0,1.87-0.02,2.81,0.01c0.72,0.02,0.7-0.45,0.65-0.91c-0.05-0.43,0.3-1.12-0.59-1.12c-1.9,0-3.8,0.01-5.7,0
			c-0.81-0.01-0.61,0.59-0.62,1.02c-0.01,0.45-0.15,1.02,0.64,1C37.11,87.03,38.05,87.05,38.99,87.05z"/>
		<path d="M12.49,53.11c0,2.98,0,5.96,0,8.94c0,1.48-0.7,2.17-2.19,2.18c-0.77,0-1.53,0.01-2.3,0c-1.19-0.03-2.01-0.78-2.02-1.96
			c-0.02-6.16-0.02-12.32,0-18.48c0-1.08,0.81-1.88,1.88-1.92c0.91-0.04,1.82-0.03,2.72,0c1.17,0.04,1.9,0.79,1.9,1.96
			C12.5,46.92,12.49,50.01,12.49,53.11z M10.05,53.03c0-2.61-0.01-5.22,0.01-7.83c0.01-0.6-0.18-0.88-0.82-0.88
			c-0.78-0.01-0.77,0.49-0.77,1.02c0,5.14,0,10.27,0,15.41c0,0.55,0.02,1.01,0.79,1.01c0.83,0.01,0.8-0.49,0.8-1.07
			C10.05,58.14,10.05,55.59,10.05,53.03z"/>
		<path d="M12.49,19.51c0,2.33,0.01,4.66,0,6.99c0,1.43-0.66,2.09-2.07,2.11c-0.82,0.01-1.65,0.01-2.47,0
			c-1.17-0.02-1.96-0.73-1.97-1.89c-0.02-4.8-0.02-9.6,0-14.4c0-1.08,0.74-1.83,1.8-1.87c0.96-0.04,1.93-0.04,2.89,0
			c1.15,0.05,1.81,0.75,1.81,1.92C12.5,14.74,12.49,17.12,12.49,19.51z M10.05,19.62c0-1.98-0.01-3.97,0.01-5.95
			c0.01-0.59-0.21-0.78-0.79-0.79c-0.61-0.01-0.8,0.23-0.79,0.79c0.01,3.88,0.01,7.77,0,11.65c0,0.58,0.19,0.87,0.84,0.85
			c0.64-0.02,0.75-0.32,0.74-0.86C10.04,23.42,10.05,21.52,10.05,19.62z"/>
	</g>
</g>
</svg>
