<?xml version="1.0" encoding="utf-8"?>
<!-- Generator: Adobe Illustrator 26.0.2, SVG Export Plug-In . SVG Version: 6.00 Build 0)  -->
<svg version="1.1" id="Layer_1" xmlns="http://www.w3.org/2000/svg" xmlns:xlink="http://www.w3.org/1999/xlink" x="0px" y="0px"
	 viewBox="0 0 50 49" style="enable-background:new 0 0 50 49;" xml:space="preserve">
<g>
	<g>
		<path d="M25.32,1.55c0.4,0.07,0.79,0.14,1.19,0.22c0.13,0.02,0.25,0.05,0.38,0.09c1.57,0.47,2.01,1.38,1.39,2.91
			c-0.08,0.2-0.18,0.41-0.28,0.64c0.88,0.2,1.71,0.35,2.52,0.58c4.9,1.34,8.82,4.09,11.77,8.21c0.14,0.2,0.28,0.47,0.26,0.7
			c-0.02,0.19-0.27,0.46-0.45,0.49c-0.23,0.04-0.56-0.07-0.72-0.23c-0.41-0.44-0.73-0.96-1.12-1.42c-3.19-3.79-7.23-6.14-12.11-6.9
			C17.53,5.16,7.88,12.04,5.67,22.22c-0.18,0.82-0.23,1.67-0.36,2.5c-0.05,0.33,0.09,0.41,0.37,0.41c0.65,0,1.3,0,1.96,0
			c0.52,0.01,0.75,0.2,0.76,0.62c0.01,0.43-0.25,0.68-0.76,0.68c-1.73,0.01-3.45,0-5.18,0c-0.81,0-1.02,0.21-1.02,1
			c0,1.28,0.1,1.39,1.38,1.39c14.81,0,29.62,0,44.43,0c0.16,0,0.33,0,0.49,0c0.71-0.04,0.91-0.26,0.91-0.97
			c0.01-1.34-0.07-1.41-1.39-1.41c-11.88,0-23.75,0-35.63,0c-0.18,0-0.37,0.02-0.54-0.02c-0.35-0.09-0.59-0.32-0.55-0.7
			c0.03-0.33,0.24-0.57,0.61-0.58c0.2-0.01,0.39-0.01,0.59-0.01c10.72,0,21.44,0,32.16,0c0.16,0,0.33-0.01,0.49,0
			c0.31,0.01,0.41-0.1,0.38-0.44c-0.16-2.21-0.73-4.32-1.61-6.35c-0.04-0.09-0.08-0.18-0.12-0.27c-0.15-0.41-0.03-0.79,0.32-0.91
			c0.39-0.13,0.71-0.03,0.89,0.37c0.83,1.81,1.41,3.7,1.69,5.68c0.07,0.51,0.15,1.03,0.19,1.55c0.02,0.28,0.15,0.37,0.4,0.37
			c0.41,0,0.82,0.03,1.22,0c1.16-0.1,2.15,0.66,2.26,1.93c0.05,0.54,0.02,1.11-0.11,1.64c-0.21,0.87-1.07,1.45-2.04,1.45
			c-1.74,0.01-3.49,0-5.23,0c-0.18,0-0.36,0-0.6,0c0.01,0.24,0.02,0.44,0.03,0.64c0.05,0.71-0.14,1.32-0.69,1.8
			c-1.42,1.25-2.83,2.5-4.24,3.76c-1.58,1.4-3.39,2.36-5.42,2.9c-1.47,0.39-2.95,0.77-4.44,1.08c-1.47,0.31-2.94,0.17-4.41-0.06
			c-1.9-0.3-3.81-0.49-5.72-0.04c-0.98,0.23-1.8,0.72-2.53,1.61c0.14,0.08,0.27,0.13,0.36,0.22c0.71,0.69,0.83,1.66,0.3,2.49
			c-0.45,0.7-0.91,1.39-1.4,2.06c-0.69,0.95-1.8,1.1-2.84,0.4c-2.29-1.55-4.58-3.11-6.87-4.67c-0.74-0.5-1.48-1-2.22-1.51
			c-1.06-0.73-1.28-1.8-0.57-2.88c0.43-0.65,0.87-1.3,1.32-1.94c0.53-0.75,1.43-1.04,2.29-0.69c0.34,0.14,0.52,0.07,0.73-0.2
			c0.92-1.14,1.86-2.27,2.79-3.4c0.44-0.54,0.88-1.08,1.32-1.63c0.06,0.03,0.12,0.06,0.18,0.1c-0.16-0.01-0.33-0.03-0.49-0.03
			c-2.31,0-4.63,0-6.94,0c-1.42,0-2.02-0.44-2.46-1.8C0.07,28.31,0.03,28.28,0,28.24c0-0.39,0-0.78,0-1.17
			c0.04-0.1,0.1-0.21,0.12-0.31c0.25-1.03,0.97-1.6,2.03-1.62c0.44-0.01,0.88-0.01,1.32,0c0.31,0.01,0.47-0.08,0.49-0.44
			c0.03-0.57,0.11-1.13,0.2-1.69c0.63-3.77,2.13-7.16,4.59-10.09c3.17-3.79,7.17-6.22,12.02-7.23c0.42-0.09,0.84-0.18,1.3-0.27
			c-0.1-0.22-0.16-0.37-0.23-0.51c-0.73-1.65-0.19-2.73,1.56-3.11c0.05-0.01,0.1-0.01,0.15-0.02c0.4-0.07,0.79-0.15,1.19-0.22
			C24.93,1.55,25.13,1.55,25.32,1.55z M6.5,36.23c0.15,0.12,0.26,0.22,0.38,0.3c2.09,1.42,4.18,2.83,6.26,4.26
			c0.27,0.18,0.43,0.18,0.65-0.07c0.87-0.95,1.95-1.55,3.21-1.83c1.56-0.34,3.13-0.3,4.71-0.11c0.94,0.11,1.87,0.27,2.8,0.34
			c2.97,0.21,5.71-0.74,8.44-1.72c1.69-0.6,3.02-1.77,4.32-2.97c1.04-0.96,2.12-1.88,3.17-2.83c0.34-0.31,0.38-0.86,0.12-1.2
			c-0.29-0.38-0.66-0.28-1.01-0.11c-0.17,0.09-0.34,0.19-0.5,0.3c-1.13,0.74-2.27,1.47-3.38,2.25c-0.65,0.45-1.35,0.74-2.1,0.99
			c-2.18,0.71-4.38,1.21-6.69,1.12c-0.41-0.02-0.76-0.09-0.87-0.54c-0.1-0.44,0.19-0.65,0.52-0.83c0.66-0.35,1.33-0.69,1.98-1.06
			c0.51-0.29,0.7-0.83,0.5-1.34c-0.19-0.5-0.69-0.77-1.27-0.66c-1.72,0.35-3.43,0.73-5.15,1.05c-0.61,0.11-1.26,0.23-1.86,0.12
			c-1.04-0.18-2.04-0.53-3.06-0.79c-1.01-0.26-2-0.61-3.03-0.72c-1.5-0.16-2.89,0.39-4.02,1.35c-0.89,0.75-1.61,1.69-2.38,2.57
			C7.65,34.78,7.09,35.5,6.5,36.23z M4.2,36.44c-0.19,0.16-0.4,0.28-0.54,0.47c-0.41,0.57-0.79,1.15-1.18,1.74
			c-0.32,0.49-0.26,0.79,0.2,1.11c0.74,0.51,1.48,1.01,2.22,1.51c2.25,1.53,4.49,3.06,6.74,4.58c0.61,0.41,0.86,0.36,1.28-0.25
			c0.37-0.54,0.74-1.07,1.09-1.62c0.32-0.48,0.26-0.79-0.21-1.12c-3.01-2.05-6.03-4.1-9.05-6.14C4.62,36.62,4.43,36.55,4.2,36.44z
			 M37.05,30.2c-2.32,0-4.62,0-6.85,0c0.06,0.61,0.23,1.2,0.14,1.75c-0.08,0.54-0.42,1.04-0.65,1.58
			C32.33,32.87,34.98,32.23,37.05,30.2z M25.03,5.24c0.18,0.01,0.38,0,0.57,0.04c0.61,0.12,1-0.19,1.27-0.68
			c0.14-0.25,0.26-0.53,0.29-0.81c0.02-0.16-0.12-0.44-0.25-0.49c-1.26-0.47-2.54-0.47-3.8,0C23,3.34,22.87,3.53,22.87,3.66
			c-0.04,0.88,0.75,1.65,1.61,1.61C24.66,5.26,24.84,5.25,25.03,5.24z M22.15,30.19c-0.5,0-1.01,0-1.62,0
			C21.14,30.6,21.64,30.45,22.15,30.19z"/>
	</g>
</g>
</svg>
