<?xml version="1.0" encoding="utf-8"?>
<!-- Generator: Adobe Illustrator 26.0.2, SVG Export Plug-In . SVG Version: 6.00 Build 0)  -->
<svg version="1.1" id="Layer_1" xmlns="http://www.w3.org/2000/svg" xmlns:xlink="http://www.w3.org/1999/xlink" x="0px" y="0px"
	 viewBox="0 0 50 53" style="enable-background:new 0 0 50 53;" xml:space="preserve">
<g>
	<g>
		<path d="M46.08,43.39c0.7,0,1.29,0,1.88,0c0.86,0,1.18,0.32,1.19,1.16c0,0.94,0.01,1.87,0,2.81c-0.01,0.78-0.34,1.11-1.12,1.12
			c-0.9,0.01-0.76-0.16-1.02,0.8c-0.15,0.57-0.29,1.15-0.43,1.72c-0.19,0.74-0.43,0.93-1.21,0.93c-0.94,0-1.87,0-2.81,0
			c-8.84,0-17.67,0-26.51-0.01c-0.36,0-0.72-0.16-1.08-0.23c-0.17-0.03-0.34-0.04-0.51-0.02c-0.64,0.08-1.27,0.24-1.91,0.25
			c-2.68,0.03-5.36,0.01-8.04,0.01c-1.52,0-2.82-0.47-3.74-1.76c-0.55-0.76-0.75-1.63-0.75-2.54C0,42.19,0,36.73,0.01,31.28
			c0-2.42,1.51-4.02,4.01-4.3c0.91-0.1,1.37-0.73,1.16-1.61c-0.03-0.11-0.15-0.24-0.27-0.29c-0.43-0.18-0.58-0.52-0.58-0.95
			c-0.01-1.03-0.02-2.05,0-3.08c0.01-0.65,0.36-0.99,1.03-0.99c2.16-0.01,4.32-0.01,6.48,0c0.69,0,1.02,0.35,1.03,1.04
			c0.01,1.01,0.04,2.02-0.02,3.02c-0.02,0.3-0.2,0.76-0.43,0.85c-0.6,0.24-0.42,0.7-0.39,1.08c0.04,0.47,0.36,0.79,0.82,0.89
			c0.58,0.12,1.17,0.17,1.84,0.27c0-0.21,0-0.42,0-0.62c0-2.7-0.01-5.4,0-8.1c0.01-1.44,0.36-2.77,1.28-3.92
			c0.85-1.06,1.92-1.79,3.25-2.07c0.53-0.11,0.7-0.33,0.66-0.86c-0.05-0.55-0.01-1.12-0.01-1.67c0-0.48,0.11-0.88,0.62-1.09
			c0.11-0.04,0.23-0.2,0.23-0.3c0.02-1.07,0.01-2.15,0.01-3.3c-1.04,0-2.02,0-3.01,0c-1.04,0-1.31-0.27-1.31-1.31
			c0-0.41-0.02-0.83,0.05-1.24c0.18-1.04,0.88-1.66,1.94-1.67c2.72-0.02,5.43-0.02,8.15,0c0.68,0,0.99,0.38,0.99,1.14
			c0,2,0.01,4,0,5.99c0,0.36,0.02,0.6,0.42,0.82c0.24,0.13,0.4,0.58,0.43,0.9c0.07,0.62,0.05,1.26,0.01,1.89
			c-0.03,0.44,0.15,0.58,0.54,0.68c2.42,0.58,3.91,2.11,4.48,4.51c0.13,0.54,0.16,1.1,0.16,1.66c0.01,5.11,0.01,10.22,0.01,15.33
			c0,0.23,0,0.46,0,0.77c0.26,0,0.47,0,0.68,0c2.59,0,5.18-0.01,7.77,0c2.31,0.01,4.2,1.24,4.99,3.29c0.64,1.68,0.42,3.28-0.57,4.77
			C46.36,42.97,46.26,43.13,46.08,43.39z M31.94,50.27c0.01-0.18,0.03-0.28,0.03-0.39c0-10.67,0.01-21.34-0.01-32.01
			c0-2.03-1.94-3.93-3.98-3.94c-2.55-0.02-5.11-0.01-7.66,0c-1.96,0.01-3.9,1.78-3.96,3.73c-0.07,2.19-0.01,4.39,0,6.58
			c0,0.03,0.03,0.06,0.09,0.15c0.18,0,0.39,0,0.6,0c2.81,0,5.61,0,8.42,0c0.93,0,1.24,0.3,1.24,1.22c0,4.34,0,8.67,0,13.01
			c0,0.92-0.3,1.23-1.23,1.23c-2.54,0-5.07,0-7.61,0c-0.21,0-0.41,0-0.66,0c0,0.31,0,0.52,0,0.73c0,2.09-0.02,4.17,0.01,6.26
			c0.01,1.15-0.07,2.26-0.68,3.28c-0.02,0.03,0,0.1,0.01,0.16C21.65,50.27,26.77,50.27,31.94,50.27z M1.64,45.89
			c0,0.72,0,1.35,0,1.97c0.01,1.43,1.01,2.44,2.44,2.44c3,0,6.01,0,9.01,0c1.46,0,2.46-1.01,2.46-2.48c0-5.58,0-11.15,0-16.73
			c0-1.43-0.91-2.39-2.35-2.48c-1.54-0.1-2.5-0.94-2.77-2.45c-0.06-0.31-0.07-0.63-0.11-1.01c-1,0-1.99,0-2.97,0
			c-0.16,0-0.31,0.02-0.5,0.03c-0.01,0.21-0.02,0.38-0.03,0.56c-0.09,1.57-0.93,2.52-2.47,2.8c-0.3,0.05-0.61,0.04-0.9,0.12
			c-1.43,0.37-2.13,1.78-1.71,3.49c0.2,0,0.41,0,0.62,0c2.23,0,4.46,0,6.69,0c0.93,0,1.23,0.3,1.23,1.22c0,3.76,0,7.52,0,11.28
			c0,0.92-0.3,1.22-1.23,1.23c-2.23,0-4.46,0-6.69,0C2.14,45.89,1.93,45.89,1.64,45.89z M16.33,26.05c0,0.83,0,1.62,0.01,2.41
			c0,0.1,0.06,0.21,0.12,0.29c0.59,0.87,0.74,1.85,0.74,2.88c-0.01,1.98,0,3.96,0,5.94c0,0.19,0.02,0.39,0.03,0.61
			c2.62,0,5.2,0,7.8,0c0-4.05,0-8.07,0-12.12C22.13,26.05,19.27,26.05,16.33,26.05z M1.67,33.83c0,3.48,0,6.92,0,10.39
			c2.32,0,4.61,0,6.94,0c0-3.48,0-6.92,0-10.39C6.28,33.83,3.99,33.83,1.67,33.83z M33.63,43.37c0.21,0.01,0.35,0.03,0.49,0.03
			c2.79,0,5.57,0.01,8.36,0c1.83-0.01,3.31-1.6,3.31-3.54c0-1.88-1.51-3.45-3.34-3.46c-2.77-0.01-5.54,0-8.3,0
			c-0.17,0-0.34,0.02-0.52,0.03C33.63,38.76,33.63,41.04,33.63,43.37z M33.63,46.8c4.64,0,9.24,0,13.85,0c0-0.6,0-1.15,0-1.72
			c-4.64,0-9.24,0-13.85,0C33.63,45.68,33.63,46.23,33.63,46.8z M22.4,8.8c1.17,0,2.31,0,3.48,0c0-2.04,0-4.04,0-6.07
			c-1.17,0-2.31,0-3.48,0C22.4,4.77,22.4,6.77,22.4,8.8z M45.56,48.54c-4.02,0-7.97,0-11.93,0c0,0.6,0,1.15,0,1.69
			c0.06,0.03,0.09,0.06,0.12,0.06c3.68,0.01,7.37,0.02,11.05,0.01c0.13,0,0.34-0.15,0.38-0.27C45.34,49.55,45.44,49.06,45.56,48.54z
			 M21.54,10.5c0,0.6,0,1.16,0,1.75c1.75,0,3.46,0,5.21,0c0-0.6,0-1.16,0-1.75C25,10.5,23.29,10.5,21.54,10.5z M5.99,23.47
			c1.76,0,3.49,0,5.21,0c0-0.6,0-1.15,0-1.72c-1.76,0-3.49,0-5.21,0C5.99,22.36,5.99,22.91,5.99,23.47z M20.71,2.7
			c-0.67,0-1.28,0-1.89,0c-0.81,0-0.89,0.1-0.66,0.96c0.42,0,0.84,0,1.27,0c0.42,0,0.85,0,1.29,0C20.71,3.3,20.71,3.04,20.71,2.7z"
			/>
		<path d="M35.42,17.45c0.12-1.86,1.32-3.38,3.41-3.4c1.81-0.01,3.32,1.24,3.37,3.35c0.04,1.77-1.2,3.34-3.32,3.4
			C37.02,20.85,35.58,19.53,35.42,17.45z M38.85,19.2c1.02,0,1.76-0.76,1.75-1.78c0-1.02-0.74-1.76-1.77-1.77
			c-1.05,0-1.79,0.75-1.78,1.81C37.06,18.47,37.82,19.21,38.85,19.2z"/>
		<path d="M38.84,32.93c-1.99-0.13-3.39-1.46-3.39-3.42c0-1.87,1.31-3.34,3.36-3.36c1.87-0.02,3.38,1.31,3.39,3.39
			C42.21,31.45,40.84,32.78,38.84,32.93z M40.6,29.6c0.02-1.04-0.7-1.82-1.69-1.85c-1.07-0.02-1.85,0.7-1.86,1.73
			c-0.01,1.03,0.71,1.81,1.71,1.82C39.8,31.31,40.58,30.59,40.6,29.6z"/>
		<path d="M47.42,26.86c-1.35-0.02-2.53-1.23-2.48-2.56c0.05-1.36,1.21-2.5,2.56-2.5c1.32,0,2.53,1.23,2.51,2.54
			C49.98,25.74,48.8,26.88,47.42,26.86z M47.47,25.25c0.54,0,0.91-0.37,0.91-0.91c0-0.54-0.37-0.91-0.91-0.91
			c-0.54,0-0.91,0.37-0.91,0.91C46.56,24.88,46.93,25.25,47.47,25.25z"/>
		<path d="M28.51,44.61c0-0.38-0.02-0.76,0-1.13c0.03-0.53,0.38-0.92,0.8-0.92c0.43-0.01,0.8,0.38,0.82,0.91
			c0.02,0.79,0.03,1.58,0,2.37c-0.02,0.53-0.4,0.91-0.83,0.89c-0.43-0.01-0.76-0.4-0.8-0.93c0-0.04,0-0.07,0-0.11
			C28.51,45.33,28.51,44.97,28.51,44.61z"/>
		<path d="M28.52,39.43c0-0.13-0.02-0.25,0-0.38c0.07-0.45,0.31-0.8,0.79-0.81c0.48-0.01,0.75,0.32,0.81,0.78
			c0.04,0.28,0.04,0.58,0,0.86c-0.06,0.46-0.33,0.79-0.81,0.78c-0.48-0.01-0.72-0.35-0.79-0.81C28.5,39.72,28.52,39.58,28.52,39.43z
			"/>
		<path d="M38.02,38.21c0.39,0,0.79-0.02,1.18,0c0.61,0.04,1.12-0.16,1.59-0.54c0.49-0.4,0.91-0.39,1.22,0
			c0.32,0.38,0.24,0.78-0.23,1.21c-0.71,0.65-1.59,0.91-2.51,0.95c-0.95,0.04-1.9,0.02-2.85,0.01c-0.4,0-0.74-0.14-0.9-0.55
			c-0.21-0.52,0.18-1.02,0.84-1.08c0.04,0,0.07,0,0.11,0C36.98,38.21,37.5,38.21,38.02,38.21z"/>
	</g>
</g>
</svg>
