<?xml version="1.0" encoding="utf-8"?>
<!-- Generator: Adobe Illustrator 26.0.2, SVG Export Plug-In . SVG Version: 6.00 Build 0)  -->
<svg version="1.1" id="Layer_1" xmlns="http://www.w3.org/2000/svg" xmlns:xlink="http://www.w3.org/1999/xlink" x="0px" y="0px"
	 viewBox="0 0 50 56" style="enable-background:new 0 0 50 56;" xml:space="preserve">
<g>
	<g>
		<path d="M45.31,51.89c0,0.46,0,0.83,0,1.2c0,1.19-0.6,1.96-1.78,2.05c-1.04,0.08-2.09,0.05-3.13-0.05
			c-0.92-0.09-1.49-0.84-1.51-1.77c0-0.07,0-0.14,0-0.21c0-1.21,0-1.21-1.19-1.21c-8.61,0-17.22,0-25.83,0c-0.76,0-0.76,0-0.76,0.74
			c0,0.25,0.01,0.5,0,0.75c-0.03,0.86-0.61,1.63-1.46,1.7c-1.13,0.09-2.27,0.1-3.39,0.01c-0.93-0.07-1.53-0.85-1.56-1.8
			c-0.01-0.44,0-0.88,0-1.35c-0.57-0.05-1.1-0.08-1.62-0.14C1.32,51.6,0,50.13,0,48.36C0,34.03,0,19.71,0,5.38
			c0-2.03,1.51-3.46,3.72-3.56c0.12-0.01,0.25,0,0.37,0c13.94,0,27.88,0,41.81,0c1.3,0,2.46,0.29,3.31,1.36
			C49.73,3.81,50,4.52,50,5.34c0,14.34,0,28.69,0,43.03c0,2-1.58,3.47-3.76,3.52C45.95,51.9,45.67,51.89,45.31,51.89z M24.94,50.49
			c7.1,0,14.2-0.02,21.31,0.02c1.38,0.01,2.45-0.98,2.45-2.46c-0.01-14.13-0.01-28.26,0-42.39c0-1.5-1.07-2.47-2.44-2.47
			c-14.17,0.03-28.34,0.03-42.5,0c-1.38,0-2.45,0.98-2.44,2.46c0.01,14.13,0.01,28.26,0,42.39c0,1.47,1.05,2.48,2.44,2.47
			C10.81,50.47,17.88,50.49,24.94,50.49z M7.94,51.89c-0.25,0-0.5,0-0.75,0c-1.25,0-1.31,0.07-1.16,1.31
			c0.05,0.4,0.23,0.61,0.66,0.59c0.59-0.02,1.17,0,1.76,0c1.36,0,1.39-0.03,1.34-1.4c0-0.04,0-0.07,0-0.11
			c0.02-0.3-0.13-0.41-0.42-0.4C8.9,51.9,8.42,51.89,7.94,51.89z M42.1,51.89c-0.25,0-0.5,0-0.75,0c-1.25,0-1.24,0-1.15,1.27
			c0.03,0.42,0.22,0.65,0.67,0.64c0.76-0.01,1.53,0.02,2.29-0.02c0.25-0.01,0.67-0.15,0.7-0.29c0.08-0.49,0.03-1.01,0.01-1.51
			c0-0.03-0.22-0.08-0.33-0.08C43.06,51.89,42.58,51.89,42.1,51.89z"/>
		<path d="M43.4,26.85c0,5.79,0,11.57,0,17.36c0,0.91-0.18,1.08-1.09,1.08c-11.54,0-23.08,0-34.62,0c-0.91,0-1.09-0.17-1.09-1.08
			c0-1.19-0.01-2.38,0-3.57c0-0.36-0.09-0.52-0.47-0.62c-0.83-0.21-1.32-0.87-1.33-1.78c-0.02-2.25-0.02-4.51,0-6.76
			c0.01-0.96,0.47-1.48,1.43-1.8c0.15-0.05,0.34-0.28,0.34-0.43c0.02-1.97,0.02-3.94,0-5.91c0-0.14-0.2-0.36-0.35-0.41
			C5.28,22.61,4.81,22.02,4.81,21c-0.01-2.18-0.01-4.37,0-6.55c0-1.03,0.44-1.61,1.44-1.89C6.56,12.46,6.6,12.27,6.6,12
			c-0.01-0.87,0-1.74,0-2.61c0-0.76,0.22-0.97,0.98-0.97c4.95,0,9.91,0,14.86,0c6.62,0,13.24,0,19.87,0c0.92,0,1.09,0.17,1.09,1.08
			C43.4,15.28,43.4,21.06,43.4,26.85z M25.06,9.81c-3.71,0-7.42,0-11.13,0c-1.83,0-3.66,0.01-5.49-0.01c-0.38,0-0.55,0.09-0.53,0.51
			c0.03,0.58,0.02,1.17,0,1.76c-0.01,0.29,0.1,0.43,0.39,0.52c0.82,0.27,1.22,0.82,1.22,1.67c0.01,2.31,0.01,4.62,0,6.92
			c0,0.85-0.39,1.4-1.21,1.68c-0.31,0.11-0.41,0.25-0.41,0.57c0.01,1.92,0.01,3.83,0,5.75c0,0.31,0.08,0.47,0.41,0.57
			c0.81,0.25,1.2,0.82,1.21,1.67c0.01,2.29,0.01,4.58,0,6.87c0,0.9-0.37,1.43-1.22,1.72c-0.32,0.11-0.4,0.27-0.4,0.58
			c0.01,0.89,0,1.78,0,2.66c0,0.69,0,0.7,0.72,0.7c10.92,0,21.84,0,32.76,0.01c0.51,0,0.71-0.12,0.71-0.68
			c-0.02-10.93-0.02-21.87,0-32.8c0-0.55-0.16-0.68-0.69-0.67C35.96,9.81,30.51,9.81,25.06,9.81z M6.2,17.73c0,0.87,0,1.74,0,2.61
			c0,1.31-0.18,1.3,1.3,1.28c0.6-0.01,0.71-0.11,0.71-0.72c0-1.88,0-3.76,0-5.64c0-1.57,0.15-1.38-1.45-1.4
			c-0.41-0.01-0.57,0.16-0.56,0.57C6.21,15.53,6.2,16.63,6.2,17.73z M6.2,34.84c0,0.9,0,1.81,0,2.71c0,1.23-0.15,1.23,1.26,1.22
			c0.64-0.01,0.74-0.1,0.74-0.74c0-1.88,0-3.76,0-5.64c0-1.55,0.14-1.36-1.41-1.38C6.37,31,6.19,31.15,6.2,31.6
			C6.21,32.68,6.2,33.76,6.2,34.84z"/>
		<path d="M24.97,36.04c-4.66,0.08-9.17-3.71-9.17-9.16c-0.01-5.46,4.46-9.21,9.18-9.22c4.73-0.02,9.24,3.74,9.23,9.23
			C34.19,32.3,29.74,36.13,24.97,36.04z M30.83,31.99c0.06-0.06,0.12-0.11,0.19-0.17c0.05-0.04,0.12-0.08,0.16-0.13
			c0.9-1.1,1.39-2.37,1.62-3.76c0.05-0.3-0.08-0.43-0.38-0.42c-0.28,0.01-0.57-0.01-0.85,0c-0.45,0.01-0.74-0.22-0.75-0.65
			c-0.01-0.43,0.28-0.67,0.73-0.66c0.27,0,0.53-0.01,0.8,0c0.38,0.02,0.56-0.14,0.43-0.51c-0.33-0.97-0.66-1.93-1.05-2.88
			c-0.15-0.36-0.45-0.65-0.71-1.01c-0.38,0.36-0.67,0.66-0.99,0.94c-0.29,0.26-0.62,0.27-0.91-0.01c-0.29-0.27-0.3-0.59-0.04-0.9
			c0.17-0.2,0.35-0.4,0.56-0.57c0.37-0.3,0.41-0.56-0.05-0.79c-0.79-0.4-1.56-0.82-2.38-1.15c-0.45-0.18-0.97-0.2-1.52-0.31
			c0,0.48,0.02,0.84-0.01,1.19c-0.03,0.41-0.16,0.78-0.67,0.8c-0.43,0.02-0.69-0.27-0.72-0.8c-0.02-0.37,0-0.73,0-1.15
			c-1.33,0.06-2.45,0.5-3.5,1.15c-0.92,0.57-0.91,0.58-0.18,1.32c0.02,0.03,0.05,0.05,0.08,0.08c0.46,0.48,0.51,0.81,0.17,1.14
			c-0.3,0.3-0.67,0.24-1.11-0.18c-0.25-0.24-0.5-0.48-0.78-0.74c-1.03,1.19-1.55,2.52-1.79,3.98c-0.04,0.27,0.08,0.4,0.35,0.39
			c0.32,0,0.64,0,0.96,0.01c0.43,0.01,0.68,0.27,0.67,0.67c0,0.37-0.25,0.62-0.65,0.64c-0.28,0.01-0.57,0.02-0.85,0
			c-0.4-0.02-0.56,0.13-0.46,0.54c0.11,0.43,0.18,0.87,0.32,1.29c0.31,0.92,0.74,1.79,1.61,2.7c0.28-0.38,0.52-0.74,0.8-1.05
			c0.26-0.28,0.61-0.3,0.9-0.03c0.32,0.29,0.31,0.62,0.04,0.94c-0.2,0.23-0.41,0.45-0.63,0.65c-0.27,0.24-0.25,0.42,0.04,0.62
			c0.89,0.64,1.85,1.11,2.92,1.35c0.33,0.07,0.68,0.1,1.08,0.16c0-0.42-0.01-0.76,0-1.09c0.02-0.58,0.26-0.88,0.7-0.88
			c0.44,0,0.68,0.31,0.69,0.89c0.01,0.35,0,0.69,0,1.08c1.69-0.15,3.08-0.74,4.47-1.89c-0.34-0.26-0.62-0.43-0.84-0.65
			c-0.5-0.48-0.54-0.79-0.21-1.13c0.31-0.32,0.7-0.28,1.14,0.18C30.47,31.41,30.64,31.71,30.83,31.99z"/>
		<path d="M25,22.68c1.88-0.07,4.15,1.39,4.2,4.18c0.04,2.29-1.89,4.13-4.17,4.17c-1.91,0.03-4.23-1.41-4.21-4.22
			C20.84,24.01,23.18,22.61,25,22.68z M27.82,26.87c0-1.61-1.27-2.88-2.85-2.87c-1.53,0.01-2.78,1.29-2.78,2.84
			c0,1.59,1.23,2.85,2.8,2.87C26.53,29.73,27.81,28.44,27.82,26.87z"/>
	</g>
</g>
</svg>
