<?xml version="1.0" encoding="utf-8"?>
<!-- Generator: Adobe Illustrator 26.0.2, SVG Export Plug-In . SVG Version: 6.00 Build 0)  -->
<svg version="1.1" id="Layer_1" xmlns="http://www.w3.org/2000/svg" xmlns:xlink="http://www.w3.org/1999/xlink" x="0px" y="0px"
	 viewBox="0 0 50 51" style="enable-background:new 0 0 50 51;" xml:space="preserve">
<g>
	<g>
		<path d="M0,14.84c0.06-0.22,0.11-0.44,0.17-0.65c0.36-1.41,1.63-2.44,3.1-2.44c6.48-0.01,12.96-0.01,19.45-0.01
			c0.24,0,0.48-0.02,0.82-0.04c-0.14-0.24-0.22-0.4-0.32-0.55c-2.01-2.89-4.02-5.77-6.03-8.66c-0.12-0.17-0.23-0.35-0.33-0.54
			c-0.18-0.36-0.08-0.69,0.22-0.91c0.32-0.23,0.68-0.21,0.98,0.08c0.12,0.11,0.21,0.25,0.3,0.38c2.1,3,4.19,6.01,6.29,9.01
			c0.1,0.14,0.21,0.28,0.36,0.48c0.15-0.22,0.28-0.38,0.39-0.55c1.85-2.99,3.71-5.98,5.56-8.97c0.22-0.35,0.46-0.66,0.93-0.56
			c0.57,0.12,0.8,0.68,0.48,1.22c-0.62,1.03-1.26,2.05-1.9,3.08c-1.23,1.98-2.45,3.96-3.68,5.94c-0.09,0.15-0.17,0.3-0.3,0.54
			c0.3,0.02,0.52,0.05,0.74,0.05c6.45,0,12.9,0,19.35,0c1.63,0,2.84,0.86,3.26,2.34c0.11,0.39,0.17,0.8,0.17,1.2
			C50,24.54,50,33.79,50,43.04c0,1.78-0.97,3.11-2.56,3.47c-0.39,0.09-0.81,0.07-1.21,0.08c-0.3,0.01-0.45,0.12-0.43,0.44
			c0.02,0.42,0.01,0.85,0,1.27c-0.01,0.52-0.3,0.82-0.77,0.81c-0.45,0-0.72-0.28-0.73-0.79c-0.01-0.42-0.01-0.85,0-1.27
			c0.01-0.33-0.14-0.48-0.47-0.46c-0.15,0.01-0.29,0-0.44,0c-12.25,0-24.5,0-36.74,0c-0.07,0-0.13,0-0.2,0
			c-0.68,0-0.69,0.02-0.7,0.68c0,0.37,0.01,0.75-0.01,1.12c-0.02,0.46-0.31,0.73-0.75,0.72c-0.43,0-0.73-0.28-0.74-0.73
			c-0.02-0.44-0.02-0.88,0-1.32c0.01-0.34-0.12-0.47-0.45-0.47c-0.39,0-0.79,0.02-1.17-0.06c-1.33-0.28-2.28-1.32-2.51-2.68
			C0.1,43.72,0.04,43.61,0,43.48C0,33.94,0,24.39,0,14.84z M25.02,45.09c7.15,0,14.3-0.01,21.45,0.01c1.05,0,1.98-0.73,1.97-1.96
			c-0.03-9.3-0.03-18.6,0-27.9c0-1.3-0.95-2.01-1.99-2c-14.28,0.02-28.57,0.02-42.85,0c-1.08,0-2,0.73-2,1.99
			c0.03,9.27,0.02,18.54,0.02,27.81c0,1.42,0.63,2.06,2.04,2.06C10.78,45.09,17.9,45.09,25.02,45.09z"/>
		<path d="M19.98,43.26c-3.86,0-7.72-0.03-11.58,0.01c-2.23,0.03-4.41-1.56-4.89-3.97c-0.08-0.4-0.08-0.81-0.08-1.21
			C3.42,32.14,3.46,26.2,3.41,20.25c-0.03-2.93,2.09-4.84,4.17-5.12c0.27-0.04,0.55-0.05,0.82-0.05c7.75,0,15.51-0.01,23.26,0
			c2.82,0,4.95,2.16,4.96,5c0.01,6.06-0.02,12.12,0.01,18.18c0.01,2.8-2.3,5.05-5.01,5.02C27.74,43.22,23.86,43.26,19.98,43.26z
			 M20,41.76c3.83,0,7.65,0,11.48,0c2.14,0,3.63-1.47,3.64-3.61c0.01-5.98,0.01-11.96,0-17.93c0-0.39-0.06-0.78-0.16-1.15
			c-0.43-1.53-1.76-2.48-3.45-2.49c-4.53-0.01-9.06,0-13.58,0c-3.14,0-6.29-0.01-9.43,0c-2.07,0.01-3.54,1.49-3.54,3.54
			c0,6.04,0,12.09,0,18.13c0,0.24,0.01,0.49,0.06,0.73c0.37,1.7,1.71,2.78,3.46,2.78C12.31,41.76,16.15,41.76,20,41.76z"/>
		<path d="M38.45,33.33c0-1.07,0-2.15,0-3.22c0-0.61,0.25-0.86,0.86-0.86c2.15,0,4.29,0,6.44,0c0.62,0,0.86,0.22,0.86,0.85
			c0.01,2.16,0.01,4.33,0,6.49c0,0.62-0.21,0.82-0.83,0.83c-2.16,0.01-4.33,0.01-6.49,0c-0.63,0-0.84-0.24-0.84-0.87
			C38.44,35.47,38.45,34.4,38.45,33.33z M45.1,33.32c0-0.68-0.02-1.37,0.01-2.05c0.02-0.42-0.15-0.53-0.54-0.53
			c-1.37,0.02-2.73,0.01-4.1,0c-0.37,0-0.53,0.11-0.52,0.5c0.02,1.4,0.01,2.8,0,4.2c0,0.33,0.1,0.46,0.45,0.46
			c1.42-0.01,2.83-0.02,4.25,0c0.38,0.01,0.47-0.14,0.46-0.49C45.08,34.72,45.1,34.02,45.1,33.32z"/>
		<path d="M42.52,20.76c-1.07,0-2.15,0.01-3.22,0c-0.58-0.01-0.88-0.31-0.85-0.83c0.03-0.42,0.26-0.66,0.68-0.68
			c0.62-0.02,1.24-0.02,1.85-0.02c1.59,0,3.19-0.01,4.78,0.01c0.58,0,0.81,0.21,0.84,0.66c0.04,0.53-0.25,0.84-0.82,0.85
			C44.7,20.77,43.61,20.76,42.52,20.76z"/>
		<path d="M42.51,24.09c-1.07,0-2.15,0-3.22,0c-0.56,0-0.86-0.28-0.85-0.77c0.01-0.48,0.28-0.73,0.83-0.73
			c2.16-0.01,4.32-0.01,6.49,0c0.61,0,0.84,0.23,0.84,0.76c-0.01,0.5-0.28,0.74-0.87,0.74C44.66,24.09,43.59,24.09,42.51,24.09z"/>
		<path d="M42.54,27.42c-1.07,0-2.15,0-3.22,0c-0.58,0-0.87-0.25-0.87-0.74c0-0.49,0.28-0.75,0.86-0.75c2.15,0,4.29,0,6.44,0
			c0.61,0,0.86,0.22,0.86,0.74c0,0.51-0.26,0.76-0.85,0.76C44.69,27.42,43.61,27.42,42.54,27.42z"/>
		<path d="M10.88,18.29c0.24,0.21,0.54,0.35,0.62,0.58c0.08,0.23,0.02,0.6-0.13,0.79c-0.45,0.53-0.97,1.01-1.46,1.5
			c-0.59,0.59-1.17,1.18-1.76,1.76c-0.4,0.39-0.84,0.42-1.16,0.11c-0.33-0.32-0.31-0.77,0.08-1.16c1.04-1.05,2.09-2.1,3.14-3.14
			C10.38,18.56,10.6,18.47,10.88,18.29z"/>
		<path d="M13.25,21.63c-0.18-0.15-0.46-0.27-0.55-0.48c-0.09-0.21-0.08-0.6,0.06-0.75c0.85-0.91,1.73-1.8,2.64-2.66
			c0.29-0.27,0.67-0.23,0.97,0.06c0.3,0.29,0.34,0.68,0.07,0.96c-0.86,0.91-1.75,1.78-2.64,2.66C13.69,21.52,13.5,21.54,13.25,21.63
			z"/>
		<path d="M9.16,25.78c-0.12,0.25-0.18,0.45-0.3,0.59c-0.27,0.3-0.56,0.6-0.86,0.86c-0.33,0.29-0.72,0.27-1.01-0.02
			c-0.28-0.28-0.32-0.71-0.05-1.01c0.3-0.34,0.61-0.69,0.98-0.95c0.18-0.13,0.54-0.15,0.75-0.06C8.87,25.28,8.99,25.57,9.16,25.78z"
			/>
		<path d="M10.86,22.59c0.47,0.01,0.75,0.3,0.73,0.77c-0.01,0.43-0.31,0.72-0.74,0.73c-0.45,0-0.75-0.3-0.75-0.76
			C10.1,22.85,10.37,22.59,10.86,22.59z"/>
	</g>
</g>
</svg>
