<?xml version="1.0" encoding="utf-8"?>
<!-- Generator: Adobe Illustrator 26.0.2, SVG Export Plug-In . SVG Version: 6.00 Build 0)  -->
<svg version="1.1" id="Layer_1" xmlns="http://www.w3.org/2000/svg" xmlns:xlink="http://www.w3.org/1999/xlink" x="0px" y="0px"
	 viewBox="0 0 50 51" style="enable-background:new 0 0 50 51;" xml:space="preserve">
<g>
	<g>
		<path d="M50,5.75c0,0.1,0,0.2,0,0.29c-0.04,0.09-0.1,0.17-0.12,0.26c-0.28,1.25-1.18,2-2.45,2.04c-0.86,0.03-0.86,0.03-0.86,0.88
			c0,0.11,0,0.23,0,0.34c0,12.24,0,24.48,0,36.71c0,1.11-0.17,1.28-1.26,1.28c-1.65,0-3.29,0.01-4.94-0.01
			c-0.36,0-0.5,0.12-0.48,0.48c0.02,0.42,0.01,0.85,0,1.27c-0.02,0.44-0.26,0.69-0.71,0.72c-0.18,0.01-0.36,0.01-0.54,0.01
			c-10.79,0-21.58,0-32.36,0c-0.18,0-0.36,0-0.54-0.01C5.3,50,5.06,49.76,5.04,49.32c-0.01-0.23-0.01-0.46-0.01-0.68
			c0-13.1,0-26.2,0-39.3c0-0.2-0.01-0.39,0-0.59c0.01-0.29-0.12-0.4-0.42-0.39c-0.7,0.02-1.4,0.03-2.1,0C0.85,8.28-0.07,7.08,0,5.79
			c0.08-1.44,1.15-2.34,2.62-2.34c1.01,0,2.02,0.01,3.03-0.01c0.19,0,0.43-0.08,0.54-0.22c1.3-1.59,2.96-2.27,5.01-2.26
			C18.31,1,25.42,0.98,32.52,0.98c3.37,0,6.75,0,10.12,0.01C43.91,1,45,1.51,45.69,2.56c0.47,0.73,0.97,0.96,1.81,0.91
			c1.08-0.06,2.05,0.73,2.34,1.73C49.89,5.39,49.94,5.57,50,5.75z M39.17,2.49c-0.26,0-0.47,0-0.67,0c-9.17,0-18.35,0-27.52,0
			c-2.6,0-4.43,1.83-4.43,4.42c0,9.17,0,18.35,0,27.52c0,0.76,0,0.76,0.74,0.76c10.12,0,20.24,0,30.36,0c0.76,0,0.76,0,0.76-0.75
			c0-9.56,0.01-19.13-0.01-28.69c0-1.08,0.05-2.1,0.71-3.01C39.12,2.71,39.12,2.65,39.17,2.49z M22.52,41.7
			c-5.13,0-10.26,0-15.4-0.01c-0.42,0-0.6,0.09-0.6,0.56c0.03,1.91,0.02,3.81,0,5.72c0,0.43,0.12,0.56,0.55,0.56
			c10.25-0.01,20.5-0.01,30.74,0c0.46,0,0.58-0.15,0.58-0.59c-0.02-1.86-0.01-3.71-0.01-5.57c0-0.67,0-0.67-0.67-0.67
			C32.66,41.7,27.59,41.7,22.52,41.7z M45.05,27.18c0-6.09,0-12.19,0.01-18.28c0-0.42-0.1-0.56-0.54-0.55
			c-1.29,0.03-2.57,0.01-3.86,0.01c-0.76,0-0.76,0-0.76,0.78c0,10.1,0,20.21,0,30.31c0,2,0.01,4.01-0.01,6.01
			c0,0.43,0.13,0.56,0.56,0.55c1.32-0.02,2.64-0.01,3.96-0.01c0.64,0,0.64,0,0.64-0.63C45.05,39.3,45.05,33.24,45.05,27.18z
			 M22.47,36.71c-5.12,0-10.23,0-15.35-0.01c-0.43,0-0.61,0.09-0.59,0.56c0.04,0.78,0.03,1.56,0,2.35
			c-0.02,0.45,0.12,0.59,0.58,0.59c10.23-0.01,20.47-0.01,30.7-0.01c0.02,0,0.03,0,0.05,0c0.39,0.04,0.56-0.11,0.55-0.52
			c-0.03-0.77-0.01-1.53-0.01-2.3c0-0.66,0-0.66-0.67-0.66C32.64,36.71,27.56,36.71,22.47,36.71z M43.88,6.77
			c1.2,0,2.41,0.01,3.61,0c0.57,0,0.92-0.38,0.89-0.93c-0.03-0.51-0.37-0.82-0.95-0.82c-2.1-0.01-4.2,0-6.29,0
			c-1.27,0-1.26,0-1.24,1.27c0.01,0.39,0.15,0.49,0.52,0.49C41.57,6.76,42.72,6.77,43.88,6.77z M5.2,5.04
			c-1.01,0-2.01-0.03-3.01,0.01c-0.4,0.02-0.66,0.47-0.63,0.91c0.03,0.45,0.35,0.79,0.81,0.8C3.13,6.78,3.9,6.78,4.66,6.76
			c0.13,0,0.33-0.16,0.35-0.27C5.1,6.03,5.14,5.56,5.2,5.04z M44.41,3.42c-0.54-0.67-1.17-0.93-1.9-0.92
			c-0.74,0-1.39,0.24-1.94,0.92C41.89,3.42,43.09,3.42,44.41,3.42z"/>
	</g>
</g>
</svg>
