<?xml version="1.0" encoding="utf-8"?>
<!-- Generator: Adobe Illustrator 26.0.2, SVG Export Plug-In . SVG Version: 6.00 Build 0)  -->
<svg version="1.1" id="Layer_1" xmlns="http://www.w3.org/2000/svg" xmlns:xlink="http://www.w3.org/1999/xlink" x="0px" y="0px"
	 viewBox="0 0 50 44" style="enable-background:new 0 0 50 44;" xml:space="preserve">
<g>
	<g>
		<path d="M0,37.32c0.15-0.91,0.26-1.83,0.47-2.73c1.02-4.32,3.46-7.69,7-10.29c1.88-1.38,3.95-2.38,6.19-3.01
			c0.14-0.04,0.27-0.09,0.48-0.17c-3.66-2.41-5.64-5.7-5.4-10.1c0.17-3.08,1.51-5.63,3.86-7.61c4.42-3.73,11.16-3.36,15.25,1.27
			c3.4,3.85,4.25,12.06-2.82,16.44c0.82,0.29,1.64,0.54,2.43,0.87c5.43,2.29,9.24,6.12,11.02,11.82c0.48,1.55,0.64,3.15,0.66,4.77
			c0.01,0.8,0.02,1.59,0,2.39c-0.02,0.64-0.35,1.05-0.86,1.15c-0.5,0.1-0.99-0.11-1.17-0.57c-0.11-0.28-0.14-0.6-0.14-0.9
			c-0.02-1.71,0.05-3.41-0.3-5.1c-0.47-2.27-1.41-4.32-2.83-6.14c-2.76-3.54-6.41-5.69-10.79-6.46c-5.87-1.03-11.19,0.3-15.71,4.28
			c-2.87,2.53-4.6,5.75-5.04,9.57c-0.16,1.38-0.08,2.79-0.12,4.19c-0.02,0.83-0.68,1.38-1.39,1.09C0.47,41.94,0.25,41.57,0,41.32
			C0,39.98,0,38.65,0,37.32z M10.87,11.65c-0.1,4.69,3.78,8.65,8.59,8.76c4.74,0.11,8.67-3.74,8.79-8.59
			c0.12-4.73-3.73-8.69-8.52-8.79C14.9,2.93,10.97,6.76,10.87,11.65z"/>
		<path d="M39.7,21.04c1.25,0.64,2.56,1.17,3.71,1.93c4.23,2.79,6.51,6.71,6.58,11.83c0.01,0.59,0.01,1.17,0,1.76
			c-0.01,0.75-0.47,1.24-1.11,1.23c-0.62-0.02-1.02-0.49-1.06-1.23c-0.06-1.35,0-2.72-0.24-4.03c-0.66-3.53-2.69-6.14-5.72-8
			c-2.04-1.25-4.28-1.85-6.67-1.94c-0.07,0-0.13-0.01-0.2-0.01c-0.83-0.04-1.3-0.44-1.3-1.08c0-0.65,0.47-1.05,1.29-1.09
			c3.69-0.21,6.44-3.17,6.3-6.79c-0.12-3.22-2.66-5.9-5.86-6.21c-0.23-0.02-0.45-0.03-0.68-0.06c-0.64-0.07-1.09-0.55-1.05-1.12
			c0.04-0.59,0.51-1.04,1.15-1.02c0.61,0.02,1.24,0.07,1.84,0.21c4.79,1.13,7.65,5.75,6.52,10.53c-0.46,1.95-1.52,3.54-3.11,4.77
			c-0.13,0.1-0.26,0.2-0.39,0.3C39.7,21.04,39.69,21.07,39.7,21.04z"/>
	</g>
</g>
</svg>
