<?xml version="1.0" encoding="utf-8"?>
<!-- Generator: Adobe Illustrator 26.0.2, SVG Export Plug-In . SVG Version: 6.00 Build 0)  -->
<svg version="1.1" id="Layer_1" xmlns="http://www.w3.org/2000/svg" xmlns:xlink="http://www.w3.org/1999/xlink" x="0px" y="0px"
	 viewBox="0 0 50 46" style="enable-background:new 0 0 50 46;" xml:space="preserve">
<g>
	<g>
		<path d="M50,9.51c-0.1,0.54-0.11,1.11-0.3,1.62c-0.54,1.43-1.14,2.83-1.74,4.24c-0.41,0.96-0.86,1.9-1.32,2.83
			c-0.15,0.3-0.11,0.53,0.07,0.8c1.44,2.15,2.18,4.53,2.05,7.1c-0.22,4.43-2.24,7.85-6.07,10.15c-0.24,0.14-0.55,0.21-0.83,0.21
			c-1.63,0.02-3.26,0.01-4.89,0c-0.22,0-0.49-0.01-0.65-0.14c-0.18-0.14-0.34-0.41-0.35-0.63c0-0.19,0.17-0.46,0.35-0.57
			c0.19-0.12,0.46-0.13,0.7-0.14c1.53-0.01,3.07,0.01,4.6-0.02c0.27,0,0.59-0.09,0.81-0.24c2.72-1.83,4.35-4.35,4.77-7.61
			c0.73-5.72-3-10.88-8.69-11.94c-4.71-0.88-9.48,1.41-11.65,6.01c-0.06,0.12-0.11,0.24-0.16,0.36c-0.25,0.55-0.6,0.74-1.02,0.54
			c-0.42-0.19-0.54-0.59-0.28-1.13c0.34-0.69,0.7-1.36,1.1-2.01c0.19-0.31,0.25-0.54,0.08-0.89c-0.81-1.7-1.59-3.42-2.39-5.14
			c-2.36-5.11,0.54-10.79,6.07-11.86c0.41-0.08,0.84-0.12,1.26-0.12c3.42-0.01,6.85-0.06,10.27,0.01c4.6,0.1,7.78,3.72,8.08,7.55
			c0.01,0.17,0.08,0.34,0.12,0.52C50,9.19,50,9.35,50,9.51z M45.43,17.31c0.07-0.11,0.14-0.18,0.18-0.27
			c0.77-1.67,1.56-3.33,2.31-5.01c0.62-1.38,0.74-2.83,0.39-4.3c-0.78-3.24-3.46-5.35-6.86-5.38c-3.21-0.02-6.42-0.01-9.64,0
			c-0.42,0-0.85,0.03-1.26,0.11c-4.65,0.9-7.04,5.61-5.04,9.9c0.69,1.48,1.37,2.95,2.05,4.43c0.07,0.14,0.15,0.27,0.25,0.45
			c0.46-0.4,0.86-0.77,1.3-1.11c0.26-0.2,0.28-0.37,0.15-0.66c-0.63-1.32-1.24-2.66-1.85-3.99c-0.42-0.92-0.61-1.86-0.48-2.89
			c0.27-2.18,2.3-4.11,4.52-4.14c2.22-0.03,4.43-0.01,6.65-0.01c0.1,0,0.2-0.01,0.29,0.02c0.37,0.1,0.62,0.35,0.59,0.74
			c-0.03,0.37-0.26,0.63-0.67,0.65c-0.16,0.01-0.33,0.01-0.49,0.01c-1.92,0-3.85,0.03-5.77-0.01c-2.91-0.05-4.55,2.67-3.29,5.16
			c0.59,1.16,1.12,2.35,1.64,3.55c0.19,0.44,0.37,0.48,0.8,0.27c3.62-1.73,7.25-1.71,10.86,0.02c0.17,0.08,0.34,0.16,0.59,0.28
			c0.75-1.72,1.61-3.34,2.18-5.06c0.64-1.93-0.79-3.89-2.82-4.14c-0.47-0.06-0.94-0.06-1.41-0.08c-0.44-0.02-0.68-0.28-0.69-0.68
			c-0.01-0.41,0.25-0.69,0.66-0.71c0.94-0.05,1.89-0.04,2.79,0.33c2.52,1.02,3.73,3.84,2.67,6.34c-0.63,1.48-1.35,2.93-2.01,4.4
			c-0.07,0.15-0.11,0.44-0.03,0.52C44.44,16.49,44.93,16.89,45.43,17.31z"/>
		<path d="M35.36,32.78c-0.28,4.51-2.08,8.29-5.94,10.97c-1.26,0.88-2.68,1.32-4.22,1.33c-1.05,0.01-2-0.4-2.93-0.85
			c-1.13-0.54-2.26-1.1-3.42-1.57c-2.48-1.02-3.64-2.99-4.04-5.51c-0.28-1.8-0.1-3.57,0.43-5.31c0.11-0.37,0.05-0.55-0.29-0.73
			c-1.01-0.53-2-1.09-3-1.63c-1.12-0.61-1.4-1.21-1.16-2.49c0.18-0.96,0.66-1.73,1.48-2.27c0.57-0.38,1.17-0.43,1.79-0.08
			c1.12,0.63,2.26,1.23,3.38,1.87c0.36,0.2,0.56,0.2,0.86-0.13c1.41-1.55,3.06-2.72,5.16-3.17c1.24-0.27,2.43-0.16,3.57,0.37
			c1.48,0.68,2.95,1.37,4.44,2.04c2.26,1.02,3.3,2.9,3.72,5.21C35.29,31.44,35.29,32.06,35.36,32.78z M33.97,32.41
			c-0.11-0.65-0.17-1.46-0.39-2.24c-0.51-1.76-1.54-3.07-3.44-3.42c-1.33-0.25-2.59,0.11-3.74,0.81c-4.03,2.43-6.37,7.7-5.37,12.3
			c0.41,1.88,1.51,3.3,3.53,3.69c1.3,0.25,2.55,0.01,3.69-0.72C31.98,40.41,33.67,36.9,33.97,32.41z M27.48,25.51
			c0.01-0.07,0.02-0.13,0.03-0.2c-0.76-0.25-1.5-0.61-2.28-0.74c-1.47-0.25-2.83,0.23-3.99,1.1c-3.81,2.88-5.54,6.72-5.01,11.49
			c0.14,1.27,0.69,2.41,1.67,3.29c0.62,0.56,1.37,0.86,2.22,1.19c-1.2-3.35-0.86-6.49,0.56-9.55
			C22.09,29.01,24.26,26.72,27.48,25.51z M15.88,29.99c0.3-0.54,0.57-1.04,0.85-1.53c0.31-0.54,0.32-0.54-0.25-0.85
			c-0.89-0.48-1.77-0.96-2.66-1.45c-0.7-0.39-1.01-0.31-1.38,0.42c-0.14,0.27-0.19,0.58-0.26,0.88c-0.08,0.36,0.06,0.6,0.41,0.78
			c0.87,0.44,1.72,0.93,2.58,1.39C15.4,29.74,15.63,29.86,15.88,29.99z"/>
		<path d="M5.38,33.56c-0.2-0.84-0.42-1.6-0.57-2.37c-0.08-0.43-0.09-0.87-0.09-1.31c0-0.46,0.26-0.74,0.66-0.75
			c0.41-0.02,0.69,0.28,0.75,0.74c0.09,0.74,0.12,1.5,0.33,2.21c0.44,1.56,1.29,2.82,2.94,3.33c1.11,0.34,2.22,0.26,3.29-0.2
			c0.19-0.08,0.45-0.21,0.59-0.15c0.25,0.12,0.58,0.34,0.62,0.57c0.04,0.22-0.18,0.64-0.39,0.73c-0.62,0.27-1.28,0.47-1.95,0.6
			c-1.26,0.25-2.45-0.02-3.6-0.57c-1.41-0.67-2.84-1.3-4.26-1.97c-1.98-0.93-3.03-2.58-3.47-4.63c-1.12-5.26,1.74-11.41,6.49-13.96
			c1.86-1,3.8-1.08,5.74-0.22c1.49,0.66,2.98,1.32,4.43,2.06c2.15,1.09,3.37,2.87,3.61,5.28c0.06,0.55-0.22,0.9-0.64,0.91
			c-0.41,0.02-0.7-0.31-0.75-0.85c-0.2-2-1.68-3.83-3.49-4.27c-1.19-0.29-2.33-0.04-3.41,0.5c-2.4,1.21-3.96,3.2-5.01,5.6
			c-0.34,0.78-0.55,1.63-0.81,2.45c-0.11,0.36-0.33,0.68-0.69,0.64c-0.25-0.02-0.49-0.3-0.7-0.49c-0.07-0.06-0.06-0.25-0.03-0.37
			c0.89-3.73,2.69-6.83,6.14-8.77c0.28-0.16,0.58-0.3,0.87-0.43c0.29-0.14,0.58-0.26,0.89-0.4c-1.53-1.22-4.02-1.3-5.74-0.22
			c-3.25,2.05-5.07,5.03-5.61,8.8c-0.22,1.55-0.2,3.1,0.42,4.56C2.58,32.13,3.79,33.04,5.38,33.56z"/>
		<path d="M36.61,20.11c3.21,0.01,5.8,2.7,5.6,5.94c-0.18,2.9-2.39,5.13-5.4,5.31c-0.39,0.02-0.7-0.15-0.78-0.58
			c-0.07-0.42,0.13-0.73,0.57-0.83c0.31-0.07,0.64-0.07,0.96-0.14c1.8-0.39,3.29-2.02,3.23-4.17c-0.06-2.13-1.58-3.74-3.62-4.04
			c-1.94-0.29-3.63,0.88-4.28,2.19c-0.04,0.07-0.07,0.15-0.11,0.22c-0.24,0.43-0.63,0.59-1.01,0.4c-0.35-0.17-0.46-0.57-0.26-1.02
			c0.36-0.84,0.93-1.53,1.65-2.08C34.18,20.51,35.33,20.12,36.61,20.11z"/>
	</g>
</g>
</svg>
