<?xml version="1.0" encoding="utf-8"?>
<!-- Generator: Adobe Illustrator 26.0.2, SVG Export Plug-In . SVG Version: 6.00 Build 0)  -->
<svg version="1.1" id="Layer_1" xmlns="http://www.w3.org/2000/svg" xmlns:xlink="http://www.w3.org/1999/xlink" x="0px" y="0px"
	 viewBox="0 0 50 44" style="enable-background:new 0 0 50 44;" xml:space="preserve">
<g>
	<g>
		<path d="M50,16.05c-0.04,0.15-0.1,0.3-0.13,0.46c-0.27,1.3-0.98,2.25-2.27,2.62c-1.28,0.36-2.34-0.07-3.17-1.08
			c-3.49-4.26-7.8-7.35-13.16-8.76c-7.72-2.03-14.75-0.45-21.09,4.33c-1.74,1.31-3.26,2.85-4.61,4.56c-0.84,1.06-1.91,1.5-3.23,1.16
			c-1.21-0.31-2.09-1.42-2.28-2.72c-0.15-1.03,0.08-1.95,0.72-2.74c4.31-5.39,9.7-9.21,16.38-11.11c3.16-0.9,6.39-1.22,9.66-1.03
			c3.97,0.23,7.75,1.25,11.33,3.02c0.07,0.04,0.15,0.07,0.22,0.11c0.34,0.21,0.47,0.49,0.3,0.87c-0.16,0.35-0.51,0.46-0.9,0.3
			c-1.63-0.64-3.24-1.35-4.91-1.9c-1.89-0.62-3.85-0.92-5.84-1.04C17.47,2.54,9.67,6.11,3.25,13c-0.5,0.54-0.97,1.1-1.42,1.67
			c-0.59,0.75-0.66,1.59-0.24,2.43c0.59,1.21,1.95,1.35,2.85,0.35c1.07-1.18,2.11-2.41,3.28-3.49c3.66-3.38,7.95-5.61,12.87-6.47
			c7.45-1.29,14.16,0.51,20.16,5.07c1.68,1.28,3.17,2.75,4.51,4.38c0.07,0.09,0.15,0.17,0.22,0.26c0.57,0.64,1.18,0.84,1.86,0.61
			c0.67-0.23,1.19-0.98,1.24-1.73c0.05-0.69-0.16-1.27-0.6-1.8c-2.05-2.48-4.38-4.64-7.06-6.42c-0.05-0.04-0.11-0.07-0.16-0.11
			c-0.4-0.31-0.5-0.63-0.28-0.96c0.23-0.35,0.61-0.43,1.02-0.14c0.93,0.66,1.86,1.32,2.75,2.03c1.71,1.37,3.23,2.93,4.64,4.61
			c0.53,0.64,0.96,1.31,1.01,2.17c0.01,0.09,0.07,0.18,0.1,0.27C50,15.85,50,15.95,50,16.05z"/>
		<path d="M25.05,12.53c6.52,0.1,11.84,2.76,16.13,7.6c1.05,1.18,1.09,3.02,0.18,4.31c-1.16,1.65-3.34,1.78-4.75,0.24
			c-1.08-1.17-2.25-2.22-3.6-3.07c-2.5-1.58-5.23-2.4-8.18-2.35c-3.67,0.06-6.89,1.36-9.67,3.75c-0.59,0.51-1.14,1.07-1.67,1.65
			c-1.06,1.16-2.3,1.53-3.54,1.02c-1.27-0.52-2.05-1.82-2-3.29c0.03-0.89,0.35-1.64,0.93-2.3c3.06-3.46,6.77-5.86,11.28-6.98
			C21.76,12.71,23.39,12.5,25.05,12.53z M24.71,13.82c-0.69,0.06-1.71,0.11-2.72,0.27c-3.26,0.52-6.23,1.78-8.81,3.83
			c-1.24,0.99-2.41,2.1-3.46,3.29c-1.01,1.14-0.36,3.03,1.04,3.33c0.75,0.16,1.26-0.25,1.73-0.77c3.1-3.44,6.92-5.46,11.56-5.8
			c2.16-0.16,4.28,0.18,6.33,0.91c2.82,1.01,5.19,2.69,7.19,4.91c0.52,0.58,1.16,0.8,1.89,0.53c0.78-0.3,1.12-0.94,1.19-1.75
			c0.09-0.91-0.41-1.53-0.99-2.13C35.69,16.24,30.86,13.95,24.71,13.82z"/>
		<path d="M24.75,23.38c3.21-0.01,5.78,1.03,8.01,2.94c1.47,1.26,1.64,3.44,0.43,4.92c-1,1.23-2.69,1.5-3.98,0.58
			c-0.81-0.58-1.6-1.17-2.57-1.48c-0.34-0.11-0.51-0.4-0.4-0.78c0.12-0.39,0.48-0.62,0.89-0.43c0.79,0.36,1.55,0.8,2.32,1.22
			c0.11,0.06,0.2,0.16,0.31,0.24c0.54,0.42,1.12,0.6,1.77,0.29c0.66-0.32,1.01-0.87,1.09-1.57c0.11-0.85-0.18-1.55-0.87-2.11
			c-2.24-1.84-4.81-2.71-7.7-2.47c-2.31,0.2-4.33,1.13-6.06,2.67c-0.83,0.74-0.97,1.93-0.38,2.84c0.58,0.91,1.67,1.1,2.53,0.4
			c0.86-0.69,1.77-1.27,2.84-1.57c0.12-0.04,0.25-0.07,0.38-0.08c0.4-0.04,0.68,0.13,0.76,0.52c0.07,0.38-0.14,0.62-0.48,0.75
			c-0.48,0.19-0.99,0.34-1.44,0.58c-0.44,0.24-0.84,0.55-1.24,0.86c-0.94,0.72-1.96,0.94-3.06,0.45c-1.1-0.49-1.71-1.36-1.9-2.54
			c-0.24-1.48,0.34-2.62,1.48-3.54C19.68,24.34,22.16,23.37,24.75,23.38z"/>
		<path d="M28.66,38.66c-0.01,2.09-1.64,3.68-3.76,3.67c-2.04-0.01-3.64-1.66-3.63-3.74c0.01-2.07,1.69-3.74,3.73-3.72
			C27.04,34.89,28.67,36.58,28.66,38.66z M27.35,38.6c0-1.33-1.06-2.38-2.38-2.38c-1.33,0-2.38,1.05-2.39,2.38
			c0,1.34,1.09,2.43,2.41,2.42C26.28,41.01,27.35,39.92,27.35,38.6z"/>
	</g>
</g>
</svg>
