<?xml version="1.0" standalone="no"?>
<!DOCTYPE svg PUBLIC "-//W3C//DTD SVG 20010904//EN"
 "http://www.w3.org/TR/2001/REC-SVG-20010904/DTD/svg10.dtd">
<svg version="1.0" xmlns="http://www.w3.org/2000/svg"
 width="512.000000pt" height="512.000000pt" viewBox="0 0 512.000000 512.000000"
 preserveAspectRatio="xMidYMid meet">

<g transform="translate(0.000000,512.000000) scale(0.100000,-0.100000)"
fill="#000000" stroke="none">
<path d="M1025 5106 c-37 -17 -80 -62 -94 -99 -6 -16 -11 -96 -11 -178 0 -129
3 -155 20 -189 24 -46 67 -79 115 -87 l35 -6 0 -228 c0 -242 4 -269 47 -288
34 -16 47 -14 77 10 l26 20 0 240 0 239 1320 0 1320 0 0 -745 c0 -732 0 -745
20 -765 27 -27 81 -26 106 1 18 20 19 50 22 769 l2 747 35 6 c48 8 92 41 115
87 17 34 20 60 20 189 0 160 -6 190 -48 235 -56 59 41 56 -1594 56 -1234 -1
-1508 -3 -1533 -14z m3023 -273 l3 -133 -1491 0 -1490 0 0 128 c0 71 3 132 7
135 3 4 673 6 1487 5 l1481 -3 3 -132z"/>
<path d="M1598 4204 c-52 -28 -58 -55 -58 -264 l0 -190 34 -38 34 -37 191 -3
c212 -4 235 2 272 61 18 29 19 47 17 225 l-3 194 -37 34 -38 34 -192 0 c-151
-1 -199 -4 -220 -16z m342 -259 l0 -125 -125 0 -125 0 0 125 0 125 125 0 125
0 0 -125z"/>
<path d="M2335 4198 c-48 -37 -55 -72 -54 -250 0 -186 8 -222 58 -255 32 -22
43 -23 221 -23 178 0 189 1 221 23 53 35 61 74 57 274 -3 156 -5 174 -24 200
-37 49 -54 53 -260 53 -181 0 -193 -1 -219 -22z m355 -253 l0 -125 -130 0
-130 0 0 125 0 125 130 0 130 0 0 -125z"/>
<path d="M3072 4186 l-37 -34 -3 -191 c-4 -212 2 -235 61 -272 29 -18 47 -19
225 -17 l194 3 34 37 34 38 0 190 c0 285 5 280 -280 280 l-190 0 -38 -34z
m358 -241 l0 -125 -125 0 -125 0 0 125 0 125 125 0 125 0 0 -125z"/>
<path d="M1119 3851 l-24 -19 -3 -1626 -2 -1626 -240 0 -240 0 0 655 0 655 51
-20 c72 -27 124 -65 165 -122 40 -54 69 -66 111 -46 39 18 51 59 31 100 -39
81 -161 183 -250 210 -21 6 -38 15 -38 20 0 17 130 70 205 83 42 7 85 21 96
31 28 25 26 88 -3 108 -54 38 -200 6 -370 -82 -15 -7 -8 23 16 74 13 29 47 75
75 103 34 35 51 60 51 77 0 35 -42 74 -80 74 -66 0 -199 -174 -216 -282 -4
-21 -8 -38 -11 -38 -2 0 -26 12 -54 26 -63 31 -187 64 -245 64 -51 0 -84 -28
-84 -71 0 -46 28 -68 99 -80 80 -12 161 -41 202 -69 l31 -23 -49 -17 c-131
-46 -274 -192 -256 -261 7 -25 50 -59 76 -59 12 0 46 29 86 71 66 72 141 119
189 119 l22 0 0 -649 0 -649 -117 -4 c-146 -6 -202 -27 -268 -100 -129 -143
-81 -369 95 -452 l45 -21 2345 0 2345 0 46 21 c175 81 222 309 94 452 -66 73
-122 94 -267 100 l-118 4 0 649 0 649 23 0 c45 0 125 -50 190 -120 38 -42 72
-70 84 -70 35 0 73 38 73 73 0 80 -126 202 -253 247 l-49 17 31 23 c41 28 122
57 202 69 45 7 69 17 82 32 42 52 3 119 -70 119 -55 0 -181 -33 -242 -64 -28
-14 -52 -26 -54 -26 -3 0 -7 17 -11 38 -10 64 -66 163 -127 224 -48 49 -63 58
-92 58 -26 0 -41 -7 -56 -26 -33 -42 -27 -68 30 -125 28 -28 62 -74 75 -103
24 -51 31 -81 17 -74 -171 88 -317 120 -371 82 -29 -20 -31 -83 -3 -108 11
-10 54 -24 96 -31 75 -13 205 -66 205 -83 0 -5 -17 -14 -38 -20 -89 -27 -211
-129 -250 -210 -20 -40 -8 -80 29 -101 39 -22 73 -7 113 47 41 57 93 95 165
122 l51 20 0 -655 0 -655 -240 0 -240 0 -2 1114 c-3 1079 -4 1115 -22 1135
-13 14 -31 21 -57 21 -74 0 -69 86 -69 -1157 l0 -1113 -285 0 -285 0 0 554 0
555 -24 28 -24 28 -702 0 -702 0 -24 -28 c-24 -28 -24 -29 -24 -258 0 -258 5
-282 61 -294 23 -5 38 -2 58 13 l26 19 5 199 5 199 258 3 257 2 0 -510 0 -510
-260 0 -260 0 0 193 c0 189 -1 194 -23 215 -29 27 -67 28 -98 3 -24 -19 -24
-23 -27 -215 l-3 -196 -285 0 -284 0 0 1625 0 1624 -22 21 c-27 25 -69 26 -99
1z m2039 -2763 l2 -508 -260 0 -260 0 0 510 0 510 258 -2 257 -3 3 -507z
m1751 -687 c83 -60 78 -177 -11 -231 -33 -20 -56 -20 -2338 -20 -2282 0 -2305
0 -2338 20 -39 24 -72 75 -72 113 0 65 50 128 110 140 14 2 1058 4 2320 3
l2295 -1 34 -24z"/>
<path d="M1604 3391 c-62 -38 -64 -46 -64 -256 0 -170 2 -193 20 -222 33 -55
47 -58 250 -58 278 0 280 2 280 282 0 268 -6 273 -282 273 -153 0 -177 -2
-204 -19z m336 -256 l0 -125 -125 0 -125 0 0 125 0 125 125 0 125 0 0 -125z"/>
<path d="M2353 3394 c-62 -31 -68 -49 -71 -249 -3 -199 3 -227 61 -269 26 -20
42 -21 217 -21 175 0 191 1 217 21 58 42 64 70 61 269 -4 262 -7 265 -280 265
-137 0 -180 -4 -205 -16z m337 -259 l0 -125 -130 0 -130 0 0 125 0 125 130 0
130 0 0 -125z"/>
<path d="M3103 3395 c-18 -8 -42 -29 -53 -47 -18 -30 -20 -50 -20 -211 0 -280
2 -282 280 -282 203 0 217 3 250 58 18 29 20 52 20 223 0 179 -1 193 -21 218
-40 51 -63 56 -251 56 -126 -1 -182 -5 -205 -15z m327 -260 l0 -125 -125 0
-125 0 0 125 0 125 125 0 125 0 0 -125z"/>
<path d="M1598 2574 c-52 -28 -58 -55 -58 -264 l0 -190 34 -38 34 -37 191 -3
c212 -4 235 2 271 61 18 29 20 51 20 210 0 278 0 277 -277 277 -147 -1 -194
-4 -215 -16z m342 -259 l0 -125 -125 0 -125 0 0 125 0 125 125 0 125 0 0 -125z"/>
<path d="M2331 2564 c-46 -38 -53 -78 -49 -269 5 -251 9 -255 278 -255 269 0
273 4 278 255 4 191 -3 231 -49 269 l-31 26 -198 0 -198 0 -31 -26z m359 -249
l0 -125 -130 0 -130 0 0 125 0 125 130 0 130 0 0 -125z"/>
<path d="M3088 2572 c-51 -31 -58 -63 -58 -259 0 -159 2 -181 20 -210 36 -59
59 -65 271 -61 l191 3 34 37 34 38 0 190 c0 284 4 280 -277 280 -159 0 -192
-3 -215 -18z m342 -257 l0 -125 -125 0 -125 0 0 125 0 125 125 0 125 0 0 -125z"/>
</g>
</svg>
