<?xml version="1.0" encoding="utf-8"?>
<!-- Generator: Adobe Illustrator 26.0.2, SVG Export Plug-In . SVG Version: 6.00 Build 0)  -->
<svg version="1.1" id="Layer_1" xmlns="http://www.w3.org/2000/svg" xmlns:xlink="http://www.w3.org/1999/xlink" x="0px" y="0px"
	 viewBox="0 0 50 50" style="enable-background:new 0 0 50 50;" xml:space="preserve">
<g>
	<path d="M21.84,48.11c-0.92-0.12-1.85-0.2-2.77-0.36C13.11,46.76,8.1,44,4.03,39.55c-0.32-0.35-0.63-0.77-0.8-1.21
		c-0.35-0.94,0.08-1.98,0.93-2.5c0.87-0.53,1.95-0.38,2.7,0.35c0.88,0.87,1.77,1.73,2.66,2.59c0.08,0.07,0.17,0.13,0.3,0.24
		c0.67-0.98,1.33-1.94,2.02-2.94c-2-1.66-3.59-3.63-4.73-5.96c-1.13-2.31-1.73-4.75-1.8-7.15c-0.49-0.36-0.96-0.59-1.26-0.96
		c-0.46-0.54-0.42-2.21-0.02-2.81c0.3-0.44,0.72-0.71,1.26-0.72c1.01-0.02,2.02-0.01,3.03,0c0.43,0,0.72,0.29,0.73,0.67
		c0.01,0.39-0.29,0.69-0.75,0.7c-0.89,0.01-1.78,0.02-2.66,0c-0.37-0.01-0.52,0.11-0.52,0.5c0.03,1.11-0.15,1.05,1.03,1.05
		c12.03,0,24.06,0,36.1-0.01c0.26,0,0.71-0.05,0.74-0.16c0.09-0.39,0.05-0.81,0.03-1.21c0-0.06-0.16-0.13-0.25-0.15
		c-0.15-0.03-0.3-0.01-0.46-0.01c-10.16,0-20.33,0-30.49,0c-0.12,0-0.24,0-0.37,0c-0.54-0.01-0.83-0.27-0.82-0.71
		c0.01-0.42,0.3-0.66,0.81-0.66c2.13,0,4.26-0.01,6.38,0.01c0.32,0,0.48-0.09,0.62-0.39c1.37-2.98,2.76-5.95,4.15-8.92
		c0.31-0.66,0.66-0.87,1.09-0.66c0.42,0.2,0.47,0.59,0.17,1.23c-1.28,2.74-2.56,5.48-3.83,8.21c-0.07,0.15-0.13,0.3-0.22,0.52
		c0.61,0,1.17,0.02,1.73-0.02c0.12-0.01,0.28-0.19,0.35-0.33c1.25-2.66,2.5-5.33,3.74-8c0.94-2.01,1.87-4.01,2.81-6.02
		c0.09-0.19,0.18-0.39,0.21-0.6C28.7,3.09,28.43,2.71,28,2.58c-0.4-0.12-0.82,0.06-1.03,0.48c-0.38,0.77-0.73,1.55-1.09,2.32
		c-0.21,0.44-0.41,0.89-0.62,1.32c-0.21,0.41-0.58,0.55-0.95,0.37c-0.34-0.17-0.48-0.54-0.3-0.94c0.58-1.26,1.15-2.53,1.77-3.77
		c0.44-0.89,1.46-1.35,2.38-1.17c1.02,0.21,1.74,0.98,1.85,2.01c0.01,0.09,0.02,0.18,0.03,0.29c0.58,0.1,1.16,0.17,1.72,0.3
		c2.8,0.64,4.88,2.23,6.27,4.74c0.1,0.18,0.25,0.35,0.42,0.47c2.92,2.01,4.37,4.78,4.33,8.32c0,0.34,0,0.67,0,1.01
		c0,0.03,0.01,0.06,0.01,0.07c0.33,0.14,0.65,0.26,0.96,0.41c0.95,0.46,0.94,3.19,0.01,3.64c-0.3,0.14-0.61,0.27-0.92,0.4
		c-0.14,1-0.21,2.06-0.45,3.07c-0.25,1.11-0.64,2.19-1,3.28c-0.15,0.46-0.55,0.63-0.94,0.47c-0.37-0.15-0.51-0.55-0.32-1.01
		c0.67-1.62,1.08-3.3,1.22-5.05c0.02-0.26,0.03-0.51,0.05-0.8c-11.58,0-23.13,0-34.8,0c0.16,1.08,0.25,2.15,0.48,3.18
		C8.6,32.59,14,37.62,20.74,38.52c3.62,0.49,7.24,0.38,10.69-1.11c2.93-1.26,5.29-3.2,7.11-5.82c0.08-0.11,0.15-0.23,0.23-0.34
		c0.26-0.32,0.62-0.39,0.93-0.19c0.33,0.21,0.44,0.61,0.2,0.96c-0.45,0.64-0.89,1.28-1.41,1.87c-0.66,0.76-1.39,1.46-2.13,2.23
		c0.62,0.9,1.28,1.87,2.01,2.93c0.93-0.93,1.84-1.81,2.72-2.72c0.42-0.43,0.89-0.74,1.51-0.78c0.92-0.07,1.76,0.39,2.14,1.2
		c0.42,0.88,0.33,1.74-0.35,2.42c-1.19,1.2-2.38,2.44-3.7,3.48c-4.11,3.23-8.82,5-14.04,5.38c-0.14,0.01-0.27,0.05-0.4,0.07
		C24.78,48.11,23.31,48.11,21.84,48.11z M34.11,37.6c0.66,0.96,1.29,1.87,1.91,2.8c0.57,0.84,0.37,1.61-0.54,2.09
		c-0.2,0.11-0.41,0.21-0.61,0.31c-3.68,1.81-7.59,2.42-11.66,2.33c-3.66-0.08-7.12-0.87-10.38-2.52c-1.13-0.57-1.31-1.29-0.6-2.32
		c0.6-0.88,1.2-1.76,1.82-2.65c-0.38-0.25-0.73-0.47-1.11-0.71c-0.65,0.94-1.28,1.87-1.92,2.8c-0.59,0.85-1.38,0.99-2.14,0.3
		c-0.99-0.89-1.93-1.82-2.88-2.75c-0.41-0.4-0.85-0.48-1.21-0.17C4.4,37.43,4.4,37.92,4.8,38.37c2.86,3.22,6.31,5.56,10.38,6.99
		c3.16,1.11,6.43,1.44,9.76,1.38c5.06-0.09,9.69-1.51,13.87-4.38c1.66-1.14,3.15-2.48,4.48-3.98c0.43-0.48,0.41-1-0.04-1.31
		c-0.36-0.25-0.76-0.16-1.14,0.21c-0.92,0.9-1.82,1.81-2.78,2.66c-0.83,0.75-1.6,0.61-2.23-0.3c-0.62-0.91-1.24-1.81-1.88-2.74
		C34.85,37.13,34.51,37.35,34.11,37.6z M23.26,18.49c0.4,0,0.75-0.02,1.1,0.01c0.47,0.04,0.83-0.1,1.2-0.4
		c2.66-2.15,5.34-4.28,8.01-6.42c1.06-0.85,2.12-1.7,3.23-2.59c-0.31-0.43-0.57-0.86-0.89-1.24c-1.5-1.8-3.47-2.68-5.77-2.93
		c-0.43-0.05-0.6,0.05-0.78,0.43c-1.96,4.23-3.93,8.46-5.91,12.69C23.4,18.16,23.34,18.3,23.26,18.49z M13.26,41.23
		c5.85,3.47,16.19,3.31,21.63-0.05c-0.66-0.97-1.33-1.93-1.96-2.86c-5.93,2.44-11.8,2.43-17.71,0.03
		C14.58,39.29,13.92,40.26,13.26,41.23z M41.37,18.48c0.31-3.48-0.72-6.31-3.69-8.33c-3.45,2.76-6.88,5.51-10.41,8.33
		C32.06,18.48,36.7,18.48,41.37,18.48z"/>
</g>
</svg>
