<?xml version="1.0" encoding="utf-8"?>
<!-- Generator: Adobe Illustrator 26.0.2, SVG Export Plug-In . SVG Version: 6.00 Build 0)  -->
<svg version="1.1" id="Layer_1" xmlns="http://www.w3.org/2000/svg" xmlns:xlink="http://www.w3.org/1999/xlink" x="0px" y="0px"
	 viewBox="0 0 50 50" style="enable-background:new 0 0 50 50;" xml:space="preserve">
<g>
	<path d="M26.42,1c0.16,0.04,0.32,0.09,0.49,0.13c2.12,0.54,3.48,2.33,3.51,4.63c0.01,0.87,0,1.74,0,2.5
		c1.23,0.33,2.37,0.64,3.54,0.96c0-1.31,0-2.72,0-4.17c0.96,0,1.87,0,2.84,0c0,0.19,0,0.37,0,0.55c0,4.22,0,8.44,0.01,12.66
		c0,0.37,0.06,0.75,0.16,1.1c2.88,9.69,5.78,19.38,8.67,29.07c0.05,0.18,0.09,0.36,0.15,0.57c-0.98,0-1.93,0-2.92,0
		c-0.48-1.61-0.96-3.22-1.44-4.83c-2.32-7.77-4.64-15.55-6.95-23.33c-0.09-0.32-0.22-0.44-0.57-0.44
		c-8.82,0.01-17.63,0.01-26.45,0.01c-0.12,0-0.25,0-0.4,0c0,4.32,0,8.61,0,12.82c1.13-0.31,2.29-0.63,3.53-0.97
		c0-0.74,0-1.61,0-2.48c0-1.23,0.36-2.34,1.21-3.26c0.9-0.98,2.03-1.51,3.36-1.51c3.56-0.02,7.13-0.02,10.69,0
		c2.59,0.02,4.52,2.04,4.57,4.72c0.02,0.87,0,1.75,0,2.66c0.42,0.06,0.82,0.09,1.21,0.17c2.99,0.61,5.09,3.04,5.15,6.13
		c0.07,3.37,0.02,6.75,0.02,10.13c0,0.04-0.02,0.09-0.03,0.17c-0.91,0-1.82,0-2.77,0c0-1.51,0-3,0-4.53c-9,0-17.96,0-26.96,0
		c0,1.51,0,3.01,0,4.53c-0.95,0-1.86,0-2.8,0c-0.01-0.17-0.02-0.32-0.02-0.48c0-11.18,0-22.35,0-33.53c0-3.23,2.05-5.78,5.14-6.43
		c0.38-0.08,0.77-0.11,1.24-0.17c0-0.19-0.01-0.4,0-0.61c0.03-1.01-0.03-2.04,0.11-3.04c0.26-1.79,1.75-3.24,3.55-3.63
		c0.12-0.03,0.24-0.07,0.35-0.1C18.54,1,22.48,1,26.42,1z M7.11,17.57c8.92,0,17.88,0,26.88,0c0-0.53,0.01-1.02,0-1.52
		c-0.02-0.73,0.03-1.48-0.1-2.19c-0.29-1.58-1.69-2.62-3.42-2.62c-4.67,0-9.34,0-14.02,0c-2,0-4-0.01-6,0
		c-1.65,0.01-3.11,1.09-3.3,2.63C6.99,15.08,7.11,16.32,7.11,17.57z M33.99,41.59c0-0.37,0-0.69,0-1.02c0-0.61,0.01-1.22,0-1.83
		c-0.03-2.08-1.45-3.49-3.53-3.49c-5.19-0.01-10.38,0-15.56,0c-1.48,0-2.97-0.01-4.45,0c-1.63,0.02-3.08,1.06-3.29,2.59
		c-0.16,1.22-0.03,2.48-0.03,3.75C16.03,41.59,24.98,41.59,33.99,41.59z M13.43,32.4c4.75,0,9.45,0,14.18,0c0-0.84,0-1.65,0-2.46
		c0-0.17,0-0.34-0.03-0.51c-0.13-0.94-0.84-1.59-1.79-1.59c-3.53-0.01-7.06-0.01-10.6,0c-0.92,0-1.69,0.64-1.76,1.56
		C13.37,30.38,13.43,31.38,13.43,32.4z M27.57,8.4c0-1.05,0.06-2.07-0.02-3.07c-0.06-0.87-0.82-1.48-1.7-1.51
		c-0.37-0.01-0.75,0-1.13,0c-3.14,0-6.28,0-9.42,0c-0.91,0-1.72,0.5-1.8,1.32C13.4,6.21,13.48,7.3,13.48,8.4
		C18.16,8.4,22.84,8.4,27.57,8.4z"/>
</g>
</svg>
