<?xml version="1.0" encoding="utf-8"?>
<!-- Generator: Adobe Illustrator 26.0.2, SVG Export Plug-In . SVG Version: 6.00 Build 0)  -->
<svg version="1.1" id="Layer_1" xmlns="http://www.w3.org/2000/svg" xmlns:xlink="http://www.w3.org/1999/xlink" x="0px" y="0px"
	 viewBox="0 0 50 38" style="enable-background:new 0 0 50 38;" xml:space="preserve">
<path d="M49.9,19.73c-0.47-2.09-1.74-3.41-3.81-3.93c-0.61-0.15-1.25-0.12-1.93-0.19V5.08c-0.01-2.66-1.74-4.4-4.4-4.41
	c-0.78-0.01-1.55,0-2.33,0h-4.55c-0.09,0.01-0.18,0-0.27,0H25c-2.53,0-5.06,0-7.61,0.01c-0.06,0-0.1,0-0.15-0.01H10.3
	c-0.4,0-0.79,0.01-1.16,0.1c-1.97,0.43-3.28,2.06-3.28,4.1c-0.02,3.39-0.01,6.77-0.01,10.16v0.62H5.27
	C2.14,15.67,0.01,17.81,0,20.94v10.15c0,1.76,0.68,2.58,2.41,2.94c0.03,0,0.05,0.03,0.1,0.08c0,0.17,0.01,0.36,0,0.55
	c-0.02,0.72,0.15,1.39,0.68,1.86c0.38,0.34,0.87,0.54,1.31,0.8h2.63c1.25-0.41,2.01-1.2,2.05-2.58v-0.71h31.66
	c-0.17,1.6,0.41,2.79,2.03,3.29h2.63c0.44-0.26,0.93-0.46,1.3-0.79c0.54-0.47,0.71-1.15,0.69-1.86c-0.01-0.2,0-0.42,0-0.64
	c0.73-0.08,1.39-0.28,1.83-0.85c0.28-0.36,0.45-0.81,0.68-1.22V20.05C49.97,19.95,49.93,19.83,49.9,19.73z M7.52,5.06
	c0-1.7,0.99-2.71,2.68-2.71c9.88-0.01,19.76-0.01,29.62,0c1.67,0,2.67,1.02,2.67,2.68c0.01,3.39,0.01,6.77,0.01,10.15v0.46h-1.67
	c0-1.94,0.01-3.88,0-5.8c-0.01-1.41-1.06-2.49-2.46-2.49c-3.36-0.02-6.7-0.02-10.06,0c-1.24,0-2.36,0.92-2.41,2.1
	c-0.08,1.92-0.02,3.83-0.01,5.75c0,0.14,0.03,0.26,0.07,0.42h-1.82c0-2.06,0.06-4.1-0.01-6.14c-0.05-1.23-1.18-2.14-2.49-2.15
	c-2.83-0.01-5.66,0-8.49,0c-0.52,0-1.05-0.01-1.57,0.01c-1.32,0.03-2.37,1.09-2.4,2.41c-0.01,1.71,0,3.41,0,5.12
	c0,0.24,0.06,0.49,0.09,0.76H7.54c-0.01-0.16-0.02-0.32-0.02-0.47C7.5,11.8,7.5,8.43,7.52,5.06z M39.16,9.99v4.69
	c0,0.68-0.29,0.98-0.98,0.98h-9.62c-0.78,0-1.05-0.27-1.05-1.05c0-1.54-0.01-3.06,0-4.59c0-0.73,0.28-1.02,0.99-1.02h9.67
	C38.86,9.01,39.16,9.31,39.16,9.99z M22.49,10.07c0.01,1.51,0.01,3.03,0,4.54c0,0.78-0.27,1.05-1.05,1.05h-9.57
	c-0.75,0-1.03-0.28-1.03-1.04v-4.59c0-0.75,0.28-1.03,1.04-1.03h9.56C22.22,9.01,22.49,9.28,22.49,10.07z M7.5,34.73
	c-0.02,0.61-0.33,0.93-0.94,0.94c-0.45,0.01-0.9,0-1.37,0c-0.73,0-1.02-0.29-1.02-1.04v-0.58H7.5C7.5,34.31,7.52,34.51,7.5,34.73z
	 M45.82,34.67c-0.01,0.7-0.29,0.99-1.02,0.99c-0.41,0.01-0.81,0-1.22,0c-0.79,0-1.09-0.28-1.09-1.07c-0.01-0.18,0-0.35,0-0.55h3.32
	C45.82,34.29,45.83,34.48,45.82,34.67z M48.34,31.18c0,0.89-0.27,1.16-1.18,1.16H2.95c-1.06,0-1.29-0.23-1.29-1.3
	c0-3.37,0-6.74,0.01-10.1c0-2.23,1.39-3.62,3.63-3.62h39.39c2.27,0,3.64,1.39,3.65,3.65V31.18z"/>
</svg>
