<?xml version="1.0" encoding="utf-8"?>
<!-- Generator: Adobe Illustrator 26.0.2, SVG Export Plug-In . SVG Version: 6.00 Build 0)  -->
<svg version="1.1" id="Layer_1" xmlns="http://www.w3.org/2000/svg" xmlns:xlink="http://www.w3.org/1999/xlink" x="0px" y="0px"
	 viewBox="0 0 50 50" style="enable-background:new 0 0 50 50;" xml:space="preserve">
<g>
	<path d="M25.09,45.93c-7.14,0-14.29,0-21.43,0c-2.46,0-3.54-1.08-3.53-3.56c0-1.57,0.11-3.15,0.01-4.72
		c-0.17-2.74,0.34-5.35,1.1-7.97C3.4,22.17,5.47,14.62,7.57,7.09C8.03,5.43,8.98,4.7,10.7,4.7c9.62,0,19.24,0,28.86,0
		c1.68,0,2.66,0.73,3.11,2.34c2.43,8.68,4.86,17.35,7.26,26.04c0.16,0.56,0.16,1.17,0.16,1.76c0.01,2.73,0.02,5.45-0.01,8.18
		c-0.01,1.37-0.79,2.41-2.03,2.76c-0.42,0.12-0.87,0.15-1.31,0.15C39.53,45.94,32.31,45.93,25.09,45.93z M25.1,35.46
		c5.72,0,11.44,0,17.17,0c1.59,0,3.19,0.01,4.78-0.01c0.85-0.01,1.35-0.55,1.3-1.4c-0.01-0.25-0.07-0.49-0.14-0.73
		c-2.38-8.53-4.76-17.06-7.14-25.59c-0.33-1.18-0.49-1.3-1.73-1.3c-9.54,0-19.09,0-28.63,0.01c-0.96,0-1.19,0.17-1.45,1.12
		c-2.41,8.62-4.81,17.25-7.24,25.86c-0.35,1.24,0.23,2.07,1.59,2.06C10.78,35.44,17.94,35.46,25.1,35.46z M1.89,37.05
		c0,1.92,0,3.88,0,5.83c0,0.91,0.42,1.32,1.36,1.32c14.57,0,29.15,0,43.72,0c1.02,0,1.41-0.41,1.42-1.44c0-1.75,0-3.49,0-5.24
		c0-0.18-0.02-0.36-0.02-0.46c-0.84,0.05-1.61,0.13-2.39,0.13c-14.07,0.01-28.15,0.01-42.22,0C3.15,37.18,2.56,37.1,1.89,37.05z"/>
	<path d="M13.58,29.71c0,0.63-0.51,1.14-1.13,1.13c-0.61-0.01-1.1-0.51-1.1-1.1c-0.01-0.63,0.5-1.16,1.11-1.16
		C13.07,28.57,13.58,29.08,13.58,29.71z"/>
	<path d="M26.24,29.69c0.01,0.64-0.48,1.15-1.11,1.15c-0.6,0-1.11-0.48-1.13-1.08c-0.02-0.64,0.46-1.17,1.08-1.19
		C25.7,28.55,26.23,29.06,26.24,29.69z"/>
	<path d="M39,29.69c0.01,0.61-0.52,1.15-1.13,1.15c-0.59,0-1.12-0.51-1.14-1.08c-0.02-0.61,0.5-1.16,1.11-1.18
		C38.43,28.56,38.99,29.09,39,29.69z"/>
	<path d="M16.09,11.32c0.01,0.63-0.5,1.14-1.13,1.14c-0.6,0-1.11-0.49-1.13-1.08c-0.02-0.62,0.49-1.15,1.1-1.17
		C15.57,10.2,16.08,10.69,16.09,11.32z"/>
	<path d="M35.38,12.46c-0.63,0.01-1.15-0.51-1.15-1.12c0.01-0.63,0.52-1.14,1.14-1.13c0.61,0.01,1.09,0.49,1.11,1.09
		C36.51,11.93,36.01,12.45,35.38,12.46z"/>
	<path d="M37.72,20.34c-0.02,0.63-0.54,1.12-1.17,1.09c-0.61-0.02-1.1-0.52-1.1-1.11c0.01-0.63,0.52-1.13,1.14-1.13
		C37.21,19.2,37.73,19.73,37.72,20.34z"/>
	<path d="M13.76,19.19c0.63,0.01,1.13,0.53,1.11,1.15c-0.02,0.61-0.5,1.09-1.11,1.09c-0.63,0-1.15-0.5-1.14-1.12
		C12.63,19.68,13.14,19.19,13.76,19.19z"/>
	<path d="M26.24,11.33c0,0.63-0.5,1.14-1.13,1.13c-0.61-0.01-1.1-0.49-1.11-1.09c-0.01-0.64,0.47-1.15,1.1-1.16
		C25.74,10.2,26.24,10.69,26.24,11.33z"/>
	<path d="M26.25,20.29c0.01,0.64-0.48,1.14-1.11,1.14c-0.61,0-1.11-0.47-1.13-1.07c-0.02-0.64,0.46-1.16,1.08-1.17
		C25.73,19.18,26.23,19.66,26.25,20.29z"/>
</g>
</svg>
