<?xml version="1.0" encoding="utf-8"?>
<!-- Generator: Adobe Illustrator 26.0.2, SVG Export Plug-In . SVG Version: 6.00 Build 0)  -->
<svg version="1.1" id="Layer_1" xmlns="http://www.w3.org/2000/svg" xmlns:xlink="http://www.w3.org/1999/xlink" x="0px" y="0px"
	 viewBox="0 0 50 50" style="enable-background:new 0 0 50 50;" xml:space="preserve">
<g>
	<path d="M50,24.52c-0.54,1.16-0.88,1.42-2.08,1.62c-0.27,1.03-0.47,2.09-0.82,3.09c-2.92,8.5-8.76,13.91-17.53,15.81
		C17.31,47.7,5.22,39.92,2.27,27.72c-0.04-0.17-0.1-0.35-0.11-0.52c-0.06-0.65-0.22-1.11-0.98-1.36c-0.85-0.28-1.24-1.31-1.05-2.19
		c0.2-0.89,0.95-1.55,1.87-1.58c0.36-0.01,0.59-0.14,0.81-0.41c2.1-2.6,4.22-5.19,6.32-7.8c0.16-0.19,0.24-0.49,0.25-0.75
		c0.02-2.66,0.01-5.33,0.01-7.99c0-0.13-0.01-0.26,0-0.39C9.41,4.34,9.59,4.06,10,4.06c0.41,0,0.61,0.28,0.61,0.68
		c0.01,1.01,0,2.01,0,3.02c0,1.79-0.01,3.57,0.01,5.36c0,0.23,0.1,0.51,0.25,0.69c2.14,2.66,4.29,5.3,6.45,7.94
		c0.12,0.14,0.33,0.27,0.51,0.29c1.22,0.11,1.98,0.75,2.11,1.83c0.11,0.95-0.55,1.85-1.63,2.19c-0.04,0.01-0.09,0.03-0.16,0.06
		c0.36,1.75,1.1,3.31,2.15,4.74c1.21,1.65,2.73,2.95,4.53,3.93c0.16,0.09,0.46,0.12,0.61,0.03c3.27-1.86,5.57-4.51,6.57-8.2
		c0.03-0.11,0.05-0.22,0.07-0.33c0.01-0.05-0.01-0.09,0-0.03c-0.49-0.28-0.97-0.47-1.33-0.79c-0.61-0.56-0.78-1.3-0.47-2.09
		c0.31-0.79,0.91-1.27,1.77-1.31c0.4-0.01,0.64-0.17,0.89-0.47c2.02-2.52,4.06-5.03,6.1-7.54c0.29-0.36,0.43-0.71,0.43-1.18
		c-0.02-2.6-0.01-5.2-0.01-7.8c0-0.15,0-0.29,0-0.44c0.02-0.36,0.23-0.59,0.58-0.6c0.38-0.01,0.59,0.23,0.61,0.62
		c0.01,0.15,0,0.29,0,0.44c0,2.63-0.01,5.26,0.01,7.89c0,0.25,0.1,0.55,0.26,0.74c2.16,2.68,4.33,5.35,6.51,8.02
		c0.1,0.13,0.28,0.27,0.42,0.27c1.12,0.01,1.77,0.61,2.14,1.6C50,23.93,50,24.22,50,24.52z M7.55,26.1c0.07,0.22,0.1,0.34,0.14,0.46
		c2.11,5.75,5.96,9.93,11.47,12.57c2.85,1.37,5.87,2.05,9.03,2.07c0.57,0.01,0.86,0.25,0.85,0.65c-0.01,0.39-0.29,0.61-0.85,0.58
		c-1.07-0.07-2.14-0.11-3.2-0.28c-5.93-0.92-10.79-3.74-14.62-8.35c-1.81-2.18-3.13-4.65-4.03-7.34c-0.05-0.14-0.16-0.35-0.25-0.35
		c-0.95-0.03-1.9-0.02-2.85-0.02c1.5,9.59,10.13,18.08,21.37,18.23c3.99,0.05,7.71-0.91,11.17-2.88c3.27-1.86,7.86-6.49,8.11-8.18
		c-0.13,0.12-0.25,0.23-0.37,0.34c-5.1,4.67-13.04,5.69-19.22,2.24c-3.75-2.09-6.29-5.16-7.33-9.38c-0.08-0.31-0.22-0.37-0.5-0.37
		c-1.62,0.01-3.25,0-4.87,0.01c-0.09,0-0.18,0.02-0.31,0.03c0.07,0.17,0.1,0.29,0.16,0.4c2.26,4.72,5.72,8.27,10.43,10.56
		c2.93,1.43,6.04,2.14,9.31,2.16c0.56,0.01,0.88,0.25,0.87,0.64c-0.01,0.39-0.33,0.62-0.9,0.59c-0.83-0.04-1.66-0.07-2.48-0.17
		c-6.05-0.75-11.06-3.46-15.01-8.09c-1.48-1.73-2.64-3.65-3.55-5.73c-0.07-0.15-0.23-0.36-0.36-0.37C9.05,26.08,8.33,26.1,7.55,26.1
		z M26.68,35.64c0,0,0.04,0.05,0.08,0.06c0.2,0.08,0.39,0.15,0.59,0.22c2.79,0.92,5.64,1.07,8.49,0.38c4.28-1.03,7.64-3.34,9.71-7.3
		c0.46-0.89,0.74-1.87,1.12-2.83c-0.17-0.05-0.2-0.06-0.23-0.06c-4.24,0-8.47,0-12.71-0.01c-0.27,0-0.35,0.11-0.41,0.36
		c-0.63,2.79-2.02,5.15-4.1,7.1C28.42,34.3,27.53,34.94,26.68,35.64z M4.07,22.01c4,0,7.91,0,11.89,0
		c-2.02-2.47-3.98-4.88-5.96-7.32C8.01,17.15,6.06,19.55,4.07,22.01z M46.08,22.03c-2.03-2.48-4.01-4.88-6.01-7.33
		c-1.98,2.46-3.91,4.86-5.91,7.33C38.17,22.03,42.07,22.03,46.08,22.03z M10.03,23.26c-2.58,0-5.16,0-7.74,0
		c-0.61,0-0.99,0.34-0.97,0.84c0.02,0.49,0.4,0.78,0.98,0.78c2.26,0,4.51,0,6.77,0c2.92,0,5.84,0,8.76,0c0.5,0,0.87-0.31,0.9-0.77
		c0.03-0.46-0.3-0.82-0.8-0.86c-0.08-0.01-0.16,0-0.24,0C15.13,23.26,12.58,23.26,10.03,23.26z M40.07,24.89c2.56,0,5.13,0,7.69,0
		c0.61,0,1.01-0.32,1.02-0.81c0.01-0.5-0.41-0.82-1.05-0.82c-5.1,0-10.2,0-15.3,0c-0.66,0-1.06,0.3-1.06,0.81
		c0,0.51,0.39,0.82,1.05,0.82C34.97,24.89,37.52,24.89,40.07,24.89z"/>
</g>
</svg>
