<?xml version="1.0" encoding="utf-8"?>
<!-- Generator: Adobe Illustrator 26.0.2, SVG Export Plug-In . SVG Version: 6.00 Build 0)  -->
<svg version="1.1" id="Layer_1" xmlns="http://www.w3.org/2000/svg" xmlns:xlink="http://www.w3.org/1999/xlink" x="0px" y="0px"
	 viewBox="0 0 50 50" style="enable-background:new 0 0 50 50;" xml:space="preserve">
<g>
	<path d="M6.86,47.99c-0.39-0.23-0.82-0.42-1.15-0.71c-0.48-0.42-0.63-1.02-0.6-1.65c0.01-0.17,0-0.34,0-0.49
		c-0.05-0.04-0.07-0.07-0.09-0.08c-1.53-0.31-2.13-1.04-2.13-2.59c0-2.99,0-5.99,0-8.98c0-2.77,1.88-4.66,4.66-4.67
		c0.15,0,0.31,0,0.51,0c0-0.22,0-0.39,0-0.55c0-2.99-0.01-5.99,0-8.98c0.01-1.82,1.17-3.26,2.9-3.64c0.33-0.07,0.69-0.08,1.03-0.08
		c1.25-0.01,2.5,0,3.76,0c0.16,0,0.31,0,0.52,0c-0.25-1.1-0.48-2.14-0.72-3.19c-0.26-1.16-0.54-2.32-0.8-3.49
		c-0.34-1.49,0.77-2.56,2.26-2.2c1.03,0.26,2.06,0.51,3.09,0.79c0.29,0.08,0.49,0.04,0.71-0.19c0.91-0.96,1.85-1.89,2.78-2.84
		c0.88-0.89,1.92-0.89,2.8,0c0.95,0.96,1.9,1.92,2.85,2.89c0.17,0.17,0.31,0.23,0.56,0.16c1.07-0.29,2.14-0.55,3.22-0.82
		c1.43-0.35,2.55,0.72,2.23,2.16c-0.4,1.8-0.82,3.59-1.22,5.38c-0.1,0.42-0.19,0.84-0.3,1.31c0.18,0.01,0.33,0.03,0.48,0.03
		c1.28,0,2.56,0,3.84,0c2.35,0.01,3.89,1.55,3.89,3.9c0,2.94,0,5.87,0,8.81c0,0.17,0,0.34,0,0.5c0.6,0.06,1.17,0.04,1.71,0.18
		c1.83,0.45,2.96,1.63,3.38,3.47c0.02,0.1,0.06,0.19,0.08,0.29c0,3.51,0,7.03,0,10.54c-0.2,0.36-0.35,0.76-0.6,1.08
		c-0.39,0.5-0.97,0.68-1.62,0.75c0,0.2,0,0.39,0,0.57c0.02,0.63-0.13,1.22-0.61,1.64c-0.33,0.29-0.76,0.48-1.15,0.71
		c-0.78,0-1.56,0-2.33,0c-1.44-0.45-1.95-1.49-1.8-2.91c-9.37,0-18.68,0-28.01,0c0,0.23,0,0.43,0,0.63
		c-0.03,1.22-0.7,1.93-1.81,2.28C8.41,47.99,7.63,47.99,6.86,47.99z M25.01,43.58c6.54,0,13.07,0,19.61,0c0.8,0,1.03-0.24,1.03-1.03
		c0-3.01,0-6.02,0-9.03c0-2.01-1.22-3.23-3.23-3.23c-11.62,0-23.23,0-34.85,0c-1.98,0-3.21,1.23-3.21,3.2c0,2.98,0,5.96,0,8.94
		c0,0.95,0.19,1.14,1.13,1.14C11.99,43.58,18.5,43.58,25.01,43.58z M40.48,28.8c0-0.16,0-0.28,0-0.41c0-2.99,0-5.99,0-8.98
		c0-1.48-0.89-2.37-2.36-2.37c-8.74,0-17.47,0-26.21,0c-1.49,0-2.37,0.9-2.38,2.4c0,2.98,0,5.96,0,8.94c0,0.14,0.01,0.28,0.02,0.42
		c0.54,0,1.03,0,1.53,0C11.05,28.56,11,28.34,11,28.13c-0.01-1.51-0.02-3.02,0-4.53c0.01-1.17,0.95-2.1,2.12-2.13
		c0.46-0.01,0.92-0.01,1.38-0.01c2.5,0,5.01-0.01,7.51,0c1.16,0,2.16,0.81,2.2,1.9c0.06,1.81,0.02,3.62,0.02,5.43
		c0.5,0,1.05,0,1.61,0c-0.03-0.14-0.06-0.26-0.06-0.37c0-1.7-0.05-3.4,0.01-5.09c0.04-1.05,1.03-1.86,2.13-1.86
		c2.97-0.01,5.93-0.01,8.9,0c1.24,0.01,2.17,0.95,2.18,2.2c0.01,1.71,0,3.41,0,5.13C39.43,28.8,39.92,28.8,40.48,28.8z M24.97,12.6
		c2.48,0,4.95-0.01,7.43,0.01c0.35,0,0.53-0.06,0.61-0.46c0.23-1.17,0.52-2.33,0.78-3.49c0.12-0.54-0.01-0.66-0.55-0.52
		c-1.16,0.29-2.32,0.57-3.47,0.89c-0.52,0.14-0.9,0.05-1.27-0.35c-1-1.05-2.03-2.08-3.06-3.11C25,5.12,25,5.12,24.54,5.58
		c-1.01,1.03-2.04,2.04-3.02,3.08c-0.39,0.41-0.78,0.51-1.31,0.36c-1.15-0.32-2.31-0.6-3.47-0.89c-0.51-0.13-0.65-0.01-0.54,0.5
		c0.26,1.18,0.55,2.35,0.79,3.53c0.08,0.37,0.24,0.44,0.58,0.44C20.04,12.59,22.51,12.6,24.97,12.6z M17.61,28.82
		c1.41,0,2.82,0,4.23,0c0.69,0,0.93-0.24,0.94-0.93c0-1.34,0-2.68,0-4.02c0-0.7-0.24-0.94-0.93-0.94c-2.82,0-5.64,0-8.47,0
		c-0.66,0-0.91,0.25-0.92,0.91c0,1.35,0,2.71,0,4.06c0,0.66,0.25,0.91,0.91,0.92C14.79,28.82,16.2,28.82,17.61,28.82z M32.39,28.82
		c1.43,0,2.85,0,4.28,0c0.6,0,0.86-0.27,0.87-0.87c0-1.38,0-2.76,0-4.15c0-0.6-0.27-0.87-0.87-0.87c-2.85,0-5.7,0-8.55,0
		c-0.63,0-0.88,0.25-0.88,0.89c-0.01,1.35,0,2.71,0,4.06c0,0.69,0.24,0.93,0.94,0.93C29.57,28.82,30.98,28.82,32.39,28.82z
		 M32.54,14.11c-5.04,0-10.03,0-15.07,0c0.07,0.35,0.17,0.67,0.2,0.99c0.04,0.38,0.23,0.47,0.6,0.47c4.49-0.01,8.97-0.01,13.46-0.01
		c0.1,0,0.21,0.02,0.3-0.01c0.08-0.02,0.19-0.09,0.21-0.16C32.35,14.98,32.44,14.56,32.54,14.11z M43.42,45.08c-1,0-1.95,0-2.95,0
		c0,0.18,0,0.33,0,0.49c0.01,0.7,0.26,0.95,0.97,0.96c0.36,0,0.72,0,1.08,0c0.63-0.01,0.89-0.26,0.9-0.88
		C43.43,45.47,43.42,45.3,43.42,45.08z M9.52,45.09c-0.98,0-1.94,0-2.95,0c0,0.18,0,0.34,0,0.51c0.01,0.66,0.26,0.91,0.91,0.92
		c0.4,0,0.8,0.01,1.21,0c0.54-0.01,0.81-0.29,0.83-0.83C9.53,45.5,9.52,45.32,9.52,45.09z"/>
</g>
<circle cx="13.94" cy="5.61" r="0.92"/>
<circle cx="25" cy="1.92" r="0.92"/>
<circle cx="36.06" cy="5.61" r="0.92"/>
</svg>
