<?xml version="1.0" encoding="utf-8"?>
<!-- Generator: Adobe Illustrator 26.0.2, SVG Export Plug-In . SVG Version: 6.00 Build 0)  -->
<svg version="1.1" id="Layer_1" xmlns="http://www.w3.org/2000/svg" xmlns:xlink="http://www.w3.org/1999/xlink" x="0px" y="0px"
	 viewBox="0 0 50 33" style="enable-background:new 0 0 50 33;" xml:space="preserve">
<g>
	<path d="M49,20.79c-0.22,0.85-0.49,1.66-1.06,2.36c-0.99,1.23-2.27,1.87-3.84,1.93c-0.09,0-0.19,0.01-0.28,0.02
		c-0.01,0-0.03,0.01-0.1,0.05c0.22,0.6,0.45,1.2,0.67,1.81c0.38,1.05,0.11,1.99-0.72,2.57c-0.01,0.01-0.02,0.02-0.04,0.03
		c-1.07,0.71-3.18,0.36-3.96-0.66c-0.89-1.17-1.78-2.34-2.65-3.52c-0.17-0.22-0.34-0.31-0.62-0.31c-7.61,0.01-15.21,0-22.82,0.02
		c-0.19,0-0.45,0.13-0.57,0.28c-0.89,1.14-1.77,2.3-2.63,3.47c-0.52,0.71-1.18,1.09-2.08,1.04c-0.25-0.01-0.5,0-0.75,0
		c-1.55-0.03-2.47-1.33-1.98-2.81c0.22-0.65,0.47-1.28,0.7-1.94c-0.52-0.07-1-0.1-1.46-0.21c-2.21-0.53-3.78-2.48-3.81-4.74
		c-0.02-2.44-0.02-4.87,0-7.31C1.02,11.44,2,10.46,3.46,10.4c0.28-0.01,0.56,0,0.89,0c0-0.89-0.02-1.73,0.01-2.57
		c0.02-0.68,0-1.39,0.18-2.04c0.42-1.57,1.76-2.61,3.38-2.7c0.83-0.05,1.66-0.03,2.48-0.01c0.45,0.01,0.73,0.29,0.74,0.68
		c0,0.39-0.27,0.69-0.72,0.71c-0.72,0.02-1.44,0-2.16,0.01c-1.47,0.01-2.46,0.95-2.5,2.41C5.73,8.03,5.76,9.19,5.76,10.4
		c0.32,0,0.59,0,0.87,0c1.66,0,2.44,0.6,2.85,2.23c0.16,0,0.33,0,0.5,0c3.23,0,6.47,0,9.7,0c2.49,0,2.49,0,4.6,1.16
		c0.01-0.17,0.03-0.32,0.03-0.46c0-2.05,0-4.09,0-6.14c0-1.78-0.95-2.72-2.71-2.72c-2.62,0-5.25,0-7.87,0c-0.14,0-0.28,0.01-0.42,0
		c-0.44-0.04-0.73-0.33-0.73-0.71c0-0.38,0.3-0.69,0.74-0.69c2.97,0,5.94-0.03,8.9,0.02c1.14,0.02,2.04,0.61,2.87,1.65
		c0.08-0.16,0.12-0.3,0.21-0.4c0.75-0.83,1.69-1.27,2.81-1.27c4.56-0.01,9.12-0.01,13.68,0c2.29,0.01,3.85,1.63,3.88,3.97
		c0.01,1.09,0,2.18,0,3.31c0.15,0.02,0.27,0.05,0.38,0.04c1.48-0.09,2.5,0.51,2.95,1.96C49,15.17,49,17.98,49,20.79z M25.77,18.18
		c0.16,0,0.33,0,0.49,0c2.64,0,5.28,0,7.92,0c0.2,0,0.41,0,0.6,0.06c0.34,0.11,0.55,0.39,0.44,0.72c-0.08,0.24-0.34,0.43-0.55,0.6
		c-0.09,0.07-0.27,0.03-0.41,0.03c-8.4,0-16.81,0-25.21,0c-0.81,0-1.01-0.21-1.01-1.04c0-1.86,0-3.72,0-5.58
		c0-0.77-0.38-1.15-1.15-1.16c-1.11-0.01-2.22-0.01-3.33,0c-0.77,0.01-1.14,0.4-1.14,1.17c-0.01,2.34-0.03,4.69,0.02,7.03
		c0.01,0.56,0.14,1.16,0.38,1.67c0.68,1.44,1.92,2.01,3.47,2.01c7.67,0,15.34,0,23.01,0c4.83,0,9.65,0,14.48,0
		c2.34,0,3.83-1.5,3.83-3.84c0-2.27,0-4.53,0-6.8c0-0.86-0.37-1.23-1.22-1.24c-1.05-0.01-2.09,0-3.14,0c-0.91,0-1.26,0.36-1.26,1.29
		c0,1.86,0,3.72,0,5.58c0,0.66-0.24,0.91-0.9,0.91c-1.17,0.01-2.34,0.01-3.51,0c-0.56,0-0.86-0.26-0.86-0.7
		c0-0.44,0.31-0.69,0.87-0.7c0.55-0.01,1.09,0,1.64,0c0.44,0,0.89,0,1.33,0c0-1.41,0-2.75,0-4.14c-0.17,0-0.32,0-0.48,0
		c-3.65,0-7.31,0-10.96,0C26.79,14.04,25.33,15.83,25.77,18.18z M40.55,12.63c0.12-0.87,0.49-1.61,1.29-1.91
		c0.74-0.27,1.56-0.32,2.37-0.46c0-1.24,0-2.56,0-3.88c0-0.04-0.03-0.09-0.04-0.13c-0.31-1.11-1.21-1.77-2.45-1.77
		c-4.42,0-8.84,0-13.25,0c-1.81,0-2.75,0.93-2.75,2.73c0,2.05,0,4.09,0,6.14c0,0.15,0.02,0.29,0.03,0.46
		c2.07-1.17,2.07-1.17,4.55-1.17c3.25,0,6.49,0,9.74,0C40.19,12.63,40.36,12.63,40.55,12.63z M24.34,18.16
		c-0.05-0.61-0.02-1.18-0.15-1.72c-0.36-1.5-1.57-2.4-3.16-2.4c-3.73-0.01-7.47,0-11.2,0c-0.12,0-0.24,0.02-0.34,0.03
		c0,1.39,0,2.74,0,4.09C14.42,18.16,19.33,18.16,24.34,18.16z M11.46,25.09c-1.22,0-2.34,0-3.45,0.01c-0.09,0-0.23,0.1-0.26,0.19
		c-0.3,0.78-0.61,1.57-0.87,2.37c-0.14,0.43,0.12,0.78,0.57,0.82c0.33,0.03,0.66,0.04,0.98,0c0.22-0.03,0.5-0.08,0.62-0.23
		C9.86,27.23,10.62,26.2,11.46,25.09z M38.55,25.09c0.65,0.86,1.3,1.6,1.81,2.43c0.5,0.82,1.16,1.08,2.07,0.97
		c0.61-0.07,0.87-0.39,0.67-0.98c-0.25-0.72-0.52-1.43-0.8-2.14c-0.04-0.11-0.17-0.27-0.26-0.27
		C40.91,25.09,39.78,25.09,38.55,25.09z"/>
</g>
</svg>
