<?xml version="1.0" encoding="utf-8"?>
<!-- Generator: Adobe Illustrator 26.0.2, SVG Export Plug-In . SVG Version: 6.00 Build 0)  -->
<svg version="1.1" id="Layer_1" xmlns="http://www.w3.org/2000/svg" xmlns:xlink="http://www.w3.org/1999/xlink" x="0px" y="0px"
	 viewBox="0 0 50 50" style="enable-background:new 0 0 50 50;" xml:space="preserve">
<g>
	<path d="M49,45.63c0,0.75,0,1.5,0,2.25c-0.21,0.54-0.58,0.92-1.12,1.12c-12.84,0-25.68,0-38.52,0C9,48.79,8.77,48.51,8.91,48.08
		c0.14-0.43,0.51-0.51,0.91-0.48c0.12,0.01,0.25,0,0.37,0c12.26,0,24.51,0,36.77,0c0.2,0,0.39,0,0.59,0c0-0.6,0-1.13,0-1.66
		c-15.06,0-30.09,0-45.1,0c0,0.57,0,1.11,0,1.66c1.21,0,2.38,0,3.55,0c0.39,0,0.76,0.03,0.93,0.46c0.17,0.44-0.1,0.7-0.39,0.95
		c-1.47,0-2.94,0-4.4,0c-0.61-0.26-1.08-0.65-1.12-1.36c-0.03-0.59-0.03-1.19,0-1.78c0.03-0.75,0.65-1.34,1.41-1.36
		c0.51-0.02,1.03,0,1.55,0c0.6,0,1.2,0,1.77,0c-0.02-0.51-0.07-0.96-0.06-1.4c0.01-0.29-0.08-0.44-0.35-0.57
		c-0.74-0.37-1.19-1.01-1.21-1.82c-0.03-1.79,0-3.59,0.05-5.39c0.01-0.6,0.13-1.2,0.21-1.85c-0.4,0-0.75,0.01-1.11,0
		c-0.86-0.03-1.46-0.61-1.5-1.48c-0.02-0.36-0.02-0.72,0-1.08c0.02-0.42-0.02-0.76-0.39-1.07C1.19,29.66,1.13,29.29,1.02,29
		c-0.03-0.08-0.01-0.19-0.01-0.28c0-4.83,0-9.65,0-14.48c0-1.4,0.95-2.36,2.35-2.36c1.79,0,3.58,0,5.41,0c-0.02,0.05,0,0.03,0,0
		c0-1.58,0.01-3.16,0-4.73c0-0.13-0.1-0.29-0.21-0.37C8.2,6.45,8.01,6.06,8.01,5.58c0-0.81-0.02-1.63,0.01-2.44
		c0.05-1.24,0.97-2.12,2.21-2.14c0.91-0.01,1.81-0.01,2.72,0c0.54,0,0.87,0.27,0.86,0.71c0,0.43-0.33,0.69-0.87,0.7
		c-0.87,0-1.75,0-2.62,0c-0.42,0-0.81,0.15-0.84,0.58C9.4,3.86,9.45,4.75,9.45,5.64c10.39,0,20.74,0,31.16,0c0-0.71,0-1.39,0-2.07
		c0-0.94-0.22-1.16-1.16-1.16c-7.54,0-15.09,0-22.63,0c-0.17,0-0.35,0.02-0.51-0.01c-0.39-0.07-0.61-0.31-0.59-0.72
		c0.01-0.38,0.24-0.59,0.61-0.66C16.4,1,16.5,1,16.59,1c7.72,0,15.43,0,23.15,0c1.3,0,2.22,0.89,2.26,2.19
		c0.03,0.8,0.03,1.59-0.01,2.39c-0.02,0.31-0.1,0.73-0.31,0.89c-0.52,0.4-0.46,0.9-0.46,1.42c0,0.72,0,1.44,0,2.16
		c0,0.64,0,1.27,0,1.92c0.11,0,0.17,0,0.23,0c1.87-0.02,3.74-0.05,5.61-0.07c0.06,0,0.12,0.03,0.18,0.04
		c0.94,0.21,1.42,0.88,1.74,1.72c0,5.19,0,10.37,0,15.56c-0.08,0.15-0.12,0.36-0.24,0.44c-0.69,0.48-0.52,1.19-0.53,1.86
		c0,0.16,0.01,0.31,0,0.47c-0.05,0.87-0.64,1.45-1.51,1.47c-0.36,0.01-0.71,0-1.11,0c0.07,0.52,0.19,0.97,0.2,1.43
		c0.05,1.9,0.09,3.81,0.08,5.71c0,0.86-0.44,1.53-1.22,1.91c-0.27,0.14-0.34,0.29-0.34,0.58c0.01,0.45-0.03,0.9-0.06,1.4
		c0.95,0,1.93,0.03,2.91-0.01C48.07,44.44,48.68,44.78,49,45.63z M5.53,35.13c13.04,0,25.95,0,38.9,0
		c-0.06-0.38-0.07-0.73-0.17-1.05c-0.52-1.7-1.04-3.4-1.59-5.09c-0.37-1.15-1.23-1.74-2.44-1.74c-10.15,0-20.3,0-30.45,0
		c-1.21,0-2.05,0.6-2.44,1.74c-0.42,1.22-0.85,2.45-1.22,3.68C5.88,33.46,5.73,34.27,5.53,35.13z M44.49,36.61
		c-13.02,0-25.98,0-38.97,0c0,1.18,0,2.32,0,3.45c0,1.1,0.22,1.33,1.31,1.33c12.12,0,24.23,0,36.35,0c0.16,0,0.31,0.01,0.47-0.01
		c0.51-0.05,0.84-0.37,0.84-0.89C44.5,39.22,44.49,37.94,44.49,36.61z M39.8,7.11c-9.89,0-19.73,0-29.57,0c0,4.19,0,8.35,0,12.5
		c0.61,0,1.18,0,1.77,0c-0.01-0.23-0.02-0.41-0.03-0.6c-0.16-1.72-0.08-3.43,0.19-5.14c0.19-1.21,1.07-1.99,2.28-1.99
		c2.39-0.01,4.78-0.01,7.17,0c1.21,0,2.1,0.8,2.28,2c0.25,1.66,0.36,3.32,0.2,5c-0.02,0.24,0,0.49,0,0.74c0.63,0,1.25,0,1.89,0
		c-0.02-0.29-0.03-0.54-0.05-0.78c-0.16-1.67-0.05-3.34,0.21-5c0.17-1.12,1.06-1.94,2.18-1.95c2.45-0.01,4.9-0.01,7.36,0
		c1.08,0.01,1.99,0.78,2.17,1.85c0.28,1.67,0.38,3.35,0.23,5.04c-0.02,0.27-0.03,0.55-0.04,0.85c0.62,0,1.19,0,1.78,0
		C39.8,15.44,39.8,11.29,39.8,7.11z M8.33,26.01c0.51-0.06,0.95-0.15,1.4-0.15c5.32-0.01,10.65-0.02,15.97,0
		c5.32,0.02,10.63-0.09,15.95,0.07c-0.5-1.5-1.02-3.07-1.56-4.63c-0.04-0.11-0.24-0.23-0.37-0.23c-0.55-0.03-1.09-0.03-1.64,0
		c-0.15,0.01-0.36,0.15-0.44,0.28c-0.46,0.8-1.13,1.24-2.06,1.24c-2.39,0-4.78,0-7.17,0c-0.95,0-1.63-0.44-2.09-1.26
		c-0.07-0.13-0.26-0.26-0.41-0.26c-0.61-0.03-1.22-0.03-1.83,0c-0.14,0.01-0.34,0.13-0.41,0.26c-0.47,0.84-1.17,1.27-2.13,1.27
		c-2.36,0-4.72,0-7.07,0c-0.96,0-1.66-0.43-2.13-1.28c-0.07-0.12-0.24-0.24-0.37-0.25c-0.58-0.03-1.16-0.03-1.73,0
		c-0.12,0.01-0.3,0.15-0.34,0.27C9.37,22.88,8.86,24.43,8.33,26.01z M6.91,25.83c0.61-1.84,1.23-3.67,1.83-5.51
		c0.04-0.11,0.04-0.25,0.04-0.37c0-1.87,0-3.75,0-5.62c0-0.74-0.31-1.04-1.06-1.04c-1.39,0-2.78,0-4.17,0
		c-0.87,0-1.13,0.27-1.13,1.15c0,3.64,0,7.27,0,10.91c0,0.15,0,0.3,0,0.48C3.93,25.83,5.39,25.83,6.91,25.83z M47.56,25.85
		c0.02-0.1,0.03-0.13,0.03-0.16c0-3.82,0.01-7.65,0-11.47c0-0.62-0.34-0.93-0.98-0.93c-1.42,0-2.84,0-4.26,0
		c-0.84,0-1.12,0.28-1.12,1.13c0,1.83,0,3.65,0,5.48c0,0.15,0,0.32,0.05,0.46c0.57,1.75,1.15,3.49,1.74,5.23
		c0.04,0.11,0.2,0.25,0.31,0.25C44.73,25.85,46.14,25.85,47.56,25.85z M18.05,13.28c-1.17,0-2.34,0-3.51,0c-0.62,0-0.9,0.22-1,0.82
		c-0.35,2.1-0.35,4.19,0,6.29c0.09,0.56,0.36,0.79,0.92,0.79c2.36,0.01,4.71,0.01,7.07,0c0.59,0,0.85-0.24,0.95-0.82
		c0.34-2.05,0.35-4.1,0.02-6.15c-0.12-0.74-0.36-0.93-1.13-0.94C20.27,13.28,19.16,13.28,18.05,13.28z M31.98,21.19
		c1.17,0,2.34,0.01,3.51,0c0.62-0.01,0.87-0.23,0.98-0.84c0.35-2.1,0.35-4.19-0.01-6.29c-0.09-0.52-0.38-0.77-0.9-0.77
		c-2.37-0.01-4.74-0.01-7.11,0c-0.54,0-0.83,0.26-0.92,0.8c-0.35,2.06-0.36,4.13-0.02,6.2c0.12,0.7,0.35,0.91,1.06,0.91
		C29.7,21.19,30.84,21.19,31.98,21.19z M42.9,42.82c-11.96,0-23.86,0-35.77,0c-0.19,1.3,0.03,1.69,1.35,1.68
		c11.04-0.02,22.08-0.01,33.11-0.01c1.17,0,1.35-0.18,1.32-1.37C42.92,43.04,42.91,42.95,42.9,42.82z M6.42,27.29
		c-1.37,0-2.67,0-3.96,0c0,0.57,0,1.1,0,1.65c1.16,0,2.28,0,3.42,0C6.05,28.39,6.23,27.86,6.42,27.29z M47.55,28.94
		c0-0.56,0-1.1,0-1.65c-1.32,0-2.62,0-3.96,0c0.2,0.58,0.38,1.12,0.56,1.65C45.3,28.94,46.41,28.94,47.55,28.94z M5.38,30.39
		c-0.78,0-1.47,0-2.17,0c0,0.56,0,1.08,0,1.66c0.5,0,0.98,0.01,1.45-0.01c0.08,0,0.19-0.1,0.22-0.18
		C5.06,31.39,5.21,30.9,5.38,30.39z M46.78,32.02c0-0.55,0-1.09,0-1.63c-0.73,0-1.42,0-2.11,0c0.27,1.61,0.41,1.72,1.94,1.66
		C46.65,32.05,46.68,32.04,46.78,32.02z"/>
</g>
</svg>
