<?xml version="1.0" encoding="utf-8"?>
<!-- Generator: Adobe Illustrator 26.0.2, SVG Export Plug-In . SVG Version: 6.00 Build 0)  -->
<svg version="1.1" id="Layer_1" xmlns="http://www.w3.org/2000/svg" xmlns:xlink="http://www.w3.org/1999/xlink" x="0px" y="0px"
	 viewBox="0 0 50 40" style="enable-background:new 0 0 50 40;" xml:space="preserve">
<g>
	<path d="M1,5.45c0.04-0.06,0.08-0.13,0.11-0.19c0.38-0.98,1.1-1.51,2.14-1.51c2.31-0.01,4.62-0.01,6.93,0
		c0.53,0,0.83,0.25,0.84,0.67c0.02,0.44-0.3,0.73-0.84,0.73c-2.16,0.01-4.31,0-6.47,0c-0.16,0-0.31,0-0.47,0
		C2.71,5.17,2.42,5.46,2.41,6c-0.01,0.56,0,1.12,0,1.7c15.07,0,30.09,0,45.15,0c0-0.64,0.04-1.27-0.01-1.91
		c-0.03-0.37-0.31-0.61-0.7-0.64c-0.19-0.02-0.37-0.01-0.56-0.01c-10.78,0-21.55,0-32.33,0c-0.22,0-0.44,0-0.65-0.06
		c-0.34-0.09-0.52-0.36-0.48-0.71c0.03-0.34,0.24-0.57,0.59-0.62c0.15-0.02,0.31-0.02,0.47-0.02c10.85,0,21.71,0.02,32.56-0.02
		c1.68-0.01,2.56,1.17,2.55,2.55c-0.04,7.84-0.02,15.68-0.02,23.52c0,1.75-0.83,2.59-2.57,2.6c-0.18,0-0.37,0-0.62,0
		c0,0.36,0,0.68,0,1c0,1.09,0.01,2.19,0.01,3.28c0,0.97-0.61,1.58-1.57,1.6c-0.31,0.01-0.62,0.01-0.94,0
		c-0.85-0.01-1.34-0.36-1.61-1.16c-0.48-1.43-0.97-2.87-1.43-4.31c-0.1-0.33-0.26-0.42-0.6-0.42c-2.62,0.01-5.25,0.01-7.87,0.01
		c-0.19,0-0.38,0-0.56-0.03c-0.35-0.07-0.54-0.31-0.54-0.66c0-0.36,0.18-0.6,0.53-0.67c0.18-0.04,0.37-0.03,0.56-0.03
		c4.86,0,9.71,0,14.57,0c1.03,0,1.23-0.2,1.23-1.23c0-0.43,0-0.87,0-1.33c-15.07,0-30.1,0-45.16,0c0,0.62-0.03,1.23,0.01,1.83
		c0.02,0.4,0.28,0.65,0.69,0.7c0.2,0.02,0.41,0.02,0.61,0.02c7.96,0,15.93,0,23.89,0c0.2,0,0.41-0.01,0.61,0.03
		c0.38,0.07,0.57,0.33,0.56,0.7c-0.01,0.35-0.2,0.59-0.56,0.65c-0.2,0.03-0.4,0.03-0.61,0.03c-5.73,0-11.46,0.01-17.19-0.01
		c-0.42,0-0.59,0.12-0.71,0.52c-0.44,1.4-0.92,2.78-1.39,4.17c-0.29,0.86-0.76,1.19-1.67,1.2c-0.31,0-0.62,0.01-0.94,0
		c-0.91-0.03-1.51-0.65-1.52-1.56c-0.01-1.25,0-2.5,0.01-3.75c0-0.17,0-0.34,0-0.6c-1.48,0.19-2.66-0.18-3.19-1.7
		C1,22.26,1,13.85,1,5.45z M5.62,9.15c0,4.38,0,8.74,0,13.19c0.83-0.63,1.75-0.62,2.68-0.61c1.01,0.01,2.03,0,3.04,0
		c0.17,0,0.33-0.01,0.49-0.02c0-4.21,0-8.37,0-12.56C9.74,9.15,7.69,9.15,5.62,9.15z M38.16,9.15c0,4.22,0,8.38,0,12.58
		c1.09,0,2.15,0,3.21,0c1.03,0,2.07-0.1,3,0.6c0-4.44,0-8.8,0-13.18C42.29,9.15,40.24,9.15,38.16,9.15z M16.47,21.71
		c2.08,0,4.12,0,6.19,0c0-4.2,0-8.37,0-12.56c-2.08,0-4.12,0-6.19,0C16.47,13.34,16.47,17.5,16.47,21.71z M33.5,21.71
		c0-4.22,0-8.38,0-12.54c-2.08,0-4.13,0-6.19,0c0,4.2,0,8.36,0,12.54C29.39,21.71,31.43,21.71,33.5,21.71z M2.44,9.15
		c0,5.94,0,11.86,0,17.8c0.59,0,1.14,0,1.71,0c0-5.94,0-11.86,0-17.8C3.56,9.15,3.01,9.15,2.44,9.15z M45.83,9.15
		c0,5.96,0,11.87,0,17.78c0.6,0,1.16,0,1.72,0c0-5.95,0-11.85,0-17.78C46.96,9.15,46.41,9.15,45.83,9.15z M13.3,9.15
		c0,5.94,0,11.86,0,17.79c0.59,0,1.14,0,1.71,0c0-5.94,0-11.85,0-17.79C14.43,9.15,13.87,9.15,13.3,9.15z M36.69,26.95
		c0-5.96,0-11.87,0-17.78c-0.59,0-1.16,0-1.71,0c0,5.95,0,11.86,0,17.78C35.57,26.95,36.11,26.95,36.69,26.95z M24.15,9.15
		c0,5.97,0,11.87,0,17.78c0.59,0,1.14,0,1.69,0c0-5.95,0-11.86,0-17.78C25.25,9.15,24.71,9.15,24.15,9.15z M22.67,26.97
		c0-1.29,0-2.53,0-3.79c-2.09,0-4.15,0-6.2,0c0,1.28,0,2.52,0,3.79C18.55,26.97,20.59,26.97,22.67,26.97z M33.52,23.16
		c-2.09,0-4.13,0-6.2,0c0,1.28,0,2.53,0,3.8c2.08,0,4.13,0,6.2,0C33.52,25.69,33.52,24.44,33.52,23.16z M5.6,26.96
		c2.11,0,4.16,0,6.23,0c0-1.28,0-2.53,0-3.8c-1.55,0-3.06-0.03-4.57,0.01c-0.86,0.03-1.6,0.82-1.65,1.7
		C5.56,25.55,5.6,26.24,5.6,26.96z M44.39,26.97c0-0.64,0.01-1.25,0-1.85c-0.01-1.16-0.8-1.96-1.97-1.98c-1.11-0.01-2.21,0-3.32,0
		c-0.31,0-0.61,0-0.94,0c0,1.31,0,2.56,0,3.83C40.24,26.97,42.27,26.97,44.39,26.97z M44.37,32.42c-0.93,0-1.82,0-2.77,0
		c0.48,1.45,0.94,2.85,1.42,4.25c0.03,0.09,0.17,0.19,0.27,0.2c0.35,0.02,0.71,0.01,1.08,0.01C44.37,35.36,44.37,33.92,44.37,32.42z
		 M5.62,36.87c0.3,0,0.58-0.02,0.85,0c0.31,0.03,0.48-0.07,0.57-0.39c0.11-0.45,0.29-0.89,0.44-1.33c0.3-0.89,0.6-1.79,0.91-2.73
		c-0.95,0-1.84,0-2.76,0C5.62,33.89,5.62,35.33,5.62,36.87z"/>
</g>
</svg>
